<svg width="24" height="24" viewBox="0 0 24 24" fill="none" xmlns="http://www.w3.org/2000/svg">
<path d="M19 21C19 20.0885 18.4061 19.112 17.127 18.3125C15.8618 17.5218 14.0517 17 12 17C9.9483 17 8.13819 17.5218 6.87305 18.3125C5.59387 19.112 5 20.0885 5 21C5 21.5523 4.55228 22 4 22C3.44772 22 3 21.5523 3 21C3 19.1501 4.19728 17.6263 5.81348 16.6162C7.44373 15.5974 9.63359 15 12 15C14.3664 15 16.5563 15.5974 18.1865 16.6162C19.8027 17.6263 21 19.1501 21 21C21 21.5523 20.5523 22 20 22C19.4477 22 19 21.5523 19 21ZM16 8C16 5.79086 14.2091 4 12 4C9.79086 4 8 5.79086 8 8C8 10.2091 9.79086 12 12 12C14.2091 12 16 10.2091 16 8ZM18 8C18 11.3137 15.3137 14 12 14C8.68629 14 6 11.3137 6 8C6 4.68629 8.68629 2 12 2C15.3137 2 18 4.68629 18 8Z" fill="white"/>
</svg>
