<svg width="221" height="182" viewBox="0 0 221 182" fill="none" xmlns="http://www.w3.org/2000/svg">
<g clip-path="url(#clip0_109_654)">
<path d="M117.511 42.3428H41.0628C39.2202 42.3408 37.4537 41.6072 36.1508 40.3031C34.8479 38.999 34.115 37.2308 34.1129 35.3865V6.95632C34.115 5.11203 34.8479 3.34388 36.1508 2.03978C37.4537 0.735667 39.2202 0.0020973 41.0628 0H117.511C119.354 0.0020965 121.12 0.735666 122.423 2.03978C123.726 3.34389 124.459 5.11203 124.461 6.95632V35.3865C124.459 37.2308 123.726 38.999 122.423 40.3031C121.12 41.6072 119.354 42.3408 117.511 42.3428Z" fill="white"/>
<path d="M117.511 42.3428H41.0628C39.2202 42.3408 37.4537 41.6072 36.1508 40.3031C34.8479 38.999 34.115 37.2308 34.1129 35.3865V6.95632C34.115 5.11203 34.8479 3.34388 36.1508 2.03978C37.4537 0.735667 39.2202 0.0020973 41.0628 0H117.511C119.354 0.0020965 121.12 0.735666 122.423 2.03978C123.726 3.34389 124.459 5.11203 124.461 6.95632V35.3865C124.459 37.2308 123.726 38.999 122.423 40.3031C121.12 41.6072 119.354 42.3408 117.511 42.3428ZM41.0628 0.604898C39.3804 0.606786 37.7675 1.27656 36.5779 2.46727C35.3883 3.65799 34.7191 5.2724 34.7173 6.95632V35.3865C34.7192 37.0704 35.3883 38.6848 36.5779 39.8755C37.7675 41.0662 39.3804 41.736 41.0628 41.7379H117.511C119.194 41.736 120.807 41.0662 121.996 39.8755C123.186 38.6848 123.855 37.0704 123.857 35.3865V6.95632C123.855 5.2724 123.186 3.65799 121.996 2.46727C120.807 1.27656 119.194 0.606786 117.511 0.604898H41.0628Z" fill="#3F3D56"/>
<path d="M146.439 46.2121H105.776C105.52 46.2091 105.264 46.1767 105.015 46.1155C104.271 45.9366 103.609 45.5117 103.136 44.9095C102.664 44.3074 102.408 43.5632 102.41 42.7974V28.9633C102.411 28.0584 102.771 27.191 103.411 26.5515C104.051 25.9119 104.918 25.5524 105.822 25.5518H146.439C146.987 25.5503 147.526 25.6825 148.011 25.9369C148.204 26.0371 148.387 26.1564 148.556 26.293C148.961 26.61 149.288 27.0154 149.512 27.4782C149.736 27.941 149.852 28.449 149.851 28.9633V42.7974C149.85 43.7027 149.49 44.5707 148.85 45.2108C148.211 45.851 147.343 46.2111 146.439 46.2121Z" fill="white"/>
<path d="M143.713 45.9094C145.56 41.418 147.505 36.971 149.548 32.5684V40.0328C148.155 42.1549 146.542 44.1245 144.738 45.9094H143.713Z" fill="#E6E6E6"/>
<path d="M148.367 26.5287C144.714 33.0888 140.891 39.5491 136.9 45.9096H136.205C140.263 39.4493 144.152 32.8811 147.871 26.2051C148.047 26.2962 148.213 26.4046 148.367 26.5287Z" fill="#E6E6E6"/>
<path d="M121.559 33.6904C119.171 37.9152 116.537 41.9953 113.669 45.9093H109.526C112.24 42.6005 114.955 39.2917 117.673 35.983C118.452 35.0302 119.298 34.0322 120.468 33.645L121.559 33.6904Z" fill="#E6E6E6"/>
<path d="M116.053 33.0129C115.621 33.4636 115.207 33.9324 114.817 34.4193C113.959 35.4537 113.113 36.4971 112.264 37.5376C111.735 38.1848 111.206 38.832 110.683 39.4793C110.517 39.3726 110.36 39.2533 110.212 39.1224C109.377 38.397 108.859 37.3732 108.769 36.2702C108.68 35.1673 109.025 34.073 109.732 33.2219C110.438 32.3707 111.45 31.8304 112.549 31.7167C113.649 31.6031 114.749 31.925 115.615 32.6137C115.771 32.7355 115.917 32.8689 116.053 33.0129Z" fill="#DE6109"/>
<path d="M139.42 35.953L131.479 33.0465L127.535 31.6038C126.251 31.135 124.97 30.5997 123.643 30.2609C122.49 29.9309 121.265 29.9467 120.12 30.3063C119.099 30.6844 118.165 31.2646 117.373 32.0121C117.023 32.3357 116.683 32.6694 116.355 33.0132C115.923 33.4639 115.509 33.9326 115.119 34.4196C114.261 35.454 113.415 36.4974 112.566 37.5378C112.037 38.1851 111.508 38.8323 110.986 39.4795C109.239 41.6179 107.503 43.7612 105.776 45.9096C105.544 45.9069 105.313 45.8775 105.087 45.8219C106.888 43.5838 108.697 41.3507 110.514 39.1227C110.723 38.8626 110.937 38.5994 111.149 38.3393C112.034 37.2535 112.921 36.1687 113.808 35.085C114.494 34.2472 115.174 33.4034 115.917 32.614C115.983 32.5414 116.05 32.4718 116.119 32.3992C117.627 30.8386 119.51 29.4594 121.764 29.4231C123.09 29.402 124.372 29.8224 125.605 30.267C126.931 30.7479 128.255 31.2378 129.581 31.7248L137.576 34.6525L139.577 35.3844C139.93 35.5114 139.779 36.0861 139.42 35.953Z" fill="#E6E6E6"/>
<path d="M146.439 46.2121H105.776C105.52 46.2091 105.264 46.1767 105.015 46.1155C104.271 45.9366 103.609 45.5117 103.136 44.9095C102.664 44.3074 102.408 43.5632 102.41 42.7974V28.9633C102.411 28.0584 102.771 27.191 103.411 26.5515C104.051 25.9119 104.918 25.5524 105.822 25.5518H146.439C146.987 25.5503 147.526 25.6825 148.011 25.9369C148.204 26.0371 148.387 26.1564 148.556 26.293C148.961 26.61 149.288 27.0154 149.512 27.4782C149.736 27.941 149.852 28.449 149.851 28.9633V42.7974C149.85 43.7027 149.49 44.5707 148.85 45.2108C148.211 45.851 147.343 46.2111 146.439 46.2121ZM105.822 26.1567C105.078 26.1571 104.364 26.4529 103.838 26.979C103.312 27.5052 103.016 28.2188 103.014 28.9633V42.7974C103.013 43.4276 103.223 44.0401 103.612 44.5356C104.001 45.0311 104.546 45.3808 105.158 45.528C105.362 45.5779 105.57 45.6045 105.78 45.6072H146.439C147.183 45.6063 147.897 45.31 148.423 44.7833C148.949 44.2565 149.245 43.5423 149.246 42.7974V28.9633C149.247 28.5401 149.152 28.1221 148.967 27.7413C148.783 27.3606 148.513 27.0271 148.18 26.7664C148.041 26.6542 147.891 26.5561 147.733 26.4737C147.334 26.2643 146.89 26.1555 146.439 26.1567H105.822Z" fill="#3F3D56"/>
<path d="M65.5705 59.4278H6.94987C5.10729 59.4258 3.34076 58.6922 2.03786 57.3881C0.734951 56.084 0.00206982 54.3158 0 52.4715V42.1883C0.00209456 40.344 0.734984 38.5758 2.03788 37.2717C3.34078 35.9676 5.10729 35.234 6.94987 35.2319H65.5705C67.4131 35.234 69.1796 35.9676 70.4825 37.2717C71.7854 38.5758 72.5183 40.344 72.5204 42.1883V52.4715C72.5183 54.3158 71.7855 56.084 70.4825 57.3881C69.1796 58.6922 67.4131 59.4258 65.5705 59.4278Z" fill="white"/>
<path d="M65.5705 59.4278H6.94987C5.10729 59.4258 3.34076 58.6922 2.03786 57.3881C0.734951 56.084 0.00206982 54.3158 0 52.4715V42.1883C0.00209456 40.344 0.734984 38.5758 2.03788 37.2717C3.34078 35.9676 5.10729 35.234 6.94987 35.2319H65.5705C67.4131 35.234 69.1796 35.9676 70.4825 37.2717C71.7854 38.5758 72.5183 40.344 72.5204 42.1883V52.4715C72.5183 54.3158 71.7855 56.084 70.4825 57.3881C69.1796 58.6922 67.4131 59.4258 65.5705 59.4278ZM6.94987 35.8368C5.26751 35.8387 3.65459 36.5085 2.46498 37.6992C1.27537 38.8899 0.606223 40.5043 0.604337 42.1883V52.4715C0.606248 54.1554 1.27541 55.7698 2.46501 56.9605C3.65462 58.1512 5.26752 58.821 6.94987 58.8229H65.5705C67.2529 58.821 68.8658 58.1512 70.0554 56.9605C71.245 55.7698 71.9142 54.1554 71.9161 52.4715V42.1883C71.9142 40.5043 71.245 38.8899 70.0554 37.6992C68.8658 36.5085 67.2529 35.8387 65.5705 35.8368H6.94987Z" fill="#3F3D56"/>
<path d="M24.1623 53.6435H14.7382C14.2344 53.6429 13.7515 53.4424 13.3953 53.0859C13.0391 52.7293 12.8387 52.2459 12.8381 51.7417V42.9174C12.8387 42.4132 13.0391 41.9298 13.3953 41.5733C13.7515 41.2167 14.2344 41.0162 14.7382 41.0156H24.1623C24.666 41.0162 25.149 41.2167 25.5052 41.5733C25.8614 41.9298 26.0618 42.4132 26.0623 42.9174V51.7417C26.0618 52.2459 25.8614 52.7293 25.5052 53.0859C25.149 53.4424 24.666 53.6429 24.1623 53.6435Z" fill="#DE6109"/>
<path d="M40.9723 53.6435H31.5481C31.0444 53.6429 30.5614 53.4424 30.2052 53.0859C29.849 52.7293 29.6487 52.2459 29.6481 51.7417V42.9174C29.6487 42.4132 29.849 41.9298 30.2052 41.5733C30.5614 41.2167 31.0444 41.0162 31.5481 41.0156H40.9723C41.476 41.0162 41.959 41.2167 42.3152 41.5733C42.6714 41.9298 42.8717 42.4132 42.8723 42.9174V51.7417C42.8717 52.2459 42.6714 52.7293 42.3152 53.0859C41.959 53.4424 41.476 53.6429 40.9723 53.6435Z" fill="#E6E6E6"/>
<path d="M57.7822 53.6435H48.3581C47.8544 53.6429 47.3714 53.4424 47.0152 53.0859C46.659 52.7293 46.4586 52.2459 46.4581 51.7417V42.9174C46.4586 42.4132 46.659 41.9298 47.0152 41.5733C47.3714 41.2167 47.8544 41.0162 48.3581 41.0156H57.7822C58.286 41.0162 58.7689 41.2167 59.1251 41.5733C59.4813 41.9298 59.6817 42.4132 59.6823 42.9174V51.7417C59.6817 52.2459 59.4813 52.7293 59.1251 53.0859C58.7689 53.4424 58.286 53.6429 57.7822 53.6435Z" fill="#E6E6E6"/>
<path d="M83.0142 16.7824H70.9275C70.6069 16.7824 70.2995 16.6549 70.0728 16.428C69.8462 16.2012 69.7188 15.8934 69.7188 15.5726C69.7188 15.2517 69.8462 14.944 70.0728 14.7171C70.2995 14.4903 70.6069 14.3628 70.9275 14.3628H83.0142C83.3348 14.3628 83.6422 14.4903 83.8689 14.7171C84.0956 14.944 84.2229 15.2517 84.2229 15.5726C84.2229 15.8934 84.0956 16.2012 83.8689 16.428C83.6422 16.6549 83.3348 16.7824 83.0142 16.7824Z" fill="#CCCCCC"/>
<path d="M109.001 23.4362H70.6253C70.3047 23.4362 69.9973 23.3087 69.7706 23.0818C69.544 22.855 69.4166 22.5473 69.4166 22.2264C69.4166 21.9055 69.544 21.5978 69.7706 21.3709C69.9973 21.1441 70.3047 21.0166 70.6253 21.0166H109.001C109.321 21.0166 109.629 21.1441 109.855 21.3709C110.082 21.5978 110.209 21.9055 110.209 22.2264C110.209 22.5473 110.082 22.855 109.855 23.0818C109.629 23.3087 109.321 23.4362 109.001 23.4362Z" fill="#CCCCCC"/>
<path d="M56.5733 27.0108C61.0489 27.0108 64.6771 23.3792 64.6771 18.8994C64.6771 14.4197 61.0489 10.7881 56.5733 10.7881C52.0977 10.7881 48.4695 14.4197 48.4695 18.8994C48.4695 23.3792 52.0977 27.0108 56.5733 27.0108Z" fill="#DE6109"/>
<path d="M144.739 94.814H68.2901C66.4475 94.812 64.6809 94.0784 63.378 92.7743C62.0751 91.4702 61.3422 89.702 61.3402 87.8577V59.4275C61.3423 57.5832 62.0752 55.8151 63.3781 54.511C64.681 53.2069 66.4475 52.4733 68.2901 52.4712H144.739C146.581 52.4733 148.348 53.2069 149.651 54.511C150.954 55.8151 151.686 57.5832 151.689 59.4275V87.8577C151.686 89.702 150.954 91.4702 149.651 92.7743C148.348 94.0784 146.581 94.812 144.739 94.814Z" fill="white"/>
<path d="M144.739 94.814H68.2901C66.4475 94.812 64.6809 94.0784 63.378 92.7743C62.0751 91.4702 61.3422 89.702 61.3402 87.8577V59.4275C61.3423 57.5832 62.0752 55.8151 63.3781 54.511C64.681 53.2069 66.4475 52.4733 68.2901 52.4712H144.739C146.581 52.4733 148.348 53.2069 149.651 54.511C150.954 55.8151 151.686 57.5832 151.689 59.4275V87.8577C151.686 89.702 150.954 91.4702 149.651 92.7743C148.348 94.0784 146.581 94.812 144.739 94.814ZM68.2901 53.0761C66.6077 53.078 64.9948 53.7477 63.8052 54.9385C62.6156 56.1292 61.9464 57.7436 61.9445 59.4275V87.8577C61.9464 89.5416 62.6156 91.156 63.8052 92.3467C64.9948 93.5374 66.6077 94.2072 68.2901 94.2091H144.739C146.421 94.2072 148.034 93.5374 149.223 92.3467C150.413 91.156 151.082 89.5416 151.084 87.8577V59.4275C151.082 57.7436 150.413 56.1292 149.224 54.9385C148.034 53.7477 146.421 53.078 144.739 53.0761H68.2901Z" fill="#3F3D56"/>
<path d="M98.0653 63.7356H85.2242C85.063 63.7358 84.9033 63.7043 84.7543 63.6427C84.6053 63.5812 84.4699 63.4908 84.3558 63.3768C84.2418 63.2628 84.1513 63.1274 84.0895 62.9783C84.0278 62.8293 83.996 62.6695 83.996 62.5082C83.996 62.3468 84.0278 62.1871 84.0895 62.038C84.1513 61.889 84.2418 61.7536 84.3558 61.6396C84.4699 61.5256 84.6053 61.4352 84.7543 61.3736C84.9033 61.3121 85.063 61.2805 85.2242 61.2808H98.0653C98.3902 61.2813 98.7016 61.4108 98.9312 61.6409C99.1607 61.8711 99.2897 62.183 99.2897 62.5082C99.2897 62.8334 99.1607 63.1453 98.9312 63.3754C98.7016 63.6055 98.3902 63.7351 98.0653 63.7356Z" fill="#DE6109"/>
<path d="M126.851 68.7556H85.2242C84.8989 68.7556 84.587 68.6263 84.3571 68.3961C84.1271 68.1659 83.9979 67.8537 83.9979 67.5282C83.9979 67.2027 84.1271 66.8905 84.3571 66.6603C84.587 66.4301 84.8989 66.3008 85.2242 66.3008H126.851C127.176 66.3008 127.488 66.4301 127.718 66.6603C127.948 66.8905 128.077 67.2027 128.077 67.5282C128.077 67.8537 127.948 68.1659 127.718 68.3961C127.488 68.6263 127.176 68.7556 126.851 68.7556Z" fill="#E6E6E6"/>
<path d="M126.851 74.5183H85.2242C85.0631 74.5183 84.9037 74.4866 84.7549 74.4249C84.6061 74.3632 84.4709 74.2728 84.3571 74.1588C84.2432 74.0448 84.1529 73.9095 84.0912 73.7606C84.0296 73.6117 83.9979 73.4521 83.9979 73.2909C83.9979 73.1297 84.0296 72.9701 84.0912 72.8212C84.1529 72.6723 84.2432 72.537 84.3571 72.423C84.4709 72.309 84.6061 72.2186 84.7549 72.1569C84.9037 72.0952 85.0631 72.0635 85.2242 72.0635H126.851C127.176 72.0635 127.488 72.1928 127.718 72.423C127.948 72.6532 128.077 72.9654 128.077 73.2909C128.077 73.6164 127.948 73.9286 127.718 74.1588C127.488 74.389 127.176 74.5183 126.851 74.5183Z" fill="#E6E6E6"/>
<path d="M126.851 80.2805H85.2242C85.063 80.2808 84.9033 80.2492 84.7543 80.1876C84.6053 80.1261 84.4699 80.0357 84.3558 79.9217C84.2418 79.8077 84.1513 79.6723 84.0895 79.5233C84.0278 79.3742 83.996 79.2144 83.996 79.0531C83.996 78.8918 84.0278 78.732 84.0895 78.5829C84.1513 78.4339 84.2418 78.2985 84.3558 78.1845C84.4699 78.0705 84.6053 77.9801 84.7543 77.9186C84.9033 77.857 85.063 77.8254 85.2242 77.8257H126.851C127.176 77.8262 127.487 77.9557 127.717 78.1859C127.946 78.416 128.075 78.7279 128.075 79.0531C128.075 79.3783 127.946 79.6902 127.717 79.9203C127.487 80.1505 127.176 80.28 126.851 80.2805Z" fill="#E6E6E6"/>
<path d="M126.851 86.0432H85.2242C84.8989 86.0432 84.587 85.9139 84.3571 85.6837C84.1271 85.4535 83.9979 85.1413 83.9979 84.8158C83.9979 84.4903 84.1271 84.1781 84.3571 83.9479C84.587 83.7177 84.8989 83.5884 85.2242 83.5884H126.851C127.176 83.5884 127.488 83.7177 127.718 83.9479C127.948 84.1781 128.077 84.4903 128.077 84.8158C128.077 85.1413 127.948 85.4535 127.718 85.6837C127.488 85.9139 127.176 86.0432 126.851 86.0432Z" fill="#E6E6E6"/>
<path d="M180.85 176.908L176.654 176.907L174.658 160.707L180.851 160.707L180.85 176.908Z" fill="#FFB6B6"/>
<path d="M180.998 181.289L168.094 181.289V181.125C168.094 179.792 168.623 178.514 169.565 177.571C170.507 176.628 171.785 176.098 173.116 176.098L175.474 174.309L179.871 176.099L180.998 176.099L180.998 181.289Z" fill="#282828"/>
<path d="M210.261 169.182L206.828 171.597L195.886 159.495L200.952 155.929L210.261 169.182Z" fill="#FFB6B6"/>
<path d="M212.9 172.681L202.344 180.11L202.25 179.976C201.484 178.886 201.182 177.535 201.411 176.221C201.64 174.908 202.38 173.739 203.47 172.972L203.47 172.972L204.37 170.151L208.996 169.084L209.917 168.435L212.9 172.681Z" fill="#282828"/>
<path d="M197.568 96.3119L197.917 97.0574C200.209 101.958 200.795 107.436 199.904 112.773C199.838 112.982 199.85 113.207 199.94 113.407C200.492 114.055 199.625 116.872 199.129 118.445L198.681 121.227C198.681 121.227 199.423 123.811 198.296 123.621C197.168 123.431 198.847 126.187 197.772 126.877L194.981 144.214L206.622 163.418L202.311 169.675L185.065 147.45L184.849 127.383L182.262 143.566L182.047 169.028L174.203 168.193L171.329 143.508L174.071 109.37L178.382 94.5679L197.568 96.3119Z" fill="#282828"/>
<path d="M148.991 90.3851C149.398 89.9307 149.966 89.653 150.574 89.6112C151.182 89.5694 151.783 89.7667 152.247 90.1613C152.341 90.243 152.427 90.3322 152.506 90.4282L160.192 87.6763L162.96 91.0891L152.023 93.7193C151.6 94.0145 151.092 94.1613 150.577 94.1368C150.062 94.1123 149.57 93.918 149.177 93.5841C148.955 93.3919 148.773 93.1579 148.642 92.8955C148.511 92.633 148.432 92.3473 148.411 92.0545C148.39 91.7617 148.427 91.4676 148.52 91.1891C148.612 90.9105 148.759 90.6529 148.95 90.431C148.964 90.4155 148.977 90.4002 148.991 90.3851Z" fill="#FFB6B6"/>
<path d="M192.179 51.8662L185.834 52.1687L182.799 57.4157L178.488 58.7103L174.823 67.7728L177.071 96.0237C177.071 96.0237 177.521 97.7325 176.692 97.483C175.862 97.2335 176.2 99.375 176.2 99.375L173.142 111.146L200.942 108.727L199.398 96.255C199.398 96.255 201.544 96.3244 200.035 94.8139C198.526 93.3035 197.793 93.7847 199.242 91.999C200.692 90.2134 200.907 88.9187 200.907 88.9187L201.554 80.072L202.62 67.6216C202.789 65.646 202.465 63.6592 201.677 61.8401C200.889 60.0209 199.661 58.4264 198.105 57.1999L192.179 51.8662Z" fill="#DE6109"/>
<path d="M207.156 113.537C207.496 113.031 207.626 112.412 207.518 111.811C207.41 111.211 207.072 110.676 206.576 110.322C206.474 110.251 206.366 110.189 206.254 110.136L207.04 102.003L203.057 100.152L203.184 111.41C203.002 111.893 202.984 112.422 203.133 112.916C203.283 113.409 203.592 113.839 204.011 114.139C204.252 114.307 204.523 114.426 204.809 114.49C205.095 114.553 205.391 114.559 205.68 114.508C205.969 114.457 206.245 114.349 206.492 114.191C206.739 114.033 206.953 113.828 207.121 113.587C207.133 113.571 207.144 113.554 207.156 113.537Z" fill="#FFB6B6"/>
<path d="M201.145 60.7275C201.145 60.7275 210.283 82.5153 210.007 90.8821L206.985 106.307L202.755 106.004L203.057 92.0919C204.601 90.5123 198.141 81.5911 196.011 75.3127L201.145 60.7275Z" fill="#DE6109"/>
<path d="M178.919 58.4946C178.919 58.4946 167.575 79.1697 163.182 85.2506L159.847 87.8577V92.092L167.601 92.2633C167.601 92.2633 179.134 82.6613 178.703 77.9143C178.272 73.1673 178.919 58.4946 178.919 58.4946Z" fill="#DE6109"/>
<path d="M188.889 50.4093C193.333 50.4093 196.936 46.803 196.936 42.3545C196.936 37.906 193.333 34.2998 188.889 34.2998C184.444 34.2998 180.841 37.906 180.841 42.3545C180.841 46.803 184.444 50.4093 188.889 50.4093Z" fill="#FFB6B6"/>
<path d="M191.998 49.7494C189.689 49.6736 189.479 49.0631 187.17 48.9872C186.434 48.9631 185.567 48.8622 185.211 48.2175C184.958 47.7583 185.075 47.1801 185.297 46.7054C185.561 46.2524 185.798 45.7847 186.009 45.3047C186.135 44.9282 186.169 44.5266 186.106 44.1344C186.042 43.7422 185.885 43.3712 185.646 43.0537C185.408 42.7361 185.096 42.4814 184.737 42.3117C184.378 42.1419 183.983 42.0621 183.587 42.0793C182.884 42.1097 182.224 42.4405 181.523 42.5009C180.562 42.5838 178.437 39.4076 178.88 38.5496C179.31 37.7144 180.177 37.0843 180.313 36.1544C180.402 35.5461 180.152 34.9418 180.117 34.328C180.067 33.418 182.371 35.47 181.949 34.6623C180.914 32.6811 190.671 30.2249 192.277 32.7066C192.877 33.6341 193.947 33.5708 194.901 34.1278C195.526 34.4929 197.104 35.7524 197.463 36.5374C197.793 37.3384 197.948 38.2004 197.92 39.0663C197.934 43.0932 197.322 46.7973 194.076 49.1776" fill="#282828"/>
<path d="M154.391 179.611C152.208 179.804 150.011 179.506 147.959 178.74C145.906 177.974 144.051 176.758 142.528 175.182C140.536 173.08 139.17 170.375 137.848 167.759C137.463 166.998 137.066 166.211 136.661 165.457C136.21 164.634 136.015 163.695 136.102 162.761C136.189 161.827 136.553 160.94 137.148 160.215C137.718 159.49 138.492 158.952 139.37 158.671C140.248 158.39 141.19 158.379 142.074 158.639L142.267 158.695L144.003 165.474C144.262 164.463 144.818 162.185 145.168 159.952L145.198 159.766L145.371 159.843C147.183 160.645 148.887 161.673 150.443 162.902C153.199 165.115 155.441 167.902 157.012 171.069C158.583 174.236 159.447 177.708 159.542 181.243L159.547 181.454L154.391 179.611Z" fill="#89AC46"/>
<path d="M220.64 181.907L136.411 182C136.315 182 136.224 181.962 136.156 181.895C136.089 181.827 136.051 181.736 136.051 181.64C136.051 181.545 136.089 181.453 136.156 181.385C136.224 181.318 136.315 181.28 136.411 181.28L220.64 181.187C220.688 181.187 220.734 181.196 220.778 181.214C220.822 181.232 220.862 181.259 220.895 181.292C220.929 181.326 220.955 181.365 220.974 181.409C220.992 181.453 221.001 181.5 221.001 181.547C221.001 181.595 220.992 181.641 220.974 181.685C220.955 181.729 220.929 181.769 220.895 181.802C220.862 181.836 220.822 181.862 220.778 181.88C220.734 181.898 220.688 181.907 220.64 181.907Z" fill="#CACACA"/>
</g>
<defs>
<clipPath id="clip0_109_654">
<rect width="221" height="182" fill="white"/>
</clipPath>
</defs>
</svg>
