<svg width="287" height="182" viewBox="0 0 287 182" fill="none" xmlns="http://www.w3.org/2000/svg">
<g clip-path="url(#clip0_109_404)">
<path d="M215.402 84.7418L69.1126 79.2404L39.3856 80.3464L61.2019 92.9421L47.551 104.258L61.3627 108.207L46.1851 118.952L69.2748 122.374L36.9337 134.976L58.7132 134.236L43.6643 138.862L61.7358 141.864L22.4783 147.686L213.569 149.018L180.035 139.566L210.371 136.334L188.988 130.491L216.673 125.419L186.466 122.533L215.259 115.004L184.186 112.546L202.262 107.5L172.199 102.22L228.92 101.526L185.984 90.6712L215.402 84.7418Z" fill="#DE6109"/>
<path d="M80.924 86.1881L214.356 91.206L241.47 90.1972L221.571 78.7085L234.023 68.3867L221.425 64.7849L235.268 54.9846L214.208 51.863L243.707 40.3689L223.841 41.0441L237.568 36.8246L221.084 34.0862L256.892 28.7762L82.5954 27.5608L113.182 36.1822L85.5126 39.13L105.016 44.4594L79.7647 49.0856L107.317 51.7187L81.0542 58.5853L109.396 60.8274L92.9089 65.4296L120.329 70.2462L68.5937 70.8788L107.756 80.7798L80.924 86.1881Z" fill="#DE6109"/>
<path d="M70.7598 6.05637C72.385 6.05637 73.7025 4.70061 73.7025 3.02819C73.7025 1.35577 72.385 0 70.7598 0C69.1346 0 67.8171 1.35577 67.8171 3.02819C67.8171 4.70061 69.1346 6.05637 70.7598 6.05637Z" fill="#333333"/>
<path d="M80.9253 6.05637C82.5505 6.05637 83.868 4.70061 83.868 3.02819C83.868 1.35577 82.5505 0 80.9253 0C79.3001 0 77.9827 1.35577 77.9827 3.02819C77.9827 4.70061 79.3001 6.05637 80.9253 6.05637Z" fill="#333333"/>
<path d="M91.091 6.05637C92.7162 6.05637 94.0336 4.70061 94.0336 3.02819C94.0336 1.35577 92.7162 0 91.091 0C89.4658 0 88.1483 1.35577 88.1483 3.02819C88.1483 4.70061 89.4658 6.05637 91.091 6.05637Z" fill="#333333"/>
<path d="M102.682 5.42134C102.592 5.42134 102.502 5.38611 102.434 5.31599L100.448 3.2728C100.316 3.13666 100.316 2.9191 100.448 2.78296L102.434 0.739951C102.568 0.601755 102.789 0.599531 102.926 0.734479C103.063 0.869768 103.065 1.0916 102.931 1.22979L101.184 3.02788L102.931 4.82614C103.065 4.96434 103.063 5.18617 102.926 5.32146C102.858 5.38816 102.77 5.42134 102.682 5.42134Z" fill="#333333"/>
<path d="M106.019 5.4216C105.931 5.4216 105.843 5.38842 105.776 5.32171C105.638 5.18643 105.636 4.96477 105.77 4.8264L107.517 3.02814L105.77 1.23005C105.636 1.09186 105.638 0.870024 105.776 0.734736C105.913 0.599276 106.133 0.601844 106.268 0.740207L108.253 2.78322C108.385 2.91936 108.385 3.13692 108.253 3.27306L106.268 5.31624C106.2 5.38637 106.109 5.4216 106.019 5.4216Z" fill="#333333"/>
<path d="M209.892 0.350586H206.2C205.779 0.350586 205.438 0.693852 205.438 1.1177V4.83766C205.438 5.26151 205.779 5.60477 206.2 5.60477H209.892C210.313 5.60477 210.657 5.26151 210.657 4.83766V1.1177C210.657 0.693852 210.313 0.350586 209.892 0.350586Z" fill="#333333"/>
<path d="M200.845 0.350586H197.153C196.732 0.350586 196.391 0.693852 196.391 1.1177V4.83766C196.391 5.26151 196.732 5.60477 197.153 5.60477H200.845C201.266 5.60477 201.61 5.26151 201.61 4.83766V1.1177C201.61 0.693852 201.266 0.350586 200.845 0.350586Z" fill="#333333"/>
<path d="M218.417 0.525879H214.725C214.304 0.525879 213.963 0.869145 213.963 1.29299V5.01295C213.963 5.4368 214.304 5.78007 214.725 5.78007H218.417C218.838 5.78007 219.183 5.4368 219.183 5.01295V1.29299C219.183 0.869145 218.838 0.525879 218.417 0.525879Z" fill="#333333"/>
<path d="M162.769 1.94092H133.257C132.742 1.94092 132.328 2.36126 132.328 2.87618C132.328 3.3911 132.742 3.81142 133.257 3.81142H162.769C163.28 3.81142 163.698 3.39108 163.698 2.87618C163.698 2.36128 163.28 1.94092 162.769 1.94092Z" fill="#333333"/>
<path d="M224.454 14.6763H62.5455C62.1983 14.6688 61.9229 14.3794 61.9303 14.0299C61.9375 13.691 62.2088 13.4179 62.5455 13.4106H224.454C224.802 13.4181 225.077 13.7075 225.07 14.057C225.062 14.396 224.791 14.669 224.454 14.6763Z" fill="#CACACA"/>
<path d="M198.361 23.6201H186.383C185.483 23.6201 184.754 24.3543 184.754 25.26V25.26C184.754 26.1657 185.483 26.8999 186.383 26.8999H198.361C199.261 26.8999 199.99 26.1657 199.99 25.26C199.99 24.3543 199.261 23.6201 198.361 23.6201Z" fill="#89AC46"/>
<path d="M178.644 30.1797H206.099C206.999 30.1797 207.729 30.9139 207.729 31.8196C207.729 32.7253 206.999 33.4595 206.099 33.4595H178.644C177.745 33.4595 177.015 32.7253 177.015 31.8196C177.015 30.9139 177.745 30.1797 178.644 30.1797Z" fill="#E6E6E6"/>
<path d="M206.099 36.7393H178.644C177.745 36.7393 177.015 37.4735 177.015 38.3792V38.3792C177.015 39.2848 177.745 40.0191 178.644 40.0191H206.099C206.999 40.0191 207.729 39.2848 207.729 38.3792C207.729 37.4735 206.999 36.7393 206.099 36.7393Z" fill="#E6E6E6"/>
<path d="M67.4688 112.614H59.9068C59.7036 112.614 58.5842 112.018 58.5842 111.282V107.054C58.548 103.855 68.9499 103.646 68.9891 107.054V111.282C68.9891 112.018 68.1992 112.614 67.4688 112.614Z" fill="#E6E6E6"/>
<path d="M67.86 104.187C67.4932 104.055 67.1036 103.999 66.7147 104.022C66.8187 103.988 66.9143 103.931 66.9951 103.857C66.924 103.854 66.8534 103.844 66.7841 103.828C66.7077 103.814 66.6358 103.781 66.5742 103.734C66.5123 103.684 66.4792 103.607 66.4862 103.528C66.5003 103.431 66.5901 103.352 66.5809 103.255C66.5703 103.143 66.4425 103.089 66.3741 103C66.2884 102.864 66.3031 102.686 66.4102 102.566C66.4752 102.489 66.5547 102.427 66.6441 102.382C66.4932 102.343 66.3346 102.346 66.1848 102.389C66.3453 102.264 66.4166 102.055 66.3662 101.857C66.2815 101.611 66.0803 101.423 65.8298 101.357C65.5826 101.294 65.3268 101.273 65.0729 101.295C65.2887 101.228 65.2562 100.888 65.0912 100.733C64.9262 100.578 64.6903 100.513 64.5347 100.348C64.3791 100.183 64.3917 99.8317 64.6159 99.8043L64.5883 99.7241C64.1419 99.5562 63.6448 99.7845 63.4781 100.234C63.4639 100.272 63.4523 100.312 63.4436 100.352C63.4025 100.609 63.4791 100.894 63.3507 101.121C63.187 101.41 62.7897 101.443 62.4608 101.411C62.1379 101.327 61.7955 101.374 61.5066 101.542C61.2677 101.742 61.2354 102.099 61.4344 102.34C61.5448 102.473 61.7099 102.548 61.8824 102.543C61.666 102.545 61.4506 102.573 61.2413 102.629L61.4429 102.707C61.4878 102.721 61.5292 102.745 61.5644 102.776C61.5997 102.809 61.6106 102.86 61.5915 102.905C61.5592 102.964 61.4759 102.962 61.4099 102.952L60.9715 102.885C61.0587 102.915 61.1058 103.009 61.0767 103.097C61.0476 103.185 60.9533 103.232 60.8661 103.203C60.8438 103.196 60.8232 103.183 60.8059 103.167C60.851 103.22 60.8872 103.28 60.9131 103.345C60.9389 103.411 60.9313 103.485 60.8928 103.544C60.8036 103.626 60.6724 103.642 60.5663 103.584C60.5306 103.57 60.4947 103.554 60.4586 103.54C60.4593 103.552 60.4602 103.565 60.4617 103.578C60.486 103.747 60.5798 103.899 60.7204 103.996C60.5216 104.019 60.3386 104.116 60.2071 104.268C59.9789 104.553 59.9652 104.956 60.1733 105.256C59.9521 105.157 59.7098 105.117 59.4689 105.138C59.2213 105.169 59.0357 105.382 59.0372 105.633C59.0771 105.94 59.4556 106.053 59.7614 106.091C62.1664 106.389 64.5987 106.389 67.0036 106.09C67.3304 106.068 67.6504 105.986 67.9479 105.848C68.2489 105.705 68.456 105.416 68.4969 105.084C68.4839 104.683 68.2326 104.329 67.86 104.187Z" fill="#6C63FF"/>
<path d="M69.6452 107.751C69.5903 107.512 69.378 107.343 69.134 107.344C68.9016 107.35 68.6938 107.517 68.4656 107.48C68.276 107.45 68.1271 107.284 67.9365 107.309C67.7619 107.332 67.6681 107.504 67.5377 107.596H67.2033C67.0732 107.493 67.0092 107.284 66.8287 107.226C66.5567 107.137 66.3385 107.446 66.0537 107.501C65.8888 107.519 65.7222 107.487 65.5757 107.409C65.4322 107.331 65.2765 107.278 65.1152 107.252C64.9704 107.23 64.826 107.294 64.744 107.416C64.7529 107.329 64.64 107.243 64.5254 107.238C64.3974 107.242 64.2729 107.281 64.1645 107.35C64.0556 107.418 63.9297 107.454 63.8013 107.454C63.5167 107.429 63.3772 107.094 63.091 107.091C62.7309 107.086 62.5868 107.603 62.2307 107.559C62.0455 107.536 61.9455 107.367 61.7804 107.294C61.6051 107.24 61.4181 107.238 61.2418 107.289L60.3994 107.448C60.1526 107.516 59.8921 107.519 59.644 107.455C59.4633 107.389 59.2878 107.247 59.1015 107.301C58.9392 107.348 58.86 107.531 58.6882 107.541C58.5784 107.527 58.4726 107.49 58.3774 107.434C58.1952 107.369 57.9922 107.42 57.8624 107.564C57.7681 107.951 57.7528 108.353 57.8175 108.746C57.815 108.83 57.8215 108.913 57.8371 108.996L58.6844 112.409C58.784 112.932 59.0411 113.31 59.5705 113.31H67.805C68.3344 113.31 68.7892 112.932 68.8888 112.409L69.7361 108.996C69.7377 108.987 69.7388 108.978 69.7403 108.969C69.7603 108.561 69.7284 108.151 69.6452 107.751Z" fill="#CCCCCC"/>
<path opacity="0.2" d="M59.5773 107.494L59.7419 109.649C59.7968 110.367 59.7155 111.075 59.7704 111.793C59.8013 112.197 59.9684 112.612 59.9993 113.016C60.0029 113.064 60.0771 113.064 60.0734 113.016L59.9088 110.862L59.7442 108.708L59.6514 107.494C59.6478 107.447 59.5736 107.446 59.5773 107.494Z" fill="black"/>
<path opacity="0.2" d="M61.0073 107.579L61.0715 109.702L61.1356 111.825L61.1717 113.017C61.1731 113.065 61.2473 113.065 61.2458 113.017L61.1817 110.894L61.1175 108.771L61.0815 107.579C61.08 107.532 61.0059 107.531 61.0073 107.579Z" fill="black"/>
<path opacity="0.2" d="M62.3928 107.707L62.3733 109.758L62.3539 111.798L62.3429 112.954C62.3436 112.975 62.3608 112.991 62.3812 112.99C62.4007 112.989 62.4164 112.974 62.417 112.954L62.4366 110.902L62.4559 108.863L62.4669 107.707C62.4662 107.686 62.4491 107.67 62.4286 107.671C62.4091 107.672 62.3935 107.687 62.3928 107.707Z" fill="black"/>
<path opacity="0.2" d="M63.4393 107.644L63.4799 109.721L63.5202 111.785L63.5431 112.954C63.5438 112.975 63.561 112.991 63.5814 112.99C63.6009 112.99 63.6166 112.974 63.6172 112.954L63.5766 110.877L63.5363 108.813L63.5135 107.644C63.5128 107.623 63.4956 107.607 63.4751 107.608C63.4556 107.609 63.44 107.624 63.4393 107.644Z" fill="black"/>
<path opacity="0.2" d="M64.9647 107.559L65.0111 109.691L65.0575 111.823L65.0835 113.017C65.0842 113.037 65.1013 113.054 65.1218 113.053C65.1413 113.052 65.157 113.036 65.1576 113.017L65.1112 110.885L65.0648 108.752L65.0388 107.559C65.038 107.538 65.0207 107.522 65.0002 107.523C64.981 107.524 64.9655 107.539 64.9647 107.559Z" fill="black"/>
<path opacity="0.2" d="M66.2308 107.624L66.3925 109.772L66.5538 111.914L66.6446 113.122C66.6482 113.169 66.7224 113.17 66.7188 113.122L66.5571 110.973L66.3958 108.831L66.305 107.624C66.3014 107.576 66.2272 107.576 66.2308 107.624Z" fill="black"/>
<path opacity="0.2" d="M67.6378 107.874L67.7353 109.84C67.7678 110.495 67.6026 111.15 67.6351 111.805L67.6899 112.909C67.6922 112.957 67.7664 112.957 67.764 112.909C67.7315 112.254 67.8967 111.599 67.8642 110.943L67.7667 108.978L67.712 107.874C67.7096 107.826 67.6354 107.826 67.6378 107.874Z" fill="black"/>
<path d="M63.3417 102.488C63.4987 102.488 63.6259 102.399 63.6259 102.289C63.6259 102.179 63.4987 102.09 63.3417 102.09C63.1847 102.09 63.0575 102.179 63.0575 102.289C63.0575 102.399 63.1847 102.488 63.3417 102.488Z" fill="#E6E6E6"/>
<path d="M65.1459 102.936C65.3029 102.936 65.4301 102.847 65.4301 102.737C65.4301 102.627 65.3029 102.538 65.1459 102.538C64.9889 102.538 64.8617 102.627 64.8617 102.737C64.8617 102.847 64.9889 102.936 65.1459 102.936Z" fill="#3F3D56"/>
<path d="M62.625 103.906C62.782 103.906 62.9093 103.817 62.9093 103.707C62.9093 103.597 62.782 103.508 62.625 103.508C62.4681 103.508 62.3408 103.597 62.3408 103.707C62.3408 103.817 62.4681 103.906 62.625 103.906Z" fill="#FF6584"/>
<path d="M64.9753 104.169C65.0745 104.169 65.1549 104.112 65.1549 104.043C65.1549 103.973 65.0745 103.917 64.9753 103.917C64.8761 103.917 64.7957 103.973 64.7957 104.043C64.7957 104.112 64.8761 104.169 64.9753 104.169Z" fill="#E6E6E6"/>
<path d="M66.1155 104.452C66.2147 104.452 66.2952 104.395 66.2952 104.326C66.2952 104.257 66.2147 104.2 66.1155 104.2C66.0163 104.2 65.9359 104.257 65.9359 104.326C65.9359 104.395 66.0163 104.452 66.1155 104.452Z" fill="#3F3D56"/>
<path d="M64.5223 105.065C64.6215 105.065 64.7019 105.008 64.7019 104.939C64.7019 104.869 64.6215 104.813 64.5223 104.813C64.4231 104.813 64.3427 104.869 64.3427 104.939C64.3427 105.008 64.4231 105.065 64.5223 105.065Z" fill="#FF6584"/>
<path d="M66.6559 104.865C66.7551 104.865 66.8356 104.809 66.8356 104.74C66.8356 104.67 66.7551 104.614 66.6559 104.614C66.5567 104.614 66.4763 104.67 66.4763 104.74C66.4763 104.809 66.5567 104.865 66.6559 104.865Z" fill="#E6E6E6"/>
<path d="M67.7961 105.148C67.8953 105.148 67.9757 105.092 67.9757 105.022C67.9757 104.953 67.8953 104.896 67.7961 104.896C67.6969 104.896 67.6165 104.953 67.6165 105.022C67.6165 105.092 67.6969 105.148 67.7961 105.148Z" fill="#3F3D56"/>
<path d="M66.2029 105.761C66.3021 105.761 66.3826 105.705 66.3826 105.636C66.3826 105.566 66.3021 105.51 66.2029 105.51C66.1037 105.51 66.0233 105.566 66.0233 105.636C66.0233 105.705 66.1037 105.761 66.2029 105.761Z" fill="#FF6584"/>
<path d="M62.0258 104.201C62.0393 104.102 61.9949 104.015 61.9265 104.005C61.8581 103.996 61.7917 104.068 61.7782 104.167C61.7646 104.266 61.8091 104.354 61.8774 104.363C61.9458 104.373 62.0122 104.3 62.0258 104.201Z" fill="#E6E6E6"/>
<path d="M61.5916 105.3C61.6051 105.201 61.5606 105.113 61.4923 105.104C61.4239 105.094 61.3575 105.167 61.344 105.266C61.3304 105.365 61.3749 105.453 61.4432 105.462C61.5116 105.471 61.578 105.399 61.5916 105.3Z" fill="#3F3D56"/>
<path d="M61.2056 103.628C61.2191 103.529 61.1747 103.441 61.1063 103.431C61.0379 103.422 60.9715 103.494 60.958 103.593C60.9444 103.692 60.9889 103.78 61.0573 103.79C61.1256 103.799 61.192 103.727 61.2056 103.628Z" fill="#FF6584"/>
<path d="M63.9781 103.605C63.9917 103.506 63.9472 103.418 63.8789 103.408C63.8105 103.399 63.7441 103.471 63.7306 103.57C63.717 103.669 63.7615 103.757 63.8298 103.767C63.8982 103.776 63.9646 103.704 63.9781 103.605Z" fill="#E6E6E6"/>
<path d="M63.5439 104.703C63.5575 104.604 63.513 104.516 63.4447 104.507C63.3763 104.497 63.3099 104.57 63.2964 104.669C63.2828 104.767 63.3273 104.855 63.3956 104.865C63.464 104.874 63.5304 104.802 63.5439 104.703Z" fill="#3F3D56"/>
<path d="M63.1579 103.031C63.1715 102.932 63.127 102.844 63.0587 102.834C62.9903 102.825 62.9239 102.897 62.9104 102.996C62.8968 103.095 62.9413 103.183 63.0096 103.192C63.078 103.202 63.1444 103.129 63.1579 103.031Z" fill="#FF6584"/>
<path d="M64.5072 102.389C64.5207 102.29 64.4763 102.202 64.4079 102.193C64.3396 102.183 64.2732 102.256 64.2596 102.355C64.2461 102.453 64.2905 102.541 64.3589 102.551C64.4273 102.56 64.4937 102.488 64.5072 102.389Z" fill="#3F3D56"/>
<path d="M64.1218 100.717C64.1354 100.618 64.0909 100.53 64.0226 100.521C63.9542 100.511 63.8878 100.584 63.8742 100.683C63.8607 100.782 63.9052 100.87 63.9735 100.879C64.0419 100.888 64.1083 100.816 64.1218 100.717Z" fill="#FF6584"/>
<path d="M133.285 81.085C134.737 81.085 135.914 80.2606 135.914 79.2437C135.914 78.2267 134.737 77.4023 133.285 77.4023C131.832 77.4023 130.655 78.2267 130.655 79.2437C130.655 80.2606 131.832 81.085 133.285 81.085Z" fill="#E6E6E6"/>
<path d="M149.976 85.2281C151.428 85.2281 152.606 84.4037 152.606 83.3868C152.606 82.3698 151.428 81.5454 149.976 81.5454C148.524 81.5454 147.347 82.3698 147.347 83.3868C147.347 84.4037 148.524 85.2281 149.976 85.2281Z" fill="#333333"/>
<path d="M126.654 94.2047C128.106 94.2047 129.283 93.3803 129.283 92.3633C129.283 91.3464 128.106 90.522 126.654 90.522C125.201 90.522 124.024 91.3464 124.024 92.3633C124.024 93.3803 125.201 94.2047 126.654 94.2047Z" fill="#FF6584"/>
<path d="M163.946 103.076C164.864 103.076 165.608 102.555 165.608 101.912C165.608 101.27 164.864 100.749 163.946 100.749C163.028 100.749 162.284 101.27 162.284 101.912C162.284 102.555 163.028 103.076 163.946 103.076Z" fill="#E6E6E6"/>
<path d="M174.495 105.695C175.413 105.695 176.157 105.174 176.157 104.531C176.157 103.888 175.413 103.367 174.495 103.367C173.577 103.367 172.833 103.888 172.833 104.531C172.833 105.174 173.577 105.695 174.495 105.695Z" fill="#333333"/>
<path d="M121.108 96.9373C121.233 96.0221 120.822 95.209 120.189 95.1213C119.557 95.0336 118.943 95.7044 118.817 96.6197C118.692 97.5349 119.103 98.348 119.736 98.4357C120.368 98.5234 120.983 97.8526 121.108 96.9373Z" fill="#E6E6E6"/>
<path d="M117.092 107.1C117.217 106.185 116.806 105.372 116.174 105.284C115.541 105.196 114.927 105.867 114.802 106.782C114.676 107.697 115.087 108.511 115.72 108.598C116.352 108.686 116.967 108.015 117.092 107.1Z" fill="#333333"/>
<path d="M113.521 91.6268C113.646 90.7115 113.235 89.8985 112.602 89.8107C111.97 89.723 111.356 90.3939 111.23 91.3091C111.105 92.2244 111.516 93.0374 112.149 93.1251C112.781 93.2129 113.396 92.542 113.521 91.6268Z" fill="#FF6584"/>
<path d="M139.172 91.4139C139.298 90.4986 138.886 89.6856 138.254 89.5978C137.621 89.5101 137.007 90.181 136.882 91.0962C136.756 92.0115 137.168 92.8245 137.8 92.9123C138.433 93 139.047 92.3291 139.172 91.4139Z" fill="#E6E6E6"/>
<path d="M131.584 86.1029C131.71 85.1876 131.299 84.3745 130.666 84.2868C130.034 84.1991 129.419 84.8699 129.294 85.7852C129.169 86.7004 129.58 87.5135 130.212 87.6012C130.845 87.689 131.459 87.0181 131.584 86.1029Z" fill="#FF6584"/>
<path d="M201.815 175.312C202.271 175.333 202.657 174.978 202.678 174.519C202.689 174.274 202.592 174.037 202.414 173.87C202.393 173.787 202.378 173.727 202.357 173.644C202.806 172.496 204.095 171.931 205.235 172.383C205.795 172.605 206.241 173.046 206.472 173.605C207.451 175.912 208.718 178.3 208.088 180.841C212.251 171.96 210.835 160.913 204.683 153.318C202.927 152.378 201.67 150.71 201.246 148.754C202.087 149.041 203.137 148.352 202.504 147.46C202.229 147.119 201.953 146.78 201.678 146.439C204.875 143.012 208.684 148.398 205.165 153.024C206.317 154.477 207.314 156.047 208.14 157.709C207.95 155.944 208.177 154.159 208.805 152.501C209.442 150.956 210.635 149.654 211.685 148.318C212.462 147.316 213.899 147.137 214.894 147.919C215.388 148.306 215.702 148.88 215.763 149.507C214.584 149.897 214.431 151.611 215.78 151.845C215.362 155.749 212.993 159.166 209.497 160.906C210.765 164.49 211.261 168.304 210.95 172.095C211.556 167.664 216.281 166.589 219.583 164.828C220.182 164.442 220.977 164.617 221.361 165.219C221.535 165.492 221.6 165.82 221.545 166.14C221.09 166.326 220.653 166.558 220.243 166.831C219.728 167.18 219.592 167.882 219.938 168.4C220.126 168.682 220.429 168.863 220.765 168.895C219.1 173.042 214.796 175.827 210.376 175.811C209.951 177.669 209.336 179.478 208.54 181.208H201.979C201.956 181.135 201.935 181.059 201.913 180.986C202.521 181.024 203.13 180.987 203.729 180.877C202.122 178.962 200.88 177.985 201.815 175.312Z" fill="#89AC46"/>
<path d="M73.3595 175.213C72.9037 175.234 72.5172 174.879 72.4963 174.421C72.4851 174.176 72.5819 173.938 72.7608 173.772L72.8174 173.545C72.3684 172.397 71.0797 171.833 69.939 172.285C69.3794 172.506 68.9332 172.947 68.7024 173.506C67.7232 175.813 66.456 178.202 67.0862 180.743C62.9233 171.861 64.339 160.814 70.4911 153.219C72.2471 152.28 73.5041 150.611 73.9288 148.656C73.0872 148.943 72.0379 148.253 72.6707 147.361C72.9449 147.02 73.2219 146.682 73.4961 146.341C70.2992 142.913 66.4901 148.3 70.009 152.926C68.8579 154.378 67.8608 155.948 67.0339 157.61C67.2249 155.846 66.997 154.061 66.369 152.403C65.7326 150.857 64.5396 149.555 63.4891 148.219C62.7125 147.217 61.2758 147.038 60.2802 147.82C59.7868 148.208 59.4728 148.781 59.4112 149.408C60.59 149.798 60.7431 151.512 59.3947 151.747C59.812 155.65 62.1819 159.068 65.6777 160.808C64.409 164.391 63.9136 168.205 64.2245 171.997C63.6181 167.566 58.8934 166.491 55.5909 164.73C54.9929 164.343 54.1972 164.519 53.8137 165.121C53.6399 165.393 53.574 165.722 53.6291 166.041C54.0849 166.228 54.5211 166.459 54.9314 166.733C55.4461 167.081 55.5828 167.784 55.2368 168.302C55.0488 168.583 54.7452 168.765 54.4098 168.796C56.0744 172.944 60.3781 175.728 64.7983 175.713C65.2231 177.571 65.8385 179.379 66.6347 181.11H73.1952C73.2187 181.036 73.2398 180.96 73.261 180.887C72.6538 180.925 72.0441 180.889 71.4457 180.778C73.0523 178.863 74.2946 177.886 73.3595 175.213Z" fill="#89AC46"/>
<path d="M89.7962 97.8999L89.0984 93.8285L99.7072 89.0062L101.998 84.9229C101.777 83.8494 102.461 82.7983 103.528 82.5751C104.594 82.352 105.639 83.0414 105.86 84.1149C106.034 84.9556 105.651 85.8133 104.911 86.2407L101.142 92.1061L89.7962 97.8999Z" fill="#A0616A"/>
<path d="M86.5715 94.5714L91.3488 92.1152L92.6137 96.8955L89.2951 99.3716L86.5715 94.5714Z" fill="#3F3D56"/>
<path d="M75.8509 175.823H78.7394L80.1136 164.607H75.8506L75.8509 175.823Z" fill="#A0616A"/>
<path d="M79.7008 176.085V174.114L78.9414 174.16L75.8501 174.345L75.1346 174.389L74.5876 180.991L74.5583 181.345H76.6094L76.6754 180.994L76.9733 179.396L77.7424 180.994L77.9109 181.345H83.3488C84.0223 181.341 84.5668 180.792 84.5697 180.114C84.7993 179.035 80.277 176.702 79.7008 176.085Z" fill="#090814"/>
<path d="M41.6313 165.354L43.993 167.029L51.5332 158.656L48.0476 156.185L41.6313 165.354Z" fill="#A0616A"/>
<path d="M44.7133 167.586L45.8411 165.974L45.1936 165.572L42.5609 163.931L41.9507 163.552L37.7263 168.633L37.4999 168.905L39.1767 170.094L39.4317 169.845L40.5893 168.711L40.304 170.463L40.2407 170.848L44.6862 174.001C45.2392 174.388 45.9986 174.255 46.3888 173.702C47.1938 172.953 44.8314 168.424 44.7133 167.586Z" fill="#090814"/>
<path d="M80.3174 103.234L76.5992 101.485L69.1844 110.518L64.668 111.667C63.6975 111.169 62.5098 111.558 62.0152 112.535C61.5205 113.512 61.9063 114.707 62.8767 115.205C63.6367 115.595 64.5595 115.449 65.1639 114.843L71.7774 112.727L80.3174 103.234Z" fill="#A0616A"/>
<path d="M76.5688 117.784C76.5688 117.784 70.4682 121.783 72.0813 124.44C72.137 124.532 59.0868 142.77 59.0868 142.77L44.453 158.651L49.4834 163.255C49.4834 163.255 63.3855 148.682 65.7177 146.222C68.0499 143.762 78.2365 131.456 78.2365 131.456L78.6112 146.665L74.7116 167.74L80.5342 167.368L86.2015 146.225L88.2933 122.275L76.5688 117.784Z" fill="#D6D6E3"/>
<path d="M80.9143 93.7852L78.3489 95.7422L75.4249 102.024L78.2366 105.868C78.2366 105.868 80.6017 109.995 76.816 113.99C73.0302 117.986 70.1231 122.254 73.1533 122.102C76.1834 121.949 88.4558 128.233 88.5366 123.085C88.6173 117.937 88.7808 113.99 88.7808 113.99L91.9983 105.776C91.9983 105.776 93.9153 100.875 92.5694 99.4079C91.2235 97.9409 89.4215 96.0664 89.4215 96.0664L86.1444 92.7676H83.1854L80.9143 93.7852Z" fill="#3F3D56"/>
<path d="M85.7032 81.7145C91.4585 85.0112 86.7337 93.7095 80.8711 90.6121C75.116 87.3155 79.8408 78.6172 85.7032 81.7145Z" fill="#A0616A"/>
<path d="M88.7808 83.5424C88.3775 84.0704 87.535 83.8228 85.8851 84.1996C85.8887 83.6366 85.8241 83.0753 85.6927 82.5281C85.5699 83.2056 85.3009 83.8478 84.9046 84.4092C83.4719 84.5691 85.2282 88.9503 84.4946 92.1715C83.5495 85.3758 81.5616 87.1563 82.5659 88.5042C83.2088 89.3671 82.7802 91.9558 80.8514 90.6614C77.669 92.1839 73.1364 84.621 78.16 81.0742C78.0702 79.157 80.1894 78.8541 81.4943 79.4436C84.6613 77.0687 88.2795 80.1117 88.7808 83.5424Z" fill="#090814"/>
<path d="M74.0139 78.5839C72.7325 86.5143 65.8647 77.1255 62.6354 84.9297C61.6201 87.756 63.3621 89.7778 64.464 92.1237C64.7155 94.0516 62.224 95.0297 61.963 96.8043C61.8904 100.873 68.411 100.624 70.2339 98.057C72.1069 95.3699 69.8702 91.7648 70.9961 88.8805C72.5784 84.8762 79.0135 84.8465 79.5741 80.1877C78.4884 78.6314 75.5689 76.8489 74.0139 78.5839Z" fill="#090814"/>
<path d="M79.2047 79.3587C79.1627 79.3764 79.1208 79.3942 79.0833 79.4142H79.0811C79.0458 79.432 79.0105 79.4497 78.9752 79.4697C78.9708 79.4719 78.9686 79.4741 78.9642 79.4764C78.9178 79.432 78.8715 79.3875 78.823 79.3431C78.8104 79.4155 78.8134 79.4897 78.8318 79.5607L78.8384 79.5874C78.8826 79.634 78.9289 79.6785 78.9774 79.7251C79.0216 79.6918 79.0635 79.6563 79.1076 79.6229C79.1341 79.6007 79.1605 79.5785 79.1892 79.5563C79.1936 79.4986 79.2002 79.4319 79.2069 79.3587L79.2047 79.3587ZM80.5328 76.8891C79.5488 76.6626 79.2311 77.9573 79.1363 78.5814C78.7789 76.3161 77.2919 77.029 77.8059 78.5747C77.9698 79.0323 78.2276 79.4501 78.5627 79.8006C78.609 79.8539 78.6597 79.9072 78.7127 79.9605C78.6531 80.2714 78.9532 80.1915 79.3591 79.905C79.6588 79.6904 79.9361 79.4456 80.1864 79.1743C80.9961 78.3193 81.6271 77.1756 80.5328 76.8891ZM80.5637 78.1638C80.2601 78.5579 79.9195 78.9216 79.5466 79.2499C79.4297 79.3565 79.3105 79.4586 79.1892 79.5563C79.187 79.5763 79.187 79.5941 79.1848 79.6096C79.1763 79.6312 79.166 79.652 79.1539 79.6718C79.0304 79.8961 78.8914 79.774 78.8384 79.5874C78.834 79.5807 78.8274 79.5741 78.823 79.5675C78.6467 79.3841 78.4933 79.1798 78.3663 78.959C77.4551 77.3688 78.9223 76.2873 78.8495 79.2565C78.836 79.2838 78.8271 79.313 78.823 79.3431C78.8104 79.4155 78.8134 79.4897 78.8318 79.5607L78.8384 79.5874C78.8826 79.634 78.9289 79.6785 78.9774 79.7251C79.0216 79.6918 79.0635 79.6563 79.1076 79.6229C79.1341 79.6007 79.1605 79.5785 79.1892 79.5563C79.1936 79.4986 79.2002 79.4319 79.2069 79.3587L79.2069 79.3565C79.2642 78.7613 79.4209 77.6908 79.7099 77.3999C80.3453 76.9091 81.1682 77.4399 80.5637 78.1638ZM79.2047 79.3587C79.1627 79.3764 79.1208 79.3942 79.0833 79.4142H79.0811C79.0458 79.432 79.0105 79.4497 78.9752 79.4697C78.9708 79.4719 78.9686 79.4741 78.9642 79.4764C78.9178 79.432 78.8715 79.3875 78.823 79.3431C78.8104 79.4155 78.8134 79.4897 78.8318 79.5607L78.8384 79.5874C78.8826 79.634 78.9289 79.6785 78.9774 79.7251C79.0216 79.6918 79.0635 79.6563 79.1076 79.6229C79.1341 79.6007 79.1605 79.5785 79.1892 79.5563C79.1936 79.4986 79.2002 79.4319 79.2069 79.3587L79.2047 79.3587Z" fill="#282828"/>
<path d="M200.402 176.289L197.577 176.936L193.752 166.274L197.923 165.319L200.402 176.289Z" fill="#FFB6B6"/>
<path d="M201.172 179.233L192.484 181.223L192.459 181.112C192.034 179.232 193.204 177.361 195.071 176.933L196.384 175.358L199.619 175.892L200.378 175.718L201.172 179.233Z" fill="#282828"/>
<path d="M237.244 170.685L234.804 172.257L227.617 163.531L231.218 161.209L237.244 170.685Z" fill="#FFB6B6"/>
<path d="M238.96 173.191L231.456 178.028L231.395 177.932C230.363 176.308 230.833 174.149 232.446 173.11L233.151 171.179L236.374 170.578L237.029 170.156L238.96 173.191Z" fill="#282828"/>
<path d="M198.521 123.177L196.396 128.757L186.425 148.556L195.186 171.588L199.708 170.387L195.981 148.556L206.674 135.478L212.882 148.915L230.717 168.709L234.833 165.947L221.571 145.462L212.74 119.484L198.521 123.177Z" fill="#282828"/>
<path d="M209.247 96.8561L205.748 93.0719L199.746 92.2407L192.391 97.4234L192.465 103.16L196.101 116.677C196.101 116.677 194.716 126.389 198.584 126.292C202.452 126.194 204.56 124.253 206.135 124.648C207.711 125.044 214.408 126.725 214.832 124.964C215.256 123.202 217.512 124.464 217.413 122.797C217.314 121.131 211.306 109.119 211.306 109.119L212.358 100.664C212.589 98.8037 211.278 97.107 209.43 96.8741C209.369 96.8664 209.308 96.8604 209.247 96.8561Z" fill="#89AC46"/>
<path d="M233.393 120.699C232.235 120.946 231.097 120.202 230.851 119.036C230.825 118.912 230.81 118.785 230.806 118.658L214.718 112.283L217.78 109.758L233.031 116.406C234.221 116.446 235.153 117.45 235.113 118.647C235.079 119.649 234.368 120.497 233.393 120.699Z" fill="#FFB6B6"/>
<path d="M210.606 97.5576C210.606 97.5576 207.866 97.5364 207.529 100.677C207.193 103.817 212.939 111.781 213.827 113.093C214.105 113.503 215.3 113.971 216.81 114.419C217.488 114.62 218.23 114.817 218.98 115.004C219.415 115.112 219.609 115.837 220.039 115.936C220.466 116.035 221.13 115.509 221.532 115.597C223.443 116.014 224.953 116.292 224.953 116.292L228.524 113.842C226.722 111.164 223.276 110.069 219.371 109.414L210.606 97.5576Z" fill="#89AC46"/>
<path d="M170.281 82.9743C170.461 84.1519 171.556 84.9595 172.726 84.7781C172.851 84.7587 172.973 84.7283 173.093 84.6873L184.713 97.5744L185.974 93.7982L174.397 81.7943C173.939 80.6888 172.677 80.1669 171.578 80.6285C170.66 81.0148 170.123 81.9846 170.281 82.9743Z" fill="#FFB6B6"/>
<path d="M199.849 96.2313C199.849 96.2313 200.839 98.8038 198.041 100.233C195.243 101.661 185.809 99.0721 184.276 98.7006C183.796 98.5843 182.939 97.6249 181.988 96.3619C181.561 95.7948 181.115 95.1666 180.676 94.5259C180.421 94.1552 179.679 94.2291 179.434 93.8595C179.191 93.492 179.445 92.6809 179.221 92.3332C178.157 90.6826 177.364 89.3598 177.364 89.3598L178.375 85.1299C181.501 85.8779 183.74 88.7347 185.731 92.1789L199.849 96.2313Z" fill="#89AC46"/>
<path d="M202.866 91.2782C206.02 91.2782 208.577 88.7044 208.577 85.5295C208.577 82.3545 206.02 79.7808 202.866 79.7808C199.712 79.7808 197.156 82.3545 197.156 85.5295C197.156 88.7044 199.712 91.2782 202.866 91.2782Z" fill="#FFB6B6"/>
<path d="M209.385 82.238C208.788 81.2688 207.691 80.7307 206.564 80.8542C206.257 78.7351 204.302 77.2677 202.197 77.5767C201.414 77.6916 200.686 78.0463 200.11 78.5925C199.767 78.3494 199.323 78.3046 198.939 78.4745C198.562 78.6466 198.235 78.911 197.987 79.2434C196.709 80.8473 196.411 83.0285 197.211 84.9201C197.078 84.4313 197.564 83.9715 198.056 83.8619C198.548 83.7522 199.063 83.8559 199.562 83.7845C200.201 83.693 200.775 83.3199 201.415 83.2359C201.958 83.2004 202.502 83.2708 203.018 83.4433C203.534 83.6158 204.078 83.6892 204.621 83.6599C205.16 83.5955 205.854 85.6504 205.844 87.0977C205.842 87.372 205.899 87.7241 206.165 87.7823C206.493 87.854 206.683 87.3984 206.995 87.2743C207.294 87.188 207.607 87.3556 207.703 87.6534C207.783 87.9489 207.716 88.265 207.523 88.502C207.332 88.7336 207.104 88.9325 206.849 89.0909L206.977 89.1986C207.229 89.4662 207.634 89.5169 207.943 89.3193C208.238 89.1184 208.476 88.8448 208.636 88.5247C209.239 87.587 209.669 86.5482 209.908 85.4576C210.143 84.3565 209.956 83.2065 209.385 82.238Z" fill="#282828"/>
<path d="M144.073 80.1702C144.198 79.255 143.787 78.4419 143.155 78.3542C142.522 78.2665 141.908 78.9373 141.782 79.8526C141.657 80.7678 142.068 81.5809 142.701 81.6686C143.333 81.7563 143.948 81.0855 144.073 80.1702Z" fill="#333333"/>
<path d="M237.524 119.437H229.962C229.759 119.437 228.639 118.841 228.639 118.105V113.877C228.603 110.678 239.005 110.469 239.044 113.877V118.105C239.044 118.841 238.254 119.437 237.524 119.437Z" fill="#E6E6E6"/>
<path d="M237.915 111.011C237.548 110.879 237.159 110.822 236.77 110.845C236.874 110.811 236.97 110.754 237.05 110.68C236.979 110.677 236.909 110.668 236.839 110.651C236.763 110.637 236.691 110.605 236.629 110.557C236.568 110.508 236.534 110.43 236.541 110.351C236.556 110.255 236.645 110.175 236.636 110.078C236.626 109.966 236.498 109.912 236.429 109.824C236.344 109.687 236.358 109.509 236.465 109.389C236.53 109.313 236.61 109.25 236.699 109.206C236.548 109.167 236.39 109.169 236.24 109.212C236.401 109.087 236.472 108.878 236.421 108.68C236.337 108.434 236.136 108.246 235.885 108.18C235.638 108.117 235.382 108.096 235.128 108.118C235.344 108.052 235.311 107.711 235.146 107.556C234.981 107.401 234.745 107.336 234.59 107.171C234.434 107.007 234.447 106.655 234.671 106.628L234.644 106.547C234.197 106.379 233.7 106.608 233.533 107.057C233.519 107.096 233.508 107.135 233.499 107.175C233.458 107.433 233.534 107.718 233.406 107.944C233.242 108.233 232.845 108.266 232.516 108.234C232.193 108.15 231.851 108.197 231.562 108.365C231.323 108.565 231.291 108.922 231.49 109.163C231.6 109.296 231.765 109.371 231.938 109.367C231.721 109.368 231.506 109.397 231.296 109.452L231.498 109.53C231.543 109.544 231.584 109.568 231.62 109.599C231.655 109.632 231.666 109.684 231.647 109.728C231.614 109.787 231.531 109.785 231.465 109.775L231.027 109.709C231.114 109.738 231.161 109.833 231.132 109.92C231.103 110.008 231.009 110.056 230.921 110.026C230.899 110.019 230.878 110.007 230.861 109.991C230.906 110.043 230.942 110.103 230.968 110.168C230.994 110.234 230.986 110.308 230.948 110.367C230.859 110.45 230.728 110.466 230.621 110.407C230.586 110.394 230.55 110.378 230.514 110.363C230.514 110.376 230.515 110.388 230.517 110.401C230.541 110.571 230.635 110.722 230.776 110.819C230.577 110.842 230.394 110.939 230.262 111.091C230.034 111.376 230.02 111.779 230.228 112.079C230.007 111.981 229.765 111.94 229.524 111.962C229.276 111.992 229.091 112.205 229.092 112.456C229.132 112.764 229.511 112.876 229.817 112.914C232.222 113.212 234.654 113.212 237.059 112.913C237.386 112.891 237.706 112.809 238.003 112.672C238.304 112.528 238.511 112.24 238.552 111.907C238.539 111.506 238.288 111.153 237.915 111.011Z" fill="#6C63FF"/>
<path d="M239.7 114.574C239.646 114.335 239.433 114.166 239.189 114.167C238.957 114.173 238.749 114.34 238.521 114.304C238.331 114.273 238.182 114.107 237.992 114.132C237.817 114.156 237.723 114.327 237.593 114.42H237.259C237.128 114.317 237.064 114.108 236.884 114.049C236.612 113.961 236.394 114.27 236.109 114.324C235.944 114.343 235.777 114.311 235.631 114.232C235.487 114.154 235.332 114.101 235.17 114.075C235.026 114.054 234.881 114.117 234.799 114.239C234.808 114.152 234.695 114.066 234.581 114.061C234.453 114.066 234.328 114.104 234.22 114.173C234.111 114.241 233.985 114.278 233.856 114.277C233.572 114.252 233.432 113.918 233.146 113.914C232.786 113.91 232.642 114.426 232.286 114.382C232.101 114.359 232.001 114.19 231.836 114.117C231.66 114.063 231.473 114.061 231.297 114.112L230.455 114.271C230.208 114.339 229.947 114.342 229.699 114.278C229.518 114.212 229.343 114.07 229.157 114.124C228.994 114.171 228.915 114.354 228.743 114.364C228.634 114.35 228.528 114.314 228.433 114.257C228.25 114.192 228.047 114.243 227.918 114.388C227.823 114.774 227.808 115.176 227.873 115.569C227.87 115.653 227.877 115.737 227.892 115.819L228.74 119.232C228.839 119.755 229.096 120.134 229.626 120.134H237.86C238.39 120.134 238.844 119.755 238.944 119.232L239.791 115.819C239.793 115.81 239.794 115.801 239.795 115.793C239.816 115.384 239.784 114.975 239.7 114.574Z" fill="#CCCCCC"/>
<path opacity="0.2" d="M229.633 114.318L229.797 116.472C229.852 117.19 229.771 117.898 229.826 118.616C229.857 119.02 230.024 119.435 230.055 119.839C230.058 119.887 230.132 119.887 230.129 119.839L229.964 117.685L229.799 115.531L229.707 114.318C229.703 114.27 229.629 114.27 229.633 114.318Z" fill="black"/>
<path opacity="0.2" d="M231.063 114.403L231.127 116.526L231.191 118.648L231.227 119.84C231.228 119.888 231.302 119.888 231.301 119.84L231.237 117.717L231.173 115.594L231.137 114.403C231.135 114.355 231.061 114.355 231.063 114.403Z" fill="black"/>
<path opacity="0.2" d="M232.448 114.53L232.428 116.582L232.409 118.621L232.398 119.777C232.399 119.798 232.416 119.814 232.436 119.813C232.456 119.813 232.472 119.797 232.472 119.777L232.492 117.726L232.511 115.687L232.522 114.53C232.521 114.51 232.504 114.493 232.484 114.494C232.464 114.495 232.449 114.511 232.448 114.53Z" fill="black"/>
<path opacity="0.2" d="M233.495 114.468L233.535 116.545L233.576 118.609L233.598 119.778C233.599 119.799 233.616 119.815 233.637 119.814C233.656 119.813 233.672 119.798 233.673 119.778L233.632 117.701L233.592 115.637L233.569 114.468C233.568 114.447 233.551 114.431 233.53 114.432C233.511 114.432 233.495 114.448 233.495 114.468Z" fill="black"/>
<path opacity="0.2" d="M235.02 114.382L235.066 116.514L235.113 118.647L235.139 119.84C235.139 119.861 235.157 119.877 235.177 119.876C235.196 119.876 235.212 119.86 235.213 119.84L235.166 117.708L235.12 115.576L235.094 114.382C235.093 114.362 235.076 114.345 235.056 114.346C235.036 114.347 235.021 114.363 235.02 114.382Z" fill="black"/>
<path opacity="0.2" d="M236.286 114.447L236.448 116.595L236.609 118.738L236.7 119.945C236.704 119.993 236.778 119.993 236.774 119.945L236.612 117.797L236.451 115.654L236.36 114.447C236.357 114.399 236.283 114.399 236.286 114.447Z" fill="black"/>
<path opacity="0.2" d="M237.693 114.697L237.791 116.663C237.823 117.318 237.658 117.973 237.69 118.629L237.745 119.732C237.747 119.78 237.822 119.781 237.819 119.732C237.787 119.077 237.952 118.422 237.919 117.767L237.822 115.801L237.767 114.697C237.765 114.649 237.691 114.649 237.693 114.697Z" fill="black"/>
<path d="M233.397 109.312C233.554 109.312 233.681 109.223 233.681 109.113C233.681 109.003 233.554 108.914 233.397 108.914C233.24 108.914 233.113 109.003 233.113 109.113C233.113 109.223 233.24 109.312 233.397 109.312Z" fill="#E6E6E6"/>
<path d="M235.201 109.759C235.358 109.759 235.485 109.67 235.485 109.56C235.485 109.45 235.358 109.361 235.201 109.361C235.044 109.361 234.917 109.45 234.917 109.56C234.917 109.67 235.044 109.759 235.201 109.759Z" fill="#3F3D56"/>
<path d="M232.68 110.73C232.837 110.73 232.964 110.64 232.964 110.531C232.964 110.421 232.837 110.332 232.68 110.332C232.523 110.332 232.396 110.421 232.396 110.531C232.396 110.64 232.523 110.73 232.68 110.73Z" fill="#FF6584"/>
<path d="M235.03 110.992C235.13 110.992 235.21 110.935 235.21 110.866C235.21 110.797 235.13 110.74 235.03 110.74C234.931 110.74 234.851 110.797 234.851 110.866C234.851 110.935 234.931 110.992 235.03 110.992Z" fill="#E6E6E6"/>
<path d="M236.171 111.275C236.27 111.275 236.35 111.219 236.35 111.149C236.35 111.08 236.27 111.023 236.171 111.023C236.072 111.023 235.991 111.08 235.991 111.149C235.991 111.219 236.072 111.275 236.171 111.275Z" fill="#3F3D56"/>
<path d="M234.578 111.888C234.677 111.888 234.757 111.832 234.757 111.763C234.757 111.693 234.677 111.637 234.578 111.637C234.478 111.637 234.398 111.693 234.398 111.763C234.398 111.832 234.478 111.888 234.578 111.888Z" fill="#FF6584"/>
<path d="M236.711 111.689C236.81 111.689 236.891 111.632 236.891 111.563C236.891 111.493 236.81 111.437 236.711 111.437C236.612 111.437 236.531 111.493 236.531 111.563C236.531 111.632 236.612 111.689 236.711 111.689Z" fill="#E6E6E6"/>
<path d="M237.851 111.971C237.951 111.971 238.031 111.915 238.031 111.846C238.031 111.776 237.951 111.72 237.851 111.72C237.752 111.72 237.672 111.776 237.672 111.846C237.672 111.915 237.752 111.971 237.851 111.971Z" fill="#3F3D56"/>
<path d="M236.258 112.585C236.357 112.585 236.438 112.528 236.438 112.459C236.438 112.389 236.357 112.333 236.258 112.333C236.159 112.333 236.078 112.389 236.078 112.459C236.078 112.528 236.159 112.585 236.258 112.585Z" fill="#FF6584"/>
<path d="M232.081 111.025C232.094 110.926 232.05 110.838 231.982 110.829C231.913 110.819 231.847 110.892 231.833 110.991C231.82 111.09 231.864 111.178 231.933 111.187C232.001 111.197 232.067 111.124 232.081 111.025Z" fill="#E6E6E6"/>
<path d="M231.645 112.123C231.659 112.024 231.614 111.936 231.546 111.926C231.478 111.917 231.411 111.99 231.398 112.088C231.384 112.187 231.429 112.275 231.497 112.285C231.565 112.294 231.632 112.222 231.645 112.123Z" fill="#3F3D56"/>
<path d="M231.261 110.451C231.274 110.352 231.23 110.264 231.161 110.255C231.093 110.245 231.027 110.318 231.013 110.417C231 110.516 231.044 110.603 231.112 110.613C231.181 110.622 231.247 110.55 231.261 110.451Z" fill="#FF6584"/>
<path d="M234.033 110.428C234.047 110.329 234.002 110.241 233.934 110.232C233.866 110.222 233.799 110.295 233.786 110.394C233.772 110.493 233.817 110.58 233.885 110.59C233.953 110.599 234.02 110.527 234.033 110.428Z" fill="#E6E6E6"/>
<path d="M233.599 111.526C233.613 111.427 233.568 111.339 233.5 111.33C233.432 111.32 233.365 111.393 233.352 111.492C233.338 111.591 233.383 111.679 233.451 111.688C233.519 111.698 233.586 111.625 233.599 111.526Z" fill="#3F3D56"/>
<path d="M233.213 109.854C233.227 109.755 233.182 109.667 233.114 109.657C233.046 109.648 232.979 109.72 232.966 109.819C232.952 109.918 232.997 110.006 233.065 110.016C233.133 110.025 233.2 109.953 233.213 109.854Z" fill="#FF6584"/>
<path d="M234.563 109.213C234.577 109.114 234.532 109.026 234.464 109.016C234.395 109.007 234.329 109.079 234.316 109.178C234.302 109.277 234.346 109.365 234.415 109.375C234.483 109.384 234.55 109.312 234.563 109.213Z" fill="#3F3D56"/>
<path d="M234.177 107.54C234.191 107.441 234.146 107.353 234.078 107.344C234.009 107.334 233.943 107.407 233.93 107.506C233.916 107.605 233.96 107.693 234.029 107.702C234.097 107.712 234.164 107.639 234.177 107.54Z" fill="#FF6584"/>
<path d="M287 181.601C286.733 182.397 0.288079 181.885 0 181.091C0.266651 180.293 286.712 180.805 287 181.601Z" fill="#CCCCCC"/>
<path d="M98.6029 31.8198H86.6243C85.7246 31.8198 84.9952 32.554 84.9952 33.4597V33.4597C84.9952 34.3654 85.7246 35.0996 86.6243 35.0996H98.6029C99.5026 35.0996 100.232 34.3654 100.232 33.4597C100.232 32.554 99.5026 31.8198 98.6029 31.8198Z" fill="#89AC46"/>
<path d="M106.341 38.3794H78.8862C77.9865 38.3794 77.2571 39.1136 77.2571 40.0193V40.0193C77.2571 40.925 77.9865 41.6592 78.8862 41.6592H106.341C107.241 41.6592 107.97 40.925 107.97 40.0193C107.97 39.1136 107.241 38.3794 106.341 38.3794Z" fill="#E6E6E6"/>
<path d="M106.341 44.939H78.8862C77.9865 44.939 77.2571 45.6732 77.2571 46.5789V46.5789C77.2571 47.4846 77.9865 48.2188 78.8862 48.2188H106.341C107.241 48.2188 107.97 47.4846 107.97 46.5789C107.97 45.6732 107.241 44.939 106.341 44.939Z" fill="#E6E6E6"/>
<path d="M104.648 80.1511H103.952V53.8651H54.3114V53.1646H104.648V80.1511Z" fill="#E6E6E6"/>
<path d="M46.5552 61.2086C51.894 61.2086 56.2219 56.852 56.2219 51.4778C56.2219 46.1037 51.894 41.7471 46.5552 41.7471C41.2165 41.7471 36.8885 46.1037 36.8885 51.4778C36.8885 56.852 41.2165 61.2086 46.5552 61.2086Z" fill="#333333"/>
<path d="M45.2365 56.5422C44.898 56.5422 44.5794 56.3817 44.3764 56.1091L41.7391 52.5695C41.3828 52.0912 41.4792 51.4128 41.9542 51.0541C42.4293 50.6955 43.1033 50.7924 43.4596 51.2707L45.185 53.5862L49.6163 46.8952C49.9457 46.3978 50.6133 46.2634 51.1075 46.595C51.6016 46.9266 51.7351 47.5986 51.4057 48.0961L46.1313 56.0602C45.9377 56.3524 45.6153 56.532 45.2664 56.5418C45.2564 56.542 45.2465 56.5422 45.2365 56.5422Z" fill="white"/>
<path d="M170.218 78.7654H169.522V51.7788H219.858V52.4794H170.218V78.7654Z" fill="#E6E6E6"/>
<path d="M227.577 59.8228C232.916 59.8228 237.244 55.4662 237.244 50.0921C237.244 44.7179 232.916 40.3613 227.577 40.3613C222.239 40.3613 217.911 44.7179 217.911 50.0921C217.911 55.4662 222.239 59.8228 227.577 59.8228Z" fill="#333333"/>
<path d="M226.259 55.1564C225.92 55.1564 225.601 54.996 225.398 54.7234L222.761 51.1837C222.404 50.7064 222.498 50.0277 222.973 49.6679C223.447 49.308 224.121 49.4033 224.478 49.8806L224.482 49.8849L226.207 52.2005L230.638 45.5095C230.968 45.0121 231.635 44.8776 232.13 45.2093C232.624 45.5409 232.757 46.2129 232.428 46.7103L227.153 54.6744C226.96 54.9667 226.637 55.1462 226.289 55.1561C226.279 55.1563 226.269 55.1564 226.259 55.1564Z" fill="white"/>
<path d="M107.414 83.2572H99.8522C99.6489 83.2572 98.5295 82.6611 98.5295 81.9257V77.6972C98.4933 74.4988 108.895 74.2894 108.934 77.6972V81.9257C108.934 82.6611 108.145 83.2572 107.414 83.2572Z" fill="#E6E6E6"/>
<path d="M107.805 74.8309C107.439 74.6988 107.049 74.6426 106.66 74.6657C106.764 74.6311 106.86 74.5747 106.941 74.5003C106.869 74.4974 106.799 74.4878 106.729 74.4717C106.653 74.4572 106.581 74.4249 106.52 74.3772C106.458 74.328 106.425 74.2508 106.432 74.1717C106.446 74.075 106.536 73.9954 106.526 73.8981C106.516 73.7865 106.388 73.7323 106.32 73.6439C106.234 73.5071 106.249 73.3297 106.356 73.2091C106.421 73.1329 106.5 73.0707 106.59 73.0261C106.439 72.987 106.28 72.9893 106.13 73.0328C106.291 72.9077 106.362 72.6985 106.312 72.5006C106.227 72.2542 106.026 72.0665 105.775 72.0002C105.528 71.9375 105.272 71.9167 105.018 71.9386C105.234 71.8719 105.202 71.5315 105.037 71.3763C104.872 71.2212 104.636 71.1564 104.48 70.9916C104.325 70.8269 104.337 70.4752 104.561 70.4479L104.534 70.3676C104.087 70.1998 103.59 70.4281 103.424 70.8774C103.409 70.9159 103.398 70.9553 103.389 70.9954C103.348 71.253 103.424 71.5379 103.296 71.7645C103.132 72.0534 102.735 72.0861 102.406 72.0541C102.083 71.9707 101.741 72.0177 101.452 72.1852C101.213 72.3854 101.181 72.7427 101.38 72.9831C101.49 73.1166 101.655 73.1917 101.828 73.1869C101.611 73.1884 101.396 73.217 101.187 73.2721L101.388 73.3508C101.433 73.3647 101.475 73.3881 101.51 73.4194C101.545 73.4522 101.556 73.504 101.537 73.5484C101.505 73.6072 101.421 73.6052 101.355 73.5952L100.917 73.5288C101.004 73.5581 101.051 73.653 101.022 73.7408C100.993 73.8286 100.899 73.876 100.812 73.8467C100.789 73.8392 100.769 73.827 100.751 73.8109C100.796 73.8638 100.833 73.9237 100.859 73.9883C100.884 74.0542 100.877 74.1285 100.838 74.1877C100.749 74.2699 100.618 74.286 100.512 74.2277C100.476 74.2139 100.44 74.1978 100.404 74.1831C100.405 74.1959 100.406 74.2086 100.407 74.2214C100.431 74.391 100.525 74.5425 100.666 74.6391C100.467 74.6624 100.284 74.7594 100.153 74.9111C99.9243 75.1964 99.9106 75.5991 100.119 75.8995C99.8976 75.801 99.6552 75.7606 99.4143 75.782C99.1667 75.8127 98.9812 76.0252 98.9827 76.2763C99.0226 76.5839 99.401 76.6964 99.7068 76.7345C102.112 77.0325 104.544 77.0322 106.949 76.7337C107.276 76.7114 107.596 76.6295 107.893 76.4919C108.194 76.3485 108.401 76.06 108.442 75.7273C108.429 75.3265 108.178 74.9728 107.805 74.8309Z" fill="#6C63FF"/>
<path d="M109.591 78.3948C109.536 78.1554 109.323 77.9862 109.079 77.9874C108.847 77.9935 108.639 78.1606 108.411 78.124C108.221 78.0937 108.073 77.9271 107.882 77.9525C107.707 77.9758 107.614 78.1476 107.483 78.24H107.149C107.019 78.1368 106.955 77.9278 106.774 77.8692C106.502 77.781 106.284 78.0899 105.999 78.1445C105.834 78.1629 105.668 78.1309 105.521 78.0526C105.378 77.9742 105.222 77.9211 105.061 77.8957C104.916 77.8738 104.771 77.9377 104.689 78.0598C104.698 77.9724 104.585 77.8867 104.471 77.8812C104.343 77.8859 104.218 77.9245 104.11 77.9931C104.001 78.0617 103.875 78.0979 103.747 78.0977C103.462 78.0727 103.323 77.738 103.036 77.7344C102.676 77.7298 102.532 78.2462 102.176 78.2022C101.991 78.1793 101.891 78.0101 101.726 77.9377C101.551 77.8835 101.363 77.8816 101.187 77.9324L100.345 78.0911C100.098 78.1597 99.8376 78.1623 99.5894 78.0986C99.4087 78.0328 99.2332 77.8903 99.0469 77.9445C98.8846 77.9917 98.8054 78.1747 98.6336 78.1842C98.5238 78.1703 98.418 78.1338 98.3228 78.0771C98.1406 78.0122 97.9376 78.0638 97.8078 78.2079C97.7135 78.5946 97.6983 78.9966 97.7629 79.3895C97.7604 79.4732 97.767 79.557 97.7826 79.6393L98.6298 83.0521C98.7294 83.5756 98.9865 83.954 99.5159 83.954H107.75C108.28 83.954 108.735 83.5756 108.834 83.0521L109.681 79.6393C109.683 79.6305 109.684 79.6217 109.686 79.6129C109.706 79.2044 109.674 78.7951 109.591 78.3948Z" fill="#CCCCCC"/>
<path opacity="0.2" d="M99.5227 78.1379L99.6874 80.2921C99.7422 81.0102 99.661 81.7183 99.7159 82.4364C99.7468 82.8408 99.9138 83.2552 99.9447 83.6596C99.9484 83.7072 100.023 83.7076 100.019 83.6596L99.8542 81.5054L99.6896 79.3512L99.5969 78.1379C99.5932 78.0903 99.5191 78.0899 99.5227 78.1379Z" fill="black"/>
<path opacity="0.2" d="M100.953 78.223L101.017 80.3458L101.081 82.4686L101.117 83.6604C101.119 83.7083 101.193 83.7085 101.191 83.6604L101.127 81.5376L101.063 79.4148L101.027 78.223C101.025 78.1751 100.951 78.1749 100.953 78.223Z" fill="black"/>
<path opacity="0.2" d="M102.338 78.3505L102.319 80.4021L102.299 82.4412L102.288 83.5975C102.289 83.6181 102.306 83.6342 102.327 83.6335C102.346 83.6328 102.362 83.6171 102.362 83.5975L102.382 81.5459L102.401 79.5068L102.412 78.3505C102.412 78.3299 102.395 78.3138 102.374 78.3145C102.355 78.3151 102.339 78.3309 102.338 78.3505Z" fill="black"/>
<path opacity="0.2" d="M103.385 78.2875L103.425 80.3644L103.466 82.4288L103.489 83.5979C103.489 83.6185 103.506 83.6346 103.527 83.6339C103.546 83.6332 103.562 83.6175 103.563 83.5979L103.522 81.521L103.482 79.4565L103.459 78.2875C103.458 78.2669 103.441 78.2508 103.421 78.2515C103.401 78.2522 103.385 78.2679 103.385 78.2875Z" fill="black"/>
<path opacity="0.2" d="M104.91 78.2021L104.956 80.3343L105.003 82.4666L105.029 83.6602C105.029 83.6808 105.047 83.6969 105.067 83.6962C105.087 83.6955 105.102 83.6798 105.103 83.6602L105.057 81.5279L105.01 79.3956L104.984 78.2021C104.983 78.1815 104.966 78.1653 104.946 78.166C104.926 78.1667 104.911 78.1825 104.91 78.2021Z" fill="black"/>
<path opacity="0.2" d="M106.176 78.2668L106.338 80.4152L106.499 82.5575L106.59 83.7648C106.594 83.8124 106.668 83.8128 106.664 83.7648L106.503 81.6164L106.341 79.4741L106.25 78.2668C106.247 78.2192 106.173 78.2188 106.176 78.2668Z" fill="black"/>
<path opacity="0.2" d="M107.583 78.5174L107.681 80.4832C107.713 81.1385 107.548 81.7937 107.581 82.449L107.635 83.5528C107.638 83.6006 107.712 83.6009 107.709 83.5528C107.677 82.8975 107.842 82.2423 107.81 81.587L107.712 79.6212L107.657 78.5174C107.655 78.4696 107.581 78.4693 107.583 78.5174Z" fill="black"/>
<path d="M103.287 73.1315C103.444 73.1315 103.571 73.0424 103.571 72.9324C103.571 72.8225 103.444 72.7334 103.287 72.7334C103.13 72.7334 103.003 72.8225 103.003 72.9324C103.003 73.0424 103.13 73.1315 103.287 73.1315Z" fill="#E6E6E6"/>
<path d="M105.091 73.5792C105.248 73.5792 105.376 73.4901 105.376 73.3802C105.376 73.2703 105.248 73.1812 105.091 73.1812C104.934 73.1812 104.807 73.2703 104.807 73.3802C104.807 73.4901 104.934 73.5792 105.091 73.5792Z" fill="#3F3D56"/>
<path d="M102.57 74.5494C102.727 74.5494 102.855 74.4603 102.855 74.3504C102.855 74.2405 102.727 74.1514 102.57 74.1514C102.414 74.1514 102.286 74.2405 102.286 74.3504C102.286 74.4603 102.414 74.5494 102.57 74.5494Z" fill="#FF6584"/>
<path d="M104.921 74.8121C105.02 74.8121 105.1 74.7558 105.1 74.6863C105.1 74.6169 105.02 74.5605 104.921 74.5605C104.822 74.5605 104.741 74.6169 104.741 74.6863C104.741 74.7558 104.822 74.8121 104.921 74.8121Z" fill="#E6E6E6"/>
<path d="M106.061 75.0948C106.16 75.0948 106.241 75.0385 106.241 74.969C106.241 74.8996 106.16 74.8433 106.061 74.8433C105.962 74.8433 105.881 74.8996 105.881 74.969C105.881 75.0385 105.962 75.0948 106.061 75.0948Z" fill="#3F3D56"/>
<path d="M104.468 75.7081C104.567 75.7081 104.647 75.6518 104.647 75.5823C104.647 75.5129 104.567 75.4565 104.468 75.4565C104.369 75.4565 104.288 75.5129 104.288 75.5823C104.288 75.6518 104.369 75.7081 104.468 75.7081Z" fill="#FF6584"/>
<path d="M106.601 75.5084C106.7 75.5084 106.781 75.4521 106.781 75.3826C106.781 75.3132 106.7 75.2568 106.601 75.2568C106.502 75.2568 106.422 75.3132 106.422 75.3826C106.422 75.4521 106.502 75.5084 106.601 75.5084Z" fill="#E6E6E6"/>
<path d="M107.742 75.7916C107.841 75.7916 107.921 75.7353 107.921 75.6658C107.921 75.5964 107.841 75.54 107.742 75.54C107.642 75.54 107.562 75.5964 107.562 75.6658C107.562 75.7353 107.642 75.7916 107.742 75.7916Z" fill="#3F3D56"/>
<path d="M106.148 76.4049C106.248 76.4049 106.328 76.3486 106.328 76.2791C106.328 76.2096 106.248 76.1533 106.148 76.1533C106.049 76.1533 105.969 76.2096 105.969 76.2791C105.969 76.3486 106.049 76.4049 106.148 76.4049Z" fill="#FF6584"/>
<path d="M101.971 74.845C101.985 74.746 101.94 74.6582 101.872 74.6487C101.803 74.6392 101.737 74.7117 101.723 74.8106C101.71 74.9095 101.754 74.9974 101.823 75.0069C101.891 75.0164 101.958 74.9439 101.971 74.845Z" fill="#E6E6E6"/>
<path d="M101.537 75.9436C101.551 75.8447 101.506 75.7568 101.438 75.7473C101.369 75.7378 101.303 75.8103 101.289 75.9093C101.276 76.0082 101.32 76.0961 101.389 76.1055C101.457 76.115 101.523 76.0425 101.537 75.9436Z" fill="#3F3D56"/>
<path d="M101.151 74.2712C101.165 74.1723 101.12 74.0844 101.052 74.0749C100.983 74.0655 100.917 74.138 100.903 74.2369C100.89 74.3358 100.934 74.4237 101.003 74.4332C101.071 74.4427 101.137 74.3702 101.151 74.2712Z" fill="#FF6584"/>
<path d="M103.924 74.2478C103.937 74.1489 103.893 74.061 103.824 74.0515C103.756 74.042 103.69 74.1145 103.676 74.2135C103.662 74.3124 103.707 74.4003 103.775 74.4097C103.844 74.4192 103.91 74.3467 103.924 74.2478Z" fill="#E6E6E6"/>
<path d="M103.489 75.3464C103.503 75.2475 103.458 75.1596 103.39 75.1501C103.322 75.1407 103.255 75.2132 103.242 75.3121C103.228 75.411 103.273 75.4989 103.341 75.5084C103.409 75.5179 103.476 75.4454 103.489 75.3464Z" fill="#3F3D56"/>
<path d="M103.103 73.6741C103.117 73.5751 103.072 73.4873 103.004 73.4778C102.936 73.4683 102.869 73.5408 102.856 73.6397C102.842 73.7387 102.887 73.8265 102.955 73.836C103.023 73.8455 103.09 73.773 103.103 73.6741Z" fill="#FF6584"/>
<path d="M104.453 73.0325C104.466 72.9335 104.422 72.8456 104.353 72.8362C104.285 72.8267 104.218 72.8992 104.205 72.9981C104.191 73.097 104.236 73.1849 104.304 73.1944C104.373 73.2039 104.439 73.1314 104.453 73.0325Z" fill="#3F3D56"/>
<path d="M104.067 71.3601C104.081 71.2612 104.036 71.1733 103.968 71.1638C103.9 71.1543 103.833 71.2268 103.82 71.3258C103.806 71.4247 103.851 71.5126 103.919 71.5221C103.987 71.5315 104.054 71.459 104.067 71.3601Z" fill="#FF6584"/>
<path d="M174.021 81.7801H166.459C166.256 81.7801 165.136 81.184 165.136 80.4487V76.2201C165.1 73.0217 175.502 72.8124 175.541 76.2201V80.4487C175.541 81.184 174.751 81.7801 174.021 81.7801Z" fill="#E6E6E6"/>
<path d="M174.412 73.3539C174.045 73.2218 173.656 73.1656 173.267 73.1887C173.371 73.154 173.466 73.0977 173.547 73.0232C173.476 73.0204 173.406 73.0108 173.336 72.9946C173.26 72.9802 173.188 72.9478 173.126 72.9001C173.064 72.851 173.031 72.7737 173.038 72.6947C173.052 72.5979 173.142 72.5183 173.133 72.421C173.122 72.3095 172.995 72.2552 172.926 72.1668C172.841 72.03 172.855 71.8527 172.962 71.7321C173.027 71.6559 173.107 71.5936 173.196 71.549C173.045 71.51 172.887 71.5123 172.737 71.5557C172.897 71.4306 172.969 71.2215 172.918 71.0235C172.834 70.7771 172.632 70.5895 172.382 70.5231C172.135 70.4604 171.879 70.4396 171.625 70.4616C171.841 70.3948 171.808 70.0544 171.643 69.8993C171.478 69.7441 171.242 69.6793 171.087 69.5146C170.931 69.3498 170.944 68.9982 171.168 68.9708L171.14 68.8906C170.694 68.7228 170.197 68.951 170.03 69.4004C170.016 69.4388 170.004 69.4783 169.996 69.5184C169.955 69.7759 170.031 70.0608 169.903 70.2874C169.739 70.5763 169.342 70.609 169.013 70.577C168.69 70.4936 168.348 70.5407 168.059 70.7081C167.82 70.9084 167.788 71.2657 167.986 71.5061C168.097 71.6395 168.262 71.7146 168.434 71.7099C168.218 71.7114 168.003 71.74 167.793 71.795L167.995 71.8737C168.04 71.8877 168.081 71.9111 168.116 71.9424C168.152 71.9752 168.163 72.0269 168.144 72.0713C168.111 72.1302 168.028 72.1282 167.962 72.1182L167.524 72.0518C167.611 72.0811 167.658 72.176 167.629 72.2637C167.6 72.3515 167.505 72.3989 167.418 72.3696C167.396 72.3621 167.375 72.3499 167.358 72.3338C167.403 72.3867 167.439 72.4467 167.465 72.5113C167.491 72.5771 167.483 72.6514 167.445 72.7106C167.356 72.7929 167.225 72.809 167.118 72.7506C167.083 72.7368 167.047 72.7208 167.011 72.706C167.011 72.7188 167.012 72.7316 167.014 72.7444C167.038 72.914 167.132 73.0655 167.272 73.162C167.074 73.1853 166.891 73.2823 166.759 73.4341C166.531 73.7194 166.517 74.122 166.725 74.4224C166.504 74.324 166.262 74.2836 166.021 74.3049C165.773 74.3356 165.588 74.5481 165.589 74.7993C165.629 75.1069 166.008 75.2194 166.314 75.2575C168.719 75.5555 171.151 75.5552 173.556 75.2566C173.882 75.2344 174.202 75.1525 174.5 75.0148C174.801 74.8714 175.008 74.5829 175.049 74.2502C175.036 73.8494 174.785 73.4958 174.412 73.3539Z" fill="#6C63FF"/>
<path d="M176.197 76.9172C176.143 76.6779 175.93 76.5087 175.686 76.5098C175.454 76.516 175.246 76.6831 175.018 76.6465C174.828 76.6161 174.679 76.4496 174.489 76.475C174.314 76.4983 174.22 76.67 174.09 76.7624H173.756C173.625 76.6593 173.561 76.4503 173.381 76.3917C173.109 76.3034 172.891 76.6123 172.606 76.667C172.441 76.6854 172.274 76.6534 172.128 76.5751C171.984 76.4967 171.829 76.4436 171.667 76.4182C171.523 76.3963 171.378 76.4601 171.296 76.5823C171.305 76.4948 171.192 76.4091 171.078 76.4036C170.95 76.4083 170.825 76.447 170.717 76.5156C170.608 76.5842 170.482 76.6204 170.353 76.6201C170.069 76.5952 169.929 76.2605 169.643 76.2569C169.283 76.2523 169.139 76.7687 168.783 76.7247C168.598 76.7018 168.498 76.5325 168.333 76.4601C168.157 76.4059 167.97 76.4041 167.794 76.4548L166.952 76.6136C166.705 76.6822 166.444 76.6848 166.196 76.621C166.015 76.5552 165.84 76.4127 165.654 76.467C165.491 76.5142 165.412 76.6972 165.24 76.7067C165.131 76.6927 165.025 76.6563 164.93 76.5996C164.747 76.5347 164.544 76.5862 164.415 76.7304C164.32 77.1171 164.305 77.5191 164.37 77.9119C164.367 77.9957 164.374 78.0795 164.389 78.1618L165.236 81.5746C165.336 82.098 165.593 82.4765 166.123 82.4765H174.357C174.886 82.4765 175.341 82.098 175.441 81.5746L176.288 78.1618C176.29 78.1529 176.291 78.1441 176.292 78.1353C176.312 77.7269 176.281 77.3175 176.197 76.9172Z" fill="#CCCCCC"/>
<path opacity="0.2" d="M166.13 76.6608L166.294 78.8151C166.349 79.5331 166.268 80.2412 166.323 80.9593C166.354 81.3637 166.521 81.7781 166.552 82.1826C166.555 82.2302 166.629 82.2305 166.626 82.1826L166.461 80.0283L166.296 77.8741L166.204 76.6608C166.2 76.6133 166.126 76.6129 166.13 76.6608Z" fill="black"/>
<path opacity="0.2" d="M167.559 76.746L167.624 78.8688L167.688 80.9916L167.724 82.1833C167.725 82.2313 167.799 82.2315 167.798 82.1833L167.734 80.0605L167.67 77.9377L167.634 76.746C167.632 76.6981 167.558 76.6979 167.559 76.746Z" fill="black"/>
<path opacity="0.2" d="M168.945 76.8735L168.925 78.925L168.906 80.9641L168.895 82.1204C168.896 82.141 168.913 82.1572 168.933 82.1565C168.953 82.1558 168.968 82.14 168.969 82.1204L168.989 80.0689L169.008 78.0298L169.019 76.8735C169.018 76.8528 169.001 76.8367 168.981 76.8374C168.961 76.8381 168.946 76.8538 168.945 76.8735Z" fill="black"/>
<path opacity="0.2" d="M169.992 76.8105L170.032 78.8873L170.072 80.9518L170.095 82.1208C170.096 82.1414 170.113 82.1575 170.134 82.1568C170.153 82.1562 170.169 82.1404 170.169 82.1208L170.129 80.0439L170.089 77.9795L170.066 76.8105C170.065 76.7899 170.048 76.7737 170.027 76.7744C170.008 76.7751 169.992 76.7909 169.992 76.8105Z" fill="black"/>
<path opacity="0.2" d="M171.517 76.7254L171.563 78.8577L171.61 80.9899L171.636 82.1835C171.636 82.2041 171.653 82.2203 171.674 82.2196C171.693 82.2189 171.709 82.2031 171.71 82.1835L171.663 80.0513L171.617 77.919L171.591 76.7254C171.59 76.7048 171.573 76.6887 171.553 76.6895C171.533 76.6902 171.518 76.7059 171.517 76.7254Z" fill="black"/>
<path opacity="0.2" d="M172.783 76.7897L172.945 78.9382L173.106 81.0804L173.197 82.2877C173.2 82.3353 173.275 82.3357 173.271 82.2877L173.109 80.1393L172.948 77.9971L172.857 76.7897C172.854 76.7422 172.779 76.7418 172.783 76.7897Z" fill="black"/>
<path opacity="0.2" d="M174.19 77.0404L174.287 79.0061C174.32 79.6614 174.155 80.3167 174.187 80.9719L174.242 82.0757C174.244 82.1235 174.319 82.1238 174.316 82.0757C174.284 81.4205 174.449 80.7652 174.416 80.11L174.319 78.1442L174.264 77.0404C174.262 76.9925 174.188 76.9923 174.19 77.0404Z" fill="black"/>
<path d="M169.894 71.6544C170.051 71.6544 170.178 71.5653 170.178 71.4554C170.178 71.3455 170.051 71.2563 169.894 71.2563C169.737 71.2563 169.61 71.3455 169.61 71.4554C169.61 71.5653 169.737 71.6544 169.894 71.6544Z" fill="#E6E6E6"/>
<path d="M171.698 72.1022C171.855 72.1022 171.982 72.0131 171.982 71.9031C171.982 71.7932 171.855 71.7041 171.698 71.7041C171.541 71.7041 171.414 71.7932 171.414 71.9031C171.414 72.0131 171.541 72.1022 171.698 72.1022Z" fill="#3F3D56"/>
<path d="M169.177 73.0724C169.334 73.0724 169.461 72.9833 169.461 72.8733C169.461 72.7634 169.334 72.6743 169.177 72.6743C169.02 72.6743 168.893 72.7634 168.893 72.8733C168.893 72.9833 169.02 73.0724 169.177 73.0724Z" fill="#FF6584"/>
<path d="M171.527 73.3351C171.627 73.3351 171.707 73.2787 171.707 73.2093C171.707 73.1398 171.627 73.0835 171.527 73.0835C171.428 73.0835 171.348 73.1398 171.348 73.2093C171.348 73.2787 171.428 73.3351 171.527 73.3351Z" fill="#E6E6E6"/>
<path d="M172.668 73.6178C172.767 73.6178 172.847 73.5615 172.847 73.492C172.847 73.4225 172.767 73.3662 172.668 73.3662C172.568 73.3662 172.488 73.4225 172.488 73.492C172.488 73.5615 172.568 73.6178 172.668 73.6178Z" fill="#3F3D56"/>
<path d="M171.075 74.2311C171.174 74.2311 171.254 74.1747 171.254 74.1053C171.254 74.0358 171.174 73.9795 171.075 73.9795C170.975 73.9795 170.895 74.0358 170.895 74.1053C170.895 74.1747 170.975 74.2311 171.075 74.2311Z" fill="#FF6584"/>
<path d="M173.208 74.0314C173.307 74.0314 173.388 73.975 173.388 73.9056C173.388 73.8361 173.307 73.7798 173.208 73.7798C173.109 73.7798 173.028 73.8361 173.028 73.9056C173.028 73.975 173.109 74.0314 173.208 74.0314Z" fill="#E6E6E6"/>
<path d="M174.348 74.3146C174.448 74.3146 174.528 74.2582 174.528 74.1888C174.528 74.1193 174.448 74.063 174.348 74.063C174.249 74.063 174.169 74.1193 174.169 74.1888C174.169 74.2582 174.249 74.3146 174.348 74.3146Z" fill="#3F3D56"/>
<path d="M172.755 74.9278C172.854 74.9278 172.935 74.8715 172.935 74.8021C172.935 74.7326 172.854 74.6763 172.755 74.6763C172.656 74.6763 172.575 74.7326 172.575 74.8021C172.575 74.8715 172.656 74.9278 172.755 74.9278Z" fill="#FF6584"/>
<path d="M168.578 73.3679C168.591 73.269 168.547 73.1811 168.479 73.1716C168.41 73.1621 168.344 73.2346 168.33 73.3336C168.317 73.4325 168.361 73.5204 168.43 73.5299C168.498 73.5393 168.564 73.4668 168.578 73.3679Z" fill="#E6E6E6"/>
<path d="M168.144 74.4665C168.157 74.3676 168.113 74.2797 168.044 74.2702C167.976 74.2607 167.91 74.3333 167.896 74.4322C167.883 74.5311 167.927 74.619 167.995 74.6285C168.064 74.638 168.13 74.5655 168.144 74.4665Z" fill="#3F3D56"/>
<path d="M167.758 72.7942C167.771 72.6952 167.727 72.6073 167.658 72.5979C167.59 72.5884 167.524 72.6609 167.51 72.7598C167.497 72.8588 167.541 72.9467 167.609 72.9561C167.678 72.9656 167.744 72.8931 167.758 72.7942Z" fill="#FF6584"/>
<path d="M170.53 72.7707C170.544 72.6718 170.499 72.5839 170.431 72.5744C170.363 72.5649 170.296 72.6375 170.283 72.7364C170.269 72.8353 170.314 72.9232 170.382 72.9327C170.45 72.9422 170.517 72.8697 170.53 72.7707Z" fill="#E6E6E6"/>
<path d="M170.096 73.8694C170.11 73.7704 170.065 73.6825 169.997 73.6731C169.928 73.6636 169.862 73.7361 169.848 73.835C169.835 73.934 169.879 74.0218 169.948 74.0313C170.016 74.0408 170.083 73.9683 170.096 73.8694Z" fill="#3F3D56"/>
<path d="M169.71 72.197C169.724 72.0981 169.679 72.0102 169.611 72.0007C169.542 71.9912 169.476 72.0637 169.463 72.1627C169.449 72.2616 169.493 72.3495 169.562 72.359C169.63 72.3684 169.697 72.2959 169.71 72.197Z" fill="#FF6584"/>
<path d="M171.059 71.5554C171.072 71.4565 171.028 71.3686 170.96 71.3591C170.891 71.3496 170.825 71.4221 170.811 71.5211C170.798 71.62 170.842 71.7079 170.911 71.7174C170.979 71.7268 171.045 71.6543 171.059 71.5554Z" fill="#3F3D56"/>
<path d="M170.674 69.883C170.688 69.7841 170.643 69.6962 170.575 69.6867C170.506 69.6773 170.44 69.7498 170.426 69.8487C170.413 69.9476 170.457 70.0355 170.526 70.045C170.594 70.0545 170.661 69.982 170.674 69.883Z" fill="#FF6584"/>
</g>
<defs>
<clipPath id="clip0_109_404">
<rect width="287" height="182" fill="white"/>
</clipPath>
</defs>
</svg>
