<svg width="180" height="180" viewBox="0 0 180 180" fill="none" xmlns="http://www.w3.org/2000/svg">
<path d="M166.932 25.1104H128.498V65.1747H166.932V25.1104Z" fill="#E0E0E0"/>
<path d="M164.329 25.1104H125.896V65.1747H164.329V25.1104Z" fill="#FAFAFA"/>
<path d="M164.34 65.1853H125.881V25.0957H164.34V65.1853ZM125.906 65.1601H164.315V25.1209H125.906V65.1601Z" fill="#E0E0E0"/>
<path d="M159.163 30.4961H131.062V59.7893H159.163V30.4961Z" fill="#FAFAFA"/>
<path d="M131.062 59.9795C130.863 60.2753 130.63 60.5461 130.367 60.7859C129.92 61.2611 129.287 61.9019 128.567 62.5859C127.847 63.2699 127.21 63.9035 126.731 64.3427C126.489 64.5997 126.217 64.8269 125.921 65.0195C126.119 64.7267 126.349 64.4573 126.608 64.2167C127.058 63.7451 127.688 63.1007 128.408 62.4167C129.128 61.7327 129.769 61.0991 130.248 60.6563C130.492 60.3995 130.765 60.1723 131.062 59.9795Z" fill="#E0E0E0"/>
<path d="M159.163 59.9072C159.457 60.1073 159.726 60.3404 159.966 60.602C160.441 61.052 161.082 61.682 161.766 62.402C162.45 63.122 163.084 63.7592 163.526 64.238C163.783 64.4805 164.009 64.7538 164.2 65.0516C163.907 64.8515 163.638 64.6197 163.397 64.3604C162.925 63.9104 162.281 63.2804 161.597 62.5604C160.913 61.8404 160.279 61.1996 159.84 60.7208C159.579 60.4807 159.352 60.2071 159.163 59.9072Z" fill="#E0E0E0"/>
<path d="M159.084 30.5712C159.284 30.2771 159.518 30.0066 159.779 29.7649C160.225 29.2933 160.859 28.6525 161.579 27.9649C162.299 27.2773 162.936 26.6509 163.415 26.2081C163.659 25.9521 163.932 25.725 164.228 25.5312C164.03 25.8252 163.798 26.0946 163.537 26.3341C163.087 26.8093 162.457 27.4501 161.737 28.1341C161.017 28.8181 160.376 29.4553 159.898 29.8945C159.657 30.154 159.383 30.3814 159.084 30.5712Z" fill="#E0E0E0"/>
<path d="M130.986 30.6431C130.691 30.4455 130.42 30.2135 130.18 29.9519C129.704 29.5019 129.064 28.8719 128.38 28.1519C127.696 27.4319 127.062 26.7983 126.619 26.3195C126.363 26.076 126.137 25.8029 125.946 25.5059C126.239 25.7046 126.509 25.9365 126.749 26.1971C127.22 26.6435 127.865 27.2771 128.549 27.9971C129.233 28.7171 129.866 29.3579 130.309 29.8367C130.565 30.0785 130.792 30.3491 130.986 30.6431Z" fill="#E0E0E0"/>
<path d="M159.084 59.7854C159.084 59.7854 159.084 59.735 159.084 59.645C159.084 59.555 159.084 59.411 159.084 59.2346C159.084 58.8746 159.084 58.3382 159.084 57.6542C159.084 56.2646 159.084 54.2486 159.055 51.6854C159.055 46.5554 159.023 39.2438 159.001 30.4958L159.109 30.6038H131.09L131.213 30.4814C131.213 41.231 131.213 51.2894 131.213 59.771L131.105 59.6666L151.394 59.7206L157.093 59.7494H158.602H158.99H159.127C159.086 59.7529 159.045 59.7529 159.005 59.7494H158.627H157.14L151.463 59.7782L131.105 59.8322H130.997V59.7242C130.997 51.2426 130.997 41.1842 130.979 30.4346V30.3086H131.108H159.127H159.235V30.4166C159.214 39.1934 159.196 46.5266 159.181 51.6746C159.181 54.227 159.16 56.2394 159.152 57.6182C159.152 58.295 159.152 58.817 159.152 59.1806C159.152 59.3498 159.152 59.4794 159.152 59.5766C159.14 59.6491 159.117 59.7194 159.084 59.7854Z" fill="#E0E0E0"/>
<path d="M145.933 41.9869C145.427 41.2371 144.729 40.6374 143.911 40.2506C143.093 39.8638 142.187 39.7042 141.286 39.7885C140.385 39.8729 139.524 40.198 138.792 40.7298C138.061 41.2617 137.486 41.9806 137.128 42.8113C136.848 43.519 136.71 44.275 136.722 45.036C136.735 45.7971 136.897 46.5482 137.2 47.2465C137.818 48.6426 138.825 49.8311 140.101 50.6701C143.388 52.9093 148.151 52.8085 151.207 50.2633C152.384 49.3474 153.184 48.0321 153.457 46.5661C153.582 45.7149 153.467 44.8456 153.123 44.057C152.779 43.2684 152.221 42.5919 151.512 42.1045C150.803 41.6171 149.971 41.3383 149.112 41.2997C148.252 41.2611 147.399 41.4642 146.65 41.8861" fill="#E0E0E0"/>
<path d="M145.948 41.9832C145.839 41.5847 145.593 41.2374 145.253 41.0029C144.913 40.7683 144.501 40.6616 144.09 40.7016L145.188 42.0084C144.887 42.0515 144.603 42.1744 144.366 42.3643C144.128 42.5542 143.946 42.8043 143.838 43.0884C143.784 43.2216 143.77 43.4088 143.896 43.4772C143.941 43.4911 143.99 43.4956 144.037 43.4907C144.085 43.4858 144.131 43.4714 144.173 43.4484L145.508 42.894C145.6 43.6398 145.874 44.3517 146.304 44.9676C146.61 44.3137 146.782 43.6048 146.808 42.8832L148.284 43.5348C148.166 43.1134 147.924 42.7372 147.589 42.4548C148.027 42.3697 148.445 42.2063 148.824 41.9724C148.939 41.9004 149.065 41.778 149.011 41.6556C148.957 41.5332 148.853 41.5332 148.748 41.526C147.774 41.4314 146.793 41.6348 145.937 42.1092" fill="#EBEBEB"/>
<path d="M145.85 42.5339C146.081 41.0406 145.958 39.514 145.49 38.0771C145.85 37.9979 146.275 37.9475 146.502 38.2247C146.618 38.4012 146.67 38.6121 146.65 38.8223C146.667 40.2307 146.398 41.6279 145.861 42.9299" fill="#EBEBEB"/>
<path d="M138.683 47.8798C138.595 47.8151 138.517 47.7374 138.452 47.6494C138.262 47.4193 138.097 47.1695 137.959 46.9042C137.491 46.024 137.325 45.014 137.487 44.0302C137.65 43.0464 138.132 42.1435 138.859 41.461C139.079 41.2542 139.32 41.0719 139.579 40.9174C139.667 40.8532 139.766 40.8045 139.871 40.7734C139.548 41.0099 139.242 41.2673 138.953 41.5438C138.272 42.2273 137.821 43.1063 137.664 44.0582C137.506 45.0101 137.65 45.9875 138.074 46.8538C138.255 47.2085 138.458 47.5512 138.683 47.8798Z" fill="white"/>
<path d="M140.162 49.0033C140.162 49.0429 139.914 49.0033 139.68 48.8233C139.446 48.6433 139.32 48.4633 139.356 48.4273C139.392 48.3913 139.558 48.5389 139.774 48.6937C139.99 48.8485 140.18 48.9601 140.162 49.0033Z" fill="white"/>
<path d="M80.1684 13.4385H26.64V69.2385H80.1684V13.4385Z" fill="#E0E0E0"/>
<path d="M76.5434 13.4395H23.015V69.2395H76.5434V13.4395Z" fill="#FAFAFA"/>
<path d="M76.5612 69.2533H22.9968V13.4209H76.5612V69.2533ZM23.04 69.2209H76.5252V13.4533H23.04V69.2209Z" fill="#E0E0E0"/>
<path d="M69.3468 20.9375H30.2112V61.7327H69.3468V20.9375Z" fill="#FAFAFA"/>
<path d="M30.2112 62.0064C29.9329 62.4159 29.6093 62.7927 29.2464 63.1296C28.62 63.7884 27.7416 64.6812 26.7588 65.6496C25.776 66.618 24.8688 67.482 24.1992 68.094C23.5296 68.706 23.1192 69.0732 23.0688 69.0372C23.3451 68.6282 23.6676 68.2526 24.03 67.9176C24.6564 67.2588 25.5348 66.366 26.5248 65.3976C27.5148 64.4292 28.4184 63.558 29.0844 62.9424C29.7504 62.3268 30.1788 61.9704 30.2112 62.0064Z" fill="#E0E0E0"/>
<path d="M69.3468 61.9199C69.7568 62.1989 70.1336 62.5239 70.47 62.8883C71.1288 63.5111 72.0216 64.3895 72.99 65.3759C73.9584 66.3623 74.8224 67.2623 75.438 67.9319C75.7955 68.2696 76.1109 68.6491 76.3776 69.0623C75.9694 68.7864 75.5949 68.4639 75.2616 68.1011C74.5992 67.4783 73.7064 66.5963 72.7416 65.6099C71.7768 64.6235 70.902 63.7127 70.29 63.0467C69.678 62.3807 69.3108 61.9379 69.3468 61.9199Z" fill="#E0E0E0"/>
<path d="M69.2388 21.0494C69.5144 20.6389 69.837 20.2619 70.2 19.9262C70.8228 19.2638 71.7012 18.371 72.6876 17.4062C73.674 16.4414 74.5776 15.5738 75.2436 14.9582C75.5812 14.6007 75.9608 14.2852 76.374 14.0186C76.41 14.051 76.0392 14.4758 75.4128 15.1346C74.7864 15.7934 73.908 16.6898 72.9216 17.6546C71.9352 18.6194 71.028 19.4942 70.3584 20.1062C69.6888 20.7182 69.2712 21.0854 69.2388 21.0494Z" fill="#E0E0E0"/>
<path d="M30.1032 21.1461C29.6916 20.8706 29.3145 20.5467 28.98 20.1813C28.3212 19.5549 27.4284 18.6801 26.46 17.6937C25.4916 16.7073 24.624 15.8037 24.012 15.1377C23.6552 14.7984 23.3387 14.4191 23.0688 14.0073C23.1048 13.9713 23.5296 14.3421 24.1884 14.9649C24.8472 15.5877 25.7436 16.4733 26.7084 17.4597C27.6732 18.4461 28.5444 19.3533 29.16 20.0229C29.5175 20.3589 29.8341 20.7359 30.1032 21.1461Z" fill="#E0E0E0"/>
<path d="M69.2389 61.7368C69.2389 61.7368 69.2389 61.6648 69.2389 61.5388C69.2389 61.4128 69.2389 61.2112 69.2389 60.97C69.2389 60.454 69.2389 59.7196 69.2389 58.7668C69.2389 56.8336 69.2173 54.022 69.1993 50.4508C69.1993 43.3048 69.1525 33.1276 69.1237 20.9308L69.2713 21.082L30.2473 21.1036L30.4201 20.9308C30.4201 35.9068 30.4021 49.9144 30.3949 61.7296L30.2473 61.5784L58.5073 61.6576L66.4453 61.6936L68.5441 61.7116H69.0877C69.15 61.707 69.2125 61.707 69.2749 61.7116C69.2185 61.7151 69.162 61.7151 69.1057 61.7116H68.5765L66.5065 61.7296L58.5865 61.7692L30.2329 61.8448H30.0853V61.6972C30.0853 49.882 30.0673 35.8744 30.0601 20.8984V20.7256H30.2365L69.2605 20.7472H69.4153V20.8984C69.3865 33.1384 69.3577 43.3408 69.3397 50.5084C69.3397 54.0652 69.3109 56.866 69.3001 58.7884C69.3001 59.7316 69.3001 60.4588 69.2821 60.9484C69.2821 61.1824 69.2821 61.366 69.2821 61.4992C69.2766 61.5798 69.2621 61.6595 69.2389 61.7368Z" fill="#E0E0E0"/>
<path d="M49.6117 28.6201C49.4785 29.0701 47.1853 32.6845 43.8805 33.9121C40.5757 35.1397 38.1205 36.5005 39.0349 38.1169C39.9493 39.7333 44.0137 38.8549 44.0137 38.8549C44.0137 38.8549 35.7733 47.8117 43.5313 52.9309C52.9885 59.1697 62.874 36.8281 62.874 36.8281L49.6117 28.6201Z" fill="#EBEBEB"/>
<path d="M61.3152 39.8951C61.29 39.9383 58.1724 38.0951 54.3528 35.7443C50.5332 33.3935 47.4552 31.4855 47.4804 31.4243C47.5056 31.3631 50.6232 33.2243 54.4464 35.5751C58.2696 37.9259 61.3404 39.8519 61.3152 39.8951Z" fill="#E0E0E0"/>
<path d="M59.8536 42.5735C59.8248 42.6167 56.4588 40.6403 52.3296 38.1599C48.2004 35.6795 44.874 33.6347 44.8992 33.5915C44.9244 33.5483 48.2904 35.5247 52.4232 38.0051C56.556 40.4855 59.8788 42.5303 59.8536 42.5735Z" fill="#E0E0E0"/>
<path d="M58.0861 45.1118C58.0573 45.155 54.2773 42.9302 49.6369 40.1438C44.9965 37.3574 41.2561 35.0606 41.2813 35.021C41.3065 34.9814 45.0901 37.2026 49.7305 39.989C54.3709 42.7754 58.1113 45.0722 58.0861 45.1118Z" fill="#E0E0E0"/>
<path d="M55.8792 48.2402C55.8504 48.2834 52.92 46.4942 49.3308 44.2478C45.7416 42.0014 42.8508 40.1438 42.8796 40.1042C42.9084 40.0646 45.8352 41.8502 49.428 44.0966C53.0208 46.343 55.9044 48.2114 55.8792 48.2402Z" fill="#E0E0E0"/>
<path d="M53.2801 51.2893C53.2549 51.3289 50.5261 49.5685 47.1853 47.3545C43.8445 45.1405 41.1625 43.3117 41.1877 43.2721C41.2129 43.2325 43.9453 44.9929 47.2861 47.2069C50.6269 49.4209 53.3125 51.2461 53.2801 51.2893Z" fill="#E0E0E0"/>
<path d="M49.9752 53.3922C49.8304 53.3431 49.6915 53.2779 49.5612 53.1978C49.302 53.0646 48.9276 52.8594 48.4812 52.6038C47.5668 52.089 46.3212 51.3474 44.9712 50.4834C43.6212 49.6194 42.4296 48.795 41.58 48.1794C41.1552 47.8698 40.8168 47.6178 40.5864 47.4378C40.4555 47.3535 40.3347 47.2545 40.2264 47.1426C40.3637 47.2085 40.494 47.2881 40.6152 47.3802L41.6448 48.075C42.5124 48.6654 43.7112 49.4718 45.0576 50.3322C46.404 51.1926 47.6388 51.9522 48.5352 52.4922L49.6152 53.1402C49.7436 53.2116 49.8642 53.296 49.9752 53.3922Z" fill="#E0E0E0"/>
<path d="M42.2172 39.0563C41.5619 38.8913 40.9422 38.6082 40.3884 38.2211C39.8045 37.8818 39.2862 37.4404 38.8584 36.9179C38.8944 36.8783 39.5568 37.4831 40.4856 38.0699C41.4144 38.6567 42.2388 39.0095 42.2172 39.0563Z" fill="#E0E0E0"/>
<path d="M62.2584 36.3604C62.2254 36.429 62.1856 36.4941 62.1396 36.5548L61.7796 37.0876C61.4592 37.552 60.984 38.2144 60.39 39.0316C59.202 40.6588 57.51 42.8836 55.6128 45.2956C53.7156 47.7076 51.9084 49.8387 50.5728 51.3651C49.914 52.1283 49.3776 52.7403 48.9996 53.1651L48.5712 53.6404C48.5233 53.7001 48.4689 53.7544 48.4092 53.8024C48.4488 53.7369 48.4946 53.6754 48.546 53.6188L48.9564 53.1184L50.49 51.286C51.7824 49.7416 53.5536 47.5924 55.4652 45.1876C57.3768 42.7828 59.0652 40.5688 60.282 38.9596L61.722 37.0516L62.118 36.5368C62.1603 36.4745 62.2072 36.4155 62.2584 36.3604Z" fill="#E0E0E0"/>
<path d="M59.5764 34.4523C59.616 34.4847 56.3364 38.7723 52.2396 44.0283C48.1428 49.2843 44.7984 53.5251 44.7624 53.4927C44.7264 53.4603 48.0024 49.1727 52.0992 43.9167C56.196 38.6607 59.5368 34.4235 59.5764 34.4523Z" fill="#E0E0E0"/>
<path d="M55.836 32.332C55.8106 32.4071 55.7755 32.4785 55.7316 32.5444L55.3932 33.1384C55.098 33.6496 54.6516 34.384 54.0756 35.2696C52.9272 37.0696 51.2208 39.4276 49.2048 41.9548C47.1888 44.482 45.2916 46.7032 43.92 48.3124L42.2856 50.2096L41.832 50.7208C41.7834 50.7834 41.7279 50.8401 41.6664 50.89C41.7074 50.8223 41.7543 50.7585 41.8068 50.6992L42.2316 50.1664L43.8228 48.2332C45.1728 46.6024 47.0628 44.3704 49.0644 41.8432C51.066 39.316 52.7976 36.958 53.9676 35.2012C54.558 34.3228 55.0188 33.6028 55.3356 33.1024L55.6956 32.5264C55.7374 32.4582 55.7844 32.3932 55.836 32.332Z" fill="#E0E0E0"/>
<path d="M52.7689 30.5754C52.8085 30.6042 50.0077 34.3122 46.5157 38.8554C43.0237 43.3986 40.1581 47.0562 40.1185 47.0274C40.0789 46.9986 42.8797 43.2906 46.3717 38.7474C49.8637 34.2042 52.7293 30.5466 52.7689 30.5754Z" fill="#E0E0E0"/>
<path d="M50.4613 29.0703C50.3742 29.2424 50.2756 29.4083 50.1661 29.5671C50.0653 29.7255 49.9429 29.9271 49.7845 30.1251C49.6261 30.3231 49.4605 30.5859 49.2445 30.8451C48.7624 31.455 48.243 32.0346 47.6893 32.5803C47.0112 33.2455 46.2896 33.8648 45.5293 34.4343C44.7581 34.9929 43.9512 35.5004 43.1137 35.9535C42.4273 36.3182 41.7192 36.6404 40.9933 36.9183C40.6873 37.0479 40.3993 37.1343 40.1509 37.2207C39.9025 37.3071 39.6829 37.3683 39.5029 37.4151C39.3201 37.4766 39.1322 37.5212 38.9413 37.5483C39.1158 37.4681 39.2963 37.4019 39.4813 37.3503C39.6577 37.2927 39.8737 37.2207 40.1149 37.1271C40.3561 37.0335 40.6441 36.9363 40.9465 36.8031C41.6599 36.5085 42.3569 36.1756 43.0345 35.8059C43.8624 35.3502 44.6608 34.8428 45.4249 34.2867C46.1818 33.7233 46.9031 33.1138 47.5849 32.4615C48.1399 31.9255 48.6651 31.3595 49.1581 30.7659C49.3777 30.5175 49.5505 30.2763 49.7161 30.0711C49.8817 29.8659 50.0113 29.6859 50.1193 29.5347C50.2204 29.3708 50.3348 29.2155 50.4613 29.0703Z" fill="#E0E0E0"/>
<path d="M40.3381 137.053C40.1833 137.089 41.3425 142.928 41.3425 142.928H44.3197L45.6337 137.283C43.927 136.7 42.0889 136.62 40.3381 137.053Z" fill="#E0E0E0"/>
<path d="M38.5452 169.92C38.5452 169.92 34.1676 157.68 34.7796 154.335C35.3916 150.991 36.7092 150.307 37.7568 149.256C38.8044 148.204 39.6864 147.33 39.9492 146.278C40.212 145.227 39.9492 141.022 39.9492 141.022C39.9492 141.022 39.1608 139.798 39.4236 139.359C39.6864 138.92 46.1664 139.359 46.1664 139.359C46.1299 139.895 45.9482 140.41 45.6408 140.85C45.6408 140.85 45.4644 145.753 45.7272 146.278C45.99 146.804 50.0184 151.272 50.6304 153.547C51.2424 155.822 48.2112 169.92 48.2112 169.92H38.5452Z" fill="#F5F5F5"/>
<path d="M38.5452 169.92C38.6028 169.917 38.6604 169.917 38.718 169.92H39.2112H41.112L48.2112 169.888L48.1536 169.935C48.5136 168.135 48.9312 166.133 49.3416 163.908C49.752 161.684 50.1768 159.261 50.4756 156.662C50.544 156.01 50.6088 155.348 50.6232 154.678C50.6391 154.345 50.6185 154.012 50.562 153.684C50.4748 153.357 50.3542 153.04 50.202 152.738C49.532 151.491 48.75 150.307 47.8656 149.202C47.4228 148.626 46.9656 148.054 46.5012 147.474C46.2672 147.186 46.0332 146.898 45.8064 146.596C45.7467 146.517 45.6914 146.436 45.6408 146.351C45.6034 146.254 45.578 146.152 45.5652 146.049C45.5364 145.858 45.5256 145.671 45.5148 145.48C45.45 143.964 45.4932 142.427 45.54 140.872V140.847V140.822C45.6144 140.706 45.6817 140.585 45.7416 140.462C45.9137 140.125 46.0188 139.758 46.0512 139.382L46.1376 139.475C44.658 139.382 43.2 139.31 41.7708 139.284C41.0689 139.259 40.3661 139.287 39.6684 139.367C39.6046 139.379 39.5428 139.399 39.4848 139.428C39.4512 139.487 39.4362 139.555 39.4416 139.623C39.4526 139.785 39.4877 139.946 39.546 140.098C39.6694 140.412 39.8225 140.713 40.0032 140.998V141.02V141.041C40.068 142.161 40.1112 143.262 40.1148 144.346C40.1233 144.885 40.1029 145.425 40.0536 145.962C39.9874 146.499 39.7868 147.01 39.4704 147.449C39.1702 147.871 38.8367 148.268 38.4732 148.637C38.1132 148.997 37.7532 149.357 37.3932 149.699C37.0268 150.018 36.6816 150.361 36.36 150.725C36.0745 151.08 35.8328 151.468 35.64 151.881C35.2559 152.702 34.9904 153.573 34.8516 154.469C34.8067 154.896 34.8067 155.327 34.8516 155.754C34.8804 156.179 34.938 156.593 34.9992 157.004C35.2584 158.627 35.6328 160.11 35.982 161.453C36.702 164.132 37.3788 166.241 37.8468 167.688C38.0808 168.408 38.2644 168.963 38.3904 169.348C38.4516 169.532 38.4984 169.672 38.5308 169.776C38.5632 169.881 38.574 169.924 38.574 169.924L38.5164 169.78C38.4804 169.679 38.4264 169.539 38.3616 169.359C38.2248 168.999 38.0304 168.43 37.7856 167.71C37.2996 166.27 36.6048 164.16 35.8704 161.482C35.4582 160.015 35.1218 158.527 34.8624 157.025C34.8012 156.615 34.74 156.197 34.7076 155.765C34.6609 155.327 34.6609 154.885 34.7076 154.448C34.8429 153.535 35.1097 152.648 35.4996 151.812C35.7111 151.377 35.9759 150.969 36.288 150.599C36.6153 150.23 36.9652 149.881 37.3356 149.555C37.6956 149.224 38.0556 148.864 38.4156 148.5C38.7735 148.139 39.0999 147.747 39.3912 147.33C39.6934 146.915 39.8843 146.429 39.9456 145.919C39.9922 145.389 40.0114 144.857 40.0032 144.324C40.0032 143.244 39.9492 142.164 39.8844 141.03V141.074C39.6967 140.778 39.5387 140.464 39.4128 140.138C39.3434 139.967 39.3032 139.785 39.294 139.601C39.2867 139.493 39.3144 139.386 39.3732 139.295C39.4559 139.222 39.559 139.177 39.6684 139.166C40.3777 139.079 41.0928 139.05 41.8068 139.079C43.2468 139.101 44.6868 139.173 46.1844 139.266H46.278V139.353C46.2509 139.764 46.1381 140.165 45.9468 140.53C45.8826 140.654 45.8116 140.774 45.7344 140.89L45.7524 140.843C45.7056 142.395 45.6624 143.932 45.7272 145.433C45.7334 145.617 45.749 145.801 45.774 145.984C45.7839 146.069 45.8032 146.152 45.8316 146.232C45.8771 146.308 45.9276 146.38 45.9828 146.448C46.2024 146.747 46.44 147.035 46.6704 147.323C47.1348 147.903 47.592 148.475 48.0348 149.055C48.927 150.17 49.7139 151.366 50.3856 152.626C50.5384 152.941 50.659 153.27 50.7456 153.609C50.8032 153.951 50.8237 154.299 50.8068 154.646C50.8068 155.326 50.7276 155.992 50.6556 156.644C50.3496 159.254 49.9068 161.684 49.4964 163.901C49.086 166.119 48.6648 168.142 48.2832 169.924V169.974H48.2328L41.1048 169.946H39.2148H38.7288L38.5452 169.92Z" fill="#E0E0E0"/>
<path d="M47.3724 168.653C48.483 164.556 49.2192 160.366 49.572 156.136C49.608 155.653 49.608 155.095 49.2444 154.775C48.798 154.386 48.114 154.595 47.5488 154.775C45.8873 155.3 44.1195 155.394 42.4116 155.048C40.752 154.706 39.1068 153.947 37.4328 154.22C37.2235 154.241 37.0204 154.303 36.835 154.403C36.6497 154.502 36.4858 154.637 36.3528 154.8C36.0792 155.203 36.144 155.736 36.2232 156.215C36.8784 160.33 38.2212 165.064 39.312 168.653H47.3724Z" fill="#E0E0E0"/>
<path d="M48.474 155.279C48.3845 155.412 48.278 155.533 48.1572 155.639C47.8461 155.926 47.5127 156.187 47.16 156.42C45.9958 157.219 44.6573 157.728 43.2563 157.904C41.8553 158.08 40.4325 157.918 39.1068 157.432C38.7084 157.287 38.322 157.112 37.9512 156.906C37.8103 156.838 37.6785 156.752 37.5588 156.651C37.5768 156.618 38.142 156.971 39.15 157.306C40.4596 157.748 41.8523 157.889 43.2239 157.717C44.5954 157.545 45.9103 157.065 47.07 156.312C47.988 155.736 48.4488 155.254 48.474 155.279Z" fill="white"/>
<path d="M121.493 88.7938C120.372 88.9186 119.241 88.9186 118.12 88.7938C119.241 88.669 120.372 88.669 121.493 88.7938Z" fill="#FAFAFA"/>
<path d="M171.36 170.381C171.36 170.435 134.939 170.478 90.0216 170.478C45.1044 170.478 8.66162 170.435 8.66162 170.381C8.66162 170.327 45.072 170.28 90 170.28C134.928 170.28 171.36 170.331 171.36 170.381Z" fill="#263238"/>
<path d="M138.809 150.059C140.562 148.799 142.348 147.521 144.378 146.783C146.408 146.045 148.756 145.901 150.678 146.891C152.287 147.719 153.446 149.267 154.112 150.951C154.934 153.043 155.073 155.342 154.508 157.518C154.202 158.691 153.594 159.905 152.478 160.38C151.362 160.855 150.077 160.445 148.968 159.948C145.329 158.313 142.177 155.761 139.82 152.543C140.058 152.353 140.345 152.238 140.647 152.211C140.949 152.184 141.253 152.247 141.52 152.391C142.047 152.689 142.526 153.064 142.942 153.504C144.349 154.779 146.047 155.691 147.888 156.161C149.249 156.521 151.081 156.359 151.538 155.03C151.837 154.163 151.362 153.23 150.901 152.442C150.376 151.531 149.774 150.555 148.788 150.192C148.046 149.922 147.229 150.051 146.452 150.192L137.963 151.65L138.488 151.495" fill="#455A64"/>
<path d="M117.616 35.5643C112.018 34.0019 103.723 36.1763 100.555 41.0471C97.3873 45.9179 98.7841 53.1467 98.5357 58.9499C98.2873 64.7531 98.5357 70.6499 97.1281 76.2911C96.2425 79.8911 94.5469 83.4911 91.4293 85.4891C87.8653 87.7571 82.5229 87.9803 80.8345 91.8539C79.4269 95.0939 81.6121 99.0539 80.1901 102.294C79.5637 103.734 78.2929 104.814 77.7457 106.272C76.9897 108.295 77.8177 110.65 79.3045 112.216C80.7913 113.782 82.8253 114.7 84.8521 115.456C91.0267 117.717 97.5899 118.727 104.159 118.426C108.936 118.202 114.062 117.072 117.194 113.461C119.653 110.624 120.463 106.736 120.91 103.021C123.653 80.0424 124.15 54.7811 117.616 35.6003" fill="#263238"/>
<path d="M86.4 105.296C86.4468 105.271 86.1912 104.839 85.9356 103.979C85.6012 102.762 85.53 101.488 85.7268 100.242C86.0251 98.3942 86.715 96.6317 87.75 95.0723C88.8984 93.3011 90.5616 91.6379 92.3868 89.9999C94.212 88.3619 96.03 86.8463 97.4952 85.2659C98.8166 83.8829 99.9168 82.3044 100.757 80.5859C101.318 79.4224 101.667 78.1678 101.786 76.8815C101.811 76.5328 101.811 76.1827 101.786 75.8339C101.786 75.5927 101.758 75.4739 101.74 75.4739C101.632 75.4451 101.92 77.5619 100.472 80.4563C99.6101 82.1196 98.5074 83.6468 97.2 84.9887C95.76 86.5331 93.9348 88.0271 92.0952 89.6687C90.2556 91.3103 88.578 93.0131 87.4152 94.8491C86.3631 96.4617 85.682 98.2875 85.4208 100.195C85.2479 101.482 85.3711 102.79 85.7808 104.022C85.8955 104.354 86.0401 104.674 86.2128 104.98C86.2597 105.094 86.3228 105.2 86.4 105.296Z" fill="#455A64"/>
<path d="M100.48 146.451L98.6077 169.977L154.85 170.254L139.561 148.755L100.48 146.451Z" fill="#263238"/>
<path d="M56.016 89.8662C56.1744 90.003 52.722 108.424 50.976 117.647C50.6844 119.19 50.8314 120.784 51.4003 122.248C51.9692 123.712 52.9372 124.986 54.1944 125.927C55.4933 126.899 57.0459 127.473 58.6642 127.58C60.2826 127.687 61.8974 127.323 63.3132 126.532L86.7312 114.346L79.56 99.3306L64.8 107.708L65.772 92.0874L56.016 89.8662Z" fill="#FFBE9D"/>
<path d="M64.0117 75.2178C63.8461 74.559 63.0145 74.2602 62.3521 74.4258C61.7061 74.652 61.1304 75.0429 60.6817 75.5598L58.7881 76.7082C58.4307 76.9453 58.1365 77.2659 57.9308 77.6423C57.7251 78.0186 57.614 78.4393 57.6073 78.8682C57.5979 79.7241 57.7305 80.5756 57.9997 81.3882C58.1977 82.1082 58.4785 82.9254 59.1733 83.1882C59.9473 83.4762 60.8041 82.8786 61.1677 82.137C61.5313 81.3954 61.5673 80.5494 61.7581 79.7466C61.988 78.7837 62.4433 77.8891 63.0865 77.1366C63.5653 76.5714 64.1953 75.9378 64.0117 75.2178Z" fill="#EB996E"/>
<path d="M48.2796 75.9599C48.2211 75.7763 48.2086 75.5811 48.2434 75.3916C48.2781 75.202 48.3591 75.0239 48.479 74.8731C48.5989 74.7222 48.7541 74.6032 48.9309 74.5265C49.1078 74.4499 49.3007 74.4179 49.4928 74.4335C53.3376 74.7503 62.4708 76.0284 67.8888 77.5872C75.5712 79.7976 80.6292 81.2268 80.6292 81.2268L96.9444 80.8668C96.9444 80.8668 94.986 86.4899 88.7688 86.5187C84.0636 86.5403 79.128 83.5164 79.128 83.5164C79.128 83.5164 58.2192 76.3955 49.4388 76.7807C49.1824 76.7921 48.9295 76.718 48.7197 76.5701C48.5099 76.4222 48.3551 76.2089 48.2796 75.9635V75.9599Z" fill="#455A64"/>
<path d="M93.8953 80.9131C94.0969 81.4855 93.4309 81.9931 92.8369 82.1011C92.2429 82.2091 91.5625 82.1803 91.1341 82.6051C90.9821 82.7876 90.8713 83.0008 90.8092 83.23C90.7471 83.4593 90.7351 83.6992 90.7741 83.9335C90.859 84.4 90.9155 84.8713 90.9433 85.3447C90.9525 85.6664 90.8408 85.9798 90.6301 86.2231C90.2017 86.6587 89.4133 86.5111 88.9993 86.0647C88.6201 85.5793 88.4136 84.9814 88.4125 84.3655C88.4071 83.9293 88.3429 83.4958 88.2217 83.0767C88.1577 82.8671 88.0389 82.6785 87.8775 82.5304C87.7161 82.3822 87.5179 82.28 87.3037 82.2343C86.7889 82.1695 86.3353 82.5583 85.8421 82.7311C85.5836 82.8042 85.3123 82.8206 85.0469 82.7789C84.7814 82.7373 84.5282 82.6387 84.3045 82.4899C84.0808 82.3411 83.8919 82.1457 83.7509 81.917C83.6099 81.6883 83.5201 81.4318 83.4877 81.1651L93.8953 80.9131Z" fill="#FF725E"/>
<path d="M54.1584 75.0635C53.9026 75.2059 53.638 75.3321 53.3664 75.4415C52.0496 75.9763 50.624 76.1886 49.2084 76.0607C48.9167 76.0368 48.6268 75.9935 48.3408 75.9311C48.3408 75.9311 48.4236 75.9311 48.5712 75.9635C48.7188 75.9959 48.9312 76.0103 49.2084 76.0319C49.9121 76.0885 50.6199 76.0644 51.318 75.9599C52.0153 75.8548 52.6987 75.6725 53.3556 75.4163C53.6076 75.3155 53.8092 75.2291 53.946 75.1607L54.1584 75.0635Z" fill="#263238"/>
<path d="M61.3153 76.0969H61.2469L61.0524 76.0753C60.8832 76.0537 60.6384 76.0321 60.3324 76.0141C59.5408 75.9668 58.7463 76.0079 57.9636 76.1365C57.1817 76.2697 56.4165 76.487 55.6812 76.7845C55.4004 76.9033 55.1736 77.0041 55.0224 77.0797L54.8461 77.1625L54.7812 77.1877C54.7812 77.1877 54.7993 77.1877 54.8389 77.1481L55.0081 77.0509C55.1593 76.9681 55.368 76.8601 55.6632 76.7377C56.3966 76.422 57.1654 76.196 57.9528 76.0645C58.7403 75.9351 59.5403 75.9 60.3361 75.9601C60.6421 75.9853 60.8869 76.0177 61.0561 76.0465L61.2505 76.0825L61.3153 76.0969Z" fill="#263238"/>
<path d="M66.6648 78.8074L65.9124 78.5842L65.034 78.3178C64.8436 78.275 64.6705 78.1759 64.5372 78.0334C64.5039 77.9907 64.4815 77.9405 64.4721 77.8871C64.4627 77.8338 64.4665 77.7789 64.4832 77.7274C64.5028 77.6737 64.5349 77.6255 64.5768 77.5867C64.6188 77.5479 64.6694 77.5196 64.7244 77.5042C64.9591 77.4327 65.2097 77.4327 65.4444 77.5042C65.6856 77.551 65.9376 77.605 66.1932 77.677C66.7378 77.8302 67.2668 78.0339 67.7736 78.2854C68.04 78.4186 68.31 78.5662 68.5728 78.7318C68.7124 78.8066 68.835 78.9096 68.9328 79.0342C68.9578 79.0693 68.9736 79.1101 68.9787 79.1529C68.9837 79.1957 68.9778 79.2391 68.9616 79.279C68.9234 79.3549 68.8597 79.4148 68.7816 79.4482C68.1504 79.6915 67.4671 79.7671 66.798 79.6678C65.412 79.4914 64.242 78.8254 63.198 78.2782C62.2886 77.7395 61.3013 77.3448 60.2712 77.1082C59.5733 76.9612 58.85 76.9884 58.1652 77.1874C57.9801 77.2457 57.8006 77.3204 57.6288 77.4106C57.5136 77.4754 57.4524 77.5042 57.4524 77.5042L57.6 77.3998C57.77 77.3066 57.9484 77.2294 58.1328 77.1694C58.8211 76.9636 59.5499 76.9326 60.2532 77.0794C61.2866 77.313 62.2775 77.7053 63.1908 78.2422C64.2384 78.7894 65.4084 79.4518 66.7908 79.6282C67.4525 79.7255 68.1281 79.6511 68.7528 79.4122C68.8249 79.3843 68.884 79.3303 68.9184 79.261C68.9311 79.2261 68.9354 79.1887 68.931 79.1518C68.9267 79.1149 68.9137 79.0796 68.8932 79.0486C68.7943 78.9288 68.6718 78.8308 68.5332 78.7606C68.2763 78.5975 68.0107 78.4484 67.7376 78.3142C67.2321 78.0628 66.7042 77.8591 66.1608 77.7058C65.9088 77.6338 65.6568 77.5762 65.4156 77.5258C65.191 77.4609 64.9526 77.4609 64.728 77.5258C64.6771 77.5416 64.6303 77.5686 64.5911 77.6047C64.5519 77.6408 64.5212 77.6852 64.5012 77.7346C64.485 77.7822 64.4809 77.8331 64.489 77.8827C64.4972 77.9323 64.5174 77.9791 64.548 78.019C64.6783 78.159 64.8476 78.2568 65.034 78.2998L65.9124 78.5698L66.6648 78.8074Z" fill="#263238"/>
<path d="M70.4593 78.4795C70.5242 78.5905 70.5681 78.7126 70.5889 78.8395C70.6475 79.1336 70.6109 79.4388 70.4845 79.7107C70.351 79.9793 70.1371 80.1995 69.8725 80.3407C69.7607 80.4011 69.6386 80.4402 69.5125 80.4559C69.6265 80.4183 69.7373 80.3713 69.8437 80.3155C70.1043 80.1773 70.3141 79.9599 70.4429 79.6945C70.5717 79.4292 70.6127 79.1297 70.5601 78.8395C70.5361 78.717 70.5024 78.5966 70.4593 78.4795Z" fill="#263238"/>
<path d="M77.0832 80.2108C77.0832 80.2108 76.7232 80.2109 76.1616 80.1749C75.6 80.1389 74.808 80.0561 73.9368 80.0453C73.1999 80.0186 72.4652 80.141 71.7768 80.4053C71.6524 80.4504 71.532 80.5058 71.4168 80.5708C71.3299 80.6122 71.2478 80.6629 71.172 80.722L70.9668 80.8588L71.1612 80.7112C71.2364 80.6491 71.3185 80.5959 71.406 80.5528C71.5209 80.4852 71.6414 80.4274 71.766 80.38C72.4626 80.1092 73.2081 79.9866 73.9548 80.02C74.8296 80.02 75.6108 80.1244 76.1796 80.164C76.464 80.1856 76.6944 80.2036 76.8528 80.2108H77.0832Z" fill="#263238"/>
<path d="M83.9916 85.6435C83.9916 85.6435 83.862 85.5319 83.6316 85.3231C83.5164 85.2187 83.3724 85.0927 83.1996 84.9631C83.0268 84.8335 82.8396 84.6607 82.6092 84.4987C82.0889 84.1048 81.5442 83.7441 80.9784 83.4187C79.5934 82.6281 78.0951 82.055 76.536 81.7195C75.9011 81.5792 75.2578 81.4806 74.61 81.4243C74.3328 81.3883 74.0808 81.3847 73.8612 81.3739C73.6416 81.3631 73.4508 81.3739 73.296 81.3739C73.4508 81.3739 73.656 81.3739 73.8612 81.3739C74.0664 81.3739 74.3328 81.3739 74.61 81.4171C75.2599 81.4721 75.9056 81.5683 76.5432 81.7051C77.323 81.8735 78.0903 82.0948 78.84 82.3675C79.5828 82.6593 80.3046 83.0021 81 83.3935C81.5662 83.7183 82.1109 84.079 82.6308 84.4735C82.8576 84.6319 83.0448 84.8011 83.2176 84.9415C83.3904 85.0819 83.5308 85.2043 83.6424 85.3015C83.88 85.5247 83.9916 85.6435 83.9916 85.6435Z" fill="#263238"/>
<path d="M88.7112 85.7658C88.5969 85.8278 88.4762 85.8773 88.3512 85.9134C88.0167 86.0149 87.6671 86.0576 87.318 86.0394C86.7997 86.0067 86.2925 85.8747 85.824 85.6506C85.2555 85.3687 84.7315 85.0048 84.2688 84.5706C83.7684 84.117 83.3328 83.649 82.9296 83.2314C82.5769 82.8508 82.2031 82.4902 81.81 82.1514C81.5452 81.9263 81.2636 81.7217 80.9676 81.5394C80.8632 81.4782 80.7804 81.4278 80.7228 81.399L80.64 81.3594C81.0696 81.5667 81.4702 81.8293 81.8316 82.1406C82.2251 82.4751 82.6012 82.8296 82.9584 83.2026C83.3652 83.6202 83.8008 84.0882 84.2976 84.5382C84.7574 84.9711 85.2776 85.3349 85.842 85.6182C86.3066 85.8426 86.8103 85.9746 87.3252 86.007C87.6711 86.0301 88.0184 85.9923 88.3512 85.8954C88.4424 85.8699 88.5314 85.8374 88.6176 85.7982L88.7112 85.7658Z" fill="#263238"/>
<path d="M94.8924 84.0341H94.77C94.6872 84.0341 94.572 84.0341 94.428 84.0341C94.0519 84.0348 93.6768 84.0734 93.3085 84.1493C92.9364 84.2296 92.5743 84.3504 92.2285 84.5093C92.0989 84.5669 91.9908 84.6209 91.9224 84.6605C91.886 84.6823 91.8474 84.7004 91.8073 84.7145C91.938 84.6273 92.0752 84.5503 92.2177 84.4841C92.9015 84.1538 93.6545 83.9921 94.4137 84.0125C94.5736 84.009 94.7335 84.0162 94.8924 84.0341Z" fill="#263238"/>
<path d="M49.9681 85.4747L49.7953 82.1087C49.7762 81.746 49.876 81.387 50.0797 81.0863L50.1013 81.0539C50.6812 80.1935 51.437 79.4658 52.3189 78.9191L59.5729 74.4227C59.6798 74.3561 59.8013 74.3166 59.9269 74.3076C60.0526 74.2987 60.1785 74.3205 60.2938 74.3712C60.4091 74.4219 60.5102 74.5 60.5885 74.5987C60.6667 74.6974 60.7197 74.8137 60.7429 74.9375C60.8329 75.5315 60.5701 76.8851 60.0445 77.4251C59.112 78.2738 58.0909 79.0197 56.9989 79.6499L64.2745 78.2387C64.444 78.7033 64.4409 79.2134 64.2658 79.6759C64.0907 80.1385 63.7552 80.5228 63.3205 80.7587L66.3121 80.1251C66.3121 80.1251 67.2913 81.5183 65.9521 82.4363C64.6129 83.3543 62.2333 84.1499 62.2333 84.1499C62.2333 84.1499 65.9449 85.7159 65.8585 86.9651C65.7721 88.2143 65.7217 92.2175 65.7217 92.2175L55.7497 91.4975L49.9681 85.4747Z" fill="#FFBE9D"/>
<path d="M57.2617 79.4297L57.1933 79.4693L56.9845 79.5737C56.8045 79.6673 56.5417 79.7969 56.2249 79.9661C55.9081 80.1353 55.5481 80.3657 55.1449 80.6285C54.7417 80.8913 54.2917 81.1613 53.8633 81.4925C53.6536 81.6531 53.4857 81.8617 53.3737 82.1009C53.2776 82.3283 53.2333 82.5742 53.2441 82.8209C53.2732 83.2394 53.353 83.6528 53.4817 84.0521C53.5643 84.327 53.621 84.609 53.6509 84.8945C53.6633 84.9985 53.6633 85.1037 53.6509 85.2077C53.6509 85.2077 53.6509 85.0961 53.6257 84.8945C53.5874 84.6136 53.5248 84.3365 53.4385 84.0665C53.2998 83.6641 53.2139 83.2454 53.1829 82.8209C53.1699 82.5659 53.2142 82.3113 53.3125 82.0757C53.4299 81.8267 53.6037 81.6086 53.8201 81.4385C54.0335 81.274 54.2558 81.1213 54.4861 80.9813L55.1161 80.5745C55.5157 80.3153 55.8829 80.0885 56.1961 79.9229C56.5093 79.7573 56.7829 79.6349 56.9701 79.5629L57.1825 79.4693L57.2617 79.4297Z" fill="#EB996E"/>
<path d="M57.9384 86.9869C57.9384 86.9869 57.906 86.951 57.8484 86.8754L57.6 86.5549L57.204 86.0509C57.0236 85.8299 56.8702 85.5882 56.7468 85.3309C56.6107 84.9781 56.5814 84.5929 56.6627 84.2235C56.744 83.8541 56.9323 83.5168 57.204 83.2537C57.5363 82.9638 57.9147 82.7314 58.3236 82.5661C58.734 82.3717 59.166 82.1845 59.6124 82.0009C61.1431 81.3891 62.7155 80.8874 64.3176 80.4997C64.9296 80.3449 65.43 80.2369 65.7756 80.1649L66.1716 80.0857L66.312 80.0605C66.2673 80.0764 66.2216 80.0897 66.1752 80.1001L65.7792 80.1937C65.4372 80.2765 64.9404 80.3917 64.3392 80.5537C62.7478 80.9577 61.1845 81.4652 59.6592 82.0729C59.2164 82.2565 58.7844 82.4329 58.374 82.6345C57.9714 82.7972 57.5981 83.0246 57.2688 83.3077C57.0054 83.561 56.8221 83.8859 56.7414 84.2424C56.6608 84.5988 56.6865 84.971 56.8152 85.3129C56.9338 85.5689 57.0811 85.8104 57.2544 86.0329C57.3984 86.2237 57.528 86.3929 57.6432 86.5441C57.7584 86.6953 57.8268 86.7961 57.8808 86.8754C57.9348 86.9546 57.9384 86.9869 57.9384 86.9869Z" fill="#EB996E"/>
<path d="M65.6569 82.5156C65.6048 82.5541 65.5494 82.5879 65.4913 82.6164L65.0269 82.8612C64.6345 83.0664 64.0873 83.34 63.4645 83.61C62.9335 83.8402 62.3903 84.0409 61.8373 84.2112C61.6249 84.276 61.4521 84.3228 61.3297 84.3516C61.2686 84.3713 61.206 84.3858 61.1425 84.3948C61.1991 84.3641 61.2597 84.3411 61.3225 84.3264L61.8193 84.1608C62.2405 84.0168 62.8129 83.8008 63.4357 83.5416C64.0585 83.2824 64.6057 83.0052 65.0053 82.8216L65.4769 82.5984C65.5339 82.5649 65.5942 82.5371 65.6569 82.5156Z" fill="#EB996E"/>
<path d="M87.0589 66.459C87.0589 66.459 86.9365 66.6246 86.7745 66.9594C86.5516 67.4358 86.4384 67.9562 86.4433 68.4822C86.4476 69.263 86.7239 70.0178 87.2245 70.617C87.535 70.9567 87.863 71.2799 88.2073 71.5854C88.5849 71.9174 88.8837 72.3294 89.0821 72.7914C89.247 73.2724 89.2316 73.7969 89.0389 74.2674C88.8607 74.6988 88.6179 75.1006 88.3189 75.459C88.0453 75.819 87.7537 76.1106 87.4909 76.3986C87.246 76.6666 87.0222 76.953 86.8213 77.2554C86.5958 77.5359 86.4348 77.8625 86.3496 78.2121C86.2643 78.5617 86.257 78.9258 86.3281 79.2786C86.3281 79.2786 86.3281 79.2282 86.2921 79.1346C86.2584 78.9932 86.2439 78.8479 86.2489 78.7026C86.2839 78.1708 86.4672 77.6595 86.7781 77.2266C86.9774 76.9207 87.2001 76.6306 87.4441 76.359C87.7069 76.0638 87.9949 75.7614 88.2649 75.4158C88.5561 75.0618 88.7928 74.6662 88.9669 74.2422C89.1547 73.7829 89.1687 73.271 89.0065 72.8022C88.8139 72.3499 88.5209 71.9473 88.1497 71.625C87.8064 71.3159 87.4796 70.9891 87.1705 70.6458C86.6601 70.0354 86.3832 69.2634 86.3893 68.4678C86.3893 67.9345 86.5125 67.4084 86.7493 66.9306C86.8345 66.7623 86.9384 66.6041 87.0589 66.459Z" fill="#263238"/>
<path d="M90.36 66.2861C90.36 66.2861 90.2376 66.4553 90.0756 66.7901C89.854 67.2656 89.7421 67.7848 89.748 68.3093C89.7485 69.0919 90.0251 69.8492 90.5292 70.4477C90.81 70.7789 91.1628 71.0813 91.5084 71.4161C91.888 71.7448 92.1873 72.1562 92.3832 72.6185C92.5472 73.1006 92.5332 73.6255 92.3436 74.0981C92.1638 74.5287 91.9212 74.9303 91.6236 75.2897C91.3464 75.6497 91.0548 75.9377 90.7956 76.2293C90.5506 76.4968 90.3256 76.782 90.1224 77.0825C89.8173 77.5058 89.6308 78.003 89.5824 78.5225C89.5777 78.7146 89.5946 78.9066 89.6328 79.0949C89.6164 79.0479 89.6032 78.9998 89.5932 78.9509C89.561 78.8105 89.5477 78.6665 89.5536 78.5225C89.5884 77.9902 89.7704 77.4779 90.0792 77.0429C90.2808 76.7388 90.5046 76.45 90.7488 76.1789C91.008 75.8837 91.296 75.5813 91.5696 75.2357C91.8597 74.8816 92.0951 74.486 92.268 74.0621C92.456 73.6031 92.4713 73.0916 92.3112 72.6221C92.1166 72.172 91.8239 71.771 91.4544 71.4485C91.0944 71.1137 90.7596 70.8113 90.4716 70.4693C89.9609 69.8577 89.6841 69.0845 89.6904 68.2877C89.6924 67.7558 89.8155 67.2314 90.0504 66.7541C90.1376 66.5881 90.2413 66.4313 90.36 66.2861Z" fill="#263238"/>
<path d="M64.4976 119.333C64.476 119.333 64.5804 116.607 64.7316 113.249C64.8828 109.89 65.0196 107.168 65.0376 107.172C65.0556 107.175 64.9548 109.893 64.8072 113.252C64.6596 116.611 64.5156 119.333 64.4976 119.333Z" fill="#EB996E"/>
<path d="M58.2372 93.6466C57.55 92.9859 56.8987 92.2889 56.286 91.5586C56.9732 92.2193 57.6245 92.9163 58.2372 93.6466Z" fill="#EB996E"/>
<path d="M100.264 145.681L97.3333 170.254H138.24L131.425 152.776L140.803 150.551C140.803 150.551 140.173 148.791 139.568 148.751C138.964 148.712 100.264 145.681 100.264 145.681Z" fill="#455A64"/>
<path d="M79.2612 98.7042C79.2612 98.7042 95.1264 88.4298 99.2988 87.0294C101.866 86.169 109.573 86.0322 109.573 86.0322L95.1264 110.721L86.9148 114.717L79.2612 98.7042Z" fill="#6C63FF"/>
<path d="M158.789 115.97C153.943 104.27 146.102 91.051 143.78 88.7866C141.458 86.5222 127.22 84.6934 127.22 84.6934L108.551 86.7202L93.582 107.24L100.138 139.241L99.9144 139.665C99.4244 140.609 99.1991 141.668 99.2625 142.73C99.3259 143.792 99.6756 144.816 100.274 145.695L139.572 148.77L139.622 118.469L158.789 115.97Z" fill="#6C63FF"/>
<path d="M134.197 133.12C134.141 133.212 134.077 133.299 134.006 133.379C133.87 133.541 133.686 133.793 133.412 134.099C132.664 134.954 131.852 135.751 130.982 136.483C128.105 138.917 124.692 140.634 121.022 141.495C117.353 142.356 113.532 142.336 109.872 141.436C108.767 141.167 107.684 140.815 106.632 140.385C106.272 140.237 105.977 140.093 105.782 140.025C105.683 139.984 105.586 139.934 105.494 139.877C105.599 139.908 105.701 139.945 105.8 139.989C105.998 140.065 106.279 140.198 106.657 140.331C110.681 141.893 115.05 142.352 119.311 141.66C123.572 140.967 127.57 139.149 130.892 136.393C131.766 135.674 132.589 134.896 133.355 134.063C133.636 133.775 133.826 133.531 133.974 133.376C134.042 133.285 134.117 133.2 134.197 133.12Z" fill="#263238"/>
<path d="M139.612 117.327C139.579 117.232 139.555 117.135 139.54 117.035L139.367 116.2C139.219 115.451 139.007 114.4 138.762 113.115C138.269 110.49 137.592 106.894 136.847 102.923C136.753 102.426 136.663 101.933 136.573 101.447C136.483 100.961 136.372 100.486 136.321 100.007C136.197 99.0912 136.163 98.1652 136.22 97.2425C136.279 96.4093 136.406 95.5822 136.598 94.7693C136.78 94.0646 137.012 93.374 137.293 92.7029C137.702 91.7323 138.23 90.8168 138.866 89.9777C139.082 89.6717 139.284 89.4629 139.406 89.3117C139.465 89.2308 139.534 89.1581 139.612 89.0957C139.612 89.0957 139.554 89.1785 139.435 89.3369C139.316 89.4953 139.129 89.6969 138.928 90.0209C138.317 90.8684 137.809 91.7856 137.416 92.7533C137.144 93.4201 136.921 94.106 136.75 94.8053C136.563 95.6102 136.443 96.4289 136.39 97.2533C136.338 98.1644 136.376 99.0783 136.501 99.9821C136.552 100.457 136.67 100.925 136.753 101.422C136.836 101.919 136.933 102.398 137.027 102.898C137.747 106.858 138.409 110.458 138.888 113.101C139.118 114.393 139.302 115.448 139.432 116.196L139.572 117.039C139.593 117.134 139.606 117.23 139.612 117.327Z" fill="#263238"/>
<path d="M95.5117 116.64C95.4518 116.469 95.4073 116.293 95.3785 116.114C95.3065 115.736 95.2093 115.247 95.0905 114.674C94.8565 113.45 94.5433 111.751 94.2085 109.876C93.8737 108 93.5821 106.297 93.3805 105.066C93.2869 104.472 93.2077 103.986 93.1501 103.604C93.1155 103.426 93.095 103.246 93.0889 103.064C93.1494 103.235 93.194 103.411 93.2221 103.59C93.2941 103.95 93.3913 104.454 93.5101 105.03C93.7441 106.258 94.0573 107.957 94.3921 109.832C94.7269 111.708 95.0185 113.407 95.2201 114.642C95.3137 115.232 95.3929 115.722 95.4505 116.104C95.485 116.281 95.5055 116.46 95.5117 116.64Z" fill="#263238"/>
<path d="M140.962 99.8244C141.066 99.1273 141.231 98.4407 141.455 97.7724C141.621 97.0877 141.847 96.4191 142.132 95.7744C142.025 96.4714 141.859 97.1579 141.635 97.8264C141.472 98.5115 141.246 99.1802 140.962 99.8244Z" fill="#FAFAFA"/>
<path d="M143.068 107.045C142.514 106.797 141.988 106.492 141.498 106.135C140.974 105.824 140.482 105.462 140.029 105.055C141.107 105.611 142.125 106.276 143.068 107.038V107.045Z" fill="#FAFAFA"/>
<path d="M147.042 104.256C146.958 103.634 146.972 103.002 147.085 102.384C147.136 101.758 147.283 101.144 147.521 100.562C147.575 100.562 147.402 101.391 147.272 102.409C147.143 103.428 147.096 104.256 147.042 104.256Z" fill="#FAFAFA"/>
<path d="M147.838 111.24C147.591 110.695 147.38 110.134 147.204 109.562C146.966 109.012 146.76 108.449 146.588 107.874C146.932 108.372 147.197 108.92 147.377 109.498C147.615 110.053 147.77 110.64 147.838 111.24Z" fill="#FAFAFA"/>
<path d="M144.756 115.56C143.773 114.827 142.866 113.997 142.049 113.083C143.034 113.814 143.941 114.644 144.756 115.56Z" fill="#FAFAFA"/>
<path d="M154.192 110.52C154.231 110.559 153.666 111.186 153.112 112.057C152.557 112.928 152.19 113.695 152.14 113.673C152.3 113.053 152.576 112.47 152.953 111.952C153.275 111.403 153.694 110.917 154.192 110.52Z" fill="#FAFAFA"/>
<path d="M143.903 92.8042C143.514 92.5798 143.158 92.301 142.848 91.9762C142.494 91.6978 142.18 91.3719 141.916 91.0078C142.304 91.2362 142.66 91.5159 142.974 91.8394C143.327 92.1165 143.639 92.4412 143.903 92.8042Z" fill="#FAFAFA"/>
<path d="M132.296 93.085C131.431 93.7384 130.493 94.2916 129.503 94.7338C129.915 94.3813 130.367 94.078 130.849 93.8302C131.301 93.5272 131.787 93.2771 132.296 93.085Z" fill="#FAFAFA"/>
<path d="M130.266 103.248C129.885 102.872 129.549 102.452 129.265 101.999C128.931 101.581 128.647 101.126 128.419 100.642C129.135 101.435 129.755 102.309 130.266 103.248Z" fill="#FAFAFA"/>
<path d="M134.662 106.559C134.248 107.665 133.581 108.657 132.714 109.457C132.674 109.418 133.171 108.817 133.704 108.017C134.237 107.218 134.611 106.531 134.662 106.559Z" fill="#FAFAFA"/>
<path d="M123.98 107.301C123.926 107.319 123.62 106.513 123.127 105.587C122.634 104.662 122.126 103.964 122.17 103.928C123.05 104.879 123.67 106.04 123.97 107.301H123.98Z" fill="#FAFAFA"/>
<path d="M126.209 114.213C126.408 113.625 126.666 113.058 126.979 112.521C127.234 111.954 127.546 111.415 127.912 110.912C127.712 111.501 127.455 112.069 127.145 112.608C126.888 113.173 126.574 113.711 126.209 114.213Z" fill="#FAFAFA"/>
<path d="M133.664 119.397C133.455 118.758 133.303 118.101 133.211 117.435C133.061 116.781 132.972 116.115 132.944 115.444C133.155 116.082 133.307 116.738 133.398 117.403C133.548 118.058 133.637 118.726 133.664 119.397Z" fill="#FAFAFA"/>
<path d="M120.125 115.599C119.664 115.228 119.23 114.825 118.825 114.393C118.377 114.005 117.953 113.589 117.558 113.147C118.075 113.447 118.545 113.821 118.955 114.256C119.406 114.647 119.8 115.099 120.125 115.599Z" fill="#FAFAFA"/>
<path d="M114.12 105.592C113.31 106.486 112.409 107.293 111.431 108C112.241 107.106 113.142 106.299 114.12 105.592Z" fill="#FAFAFA"/>
<path d="M111.758 102.675C111.359 102.233 111.007 101.75 110.707 101.235C110.358 100.748 110.058 100.227 109.814 99.6797C110.566 100.612 111.217 101.621 111.758 102.689V102.675Z" fill="#FAFAFA"/>
<path d="M102.6 107.701C102.116 107.161 101.679 106.58 101.293 105.966C100.858 105.388 100.473 104.774 100.145 104.13C100.629 104.668 101.065 105.248 101.448 105.861C101.886 106.439 102.271 107.055 102.6 107.701Z" fill="#FAFAFA"/>
<path d="M105.311 113.709C105.311 113.763 104.13 113.781 102.679 113.857C101.228 113.933 100.055 114.026 100.048 113.972C100.294 113.894 100.549 113.845 100.807 113.828C101.282 113.767 101.941 113.706 102.668 113.67C103.396 113.634 104.058 113.63 104.537 113.641C104.797 113.63 105.057 113.653 105.311 113.709Z" fill="#FAFAFA"/>
<path d="M105.977 96.2812C106.027 96.2812 105.822 97.1848 105.635 98.2936C105.448 99.4024 105.347 100.313 105.293 100.31C105.274 98.9364 105.506 97.5714 105.977 96.2812Z" fill="#FAFAFA"/>
<path d="M102.33 91.001C102.736 90.3565 103.193 89.7461 103.698 89.1758C104.154 88.5654 104.66 87.9934 105.21 87.4658C104.804 88.1103 104.347 88.7207 103.842 89.291C103.386 89.9015 102.88 90.4734 102.33 91.001Z" fill="#FAFAFA"/>
<path d="M98.6724 95.9257C98.6328 95.9617 97.7832 95.0977 96.66 94.1257C95.5368 93.1537 94.5792 92.3977 94.6116 92.3545C94.8541 92.4652 95.0805 92.6081 95.2848 92.7793C95.6844 93.0673 96.2208 93.4993 96.786 93.9853C97.3512 94.4713 97.83 94.9645 98.1684 95.3245C98.3623 95.5017 98.5318 95.7039 98.6724 95.9257Z" fill="#FAFAFA"/>
<path d="M92.5848 97.6387C92.61 97.6891 91.5408 98.2615 90.3564 99.1615C89.172 100.061 88.3296 100.933 88.2864 100.893C88.4287 100.666 88.6019 100.46 88.8012 100.281C89.2493 99.8227 89.7306 99.398 90.2412 99.0103C90.7533 98.6226 91.2936 98.2736 91.8576 97.9663C92.0831 97.8229 92.328 97.7126 92.5848 97.6387Z" fill="#FAFAFA"/>
<path d="M84.4165 102.693C84.3661 102.693 84.3733 101.718 84.3265 100.515C84.2797 99.3131 84.2005 98.3555 84.2545 98.3555C84.4262 99.0627 84.5132 99.7877 84.5137 100.515C84.5718 101.243 84.5391 101.974 84.4165 102.693Z" fill="#FAFAFA"/>
<path d="M90.4392 108.022C89.2801 107.193 88.1959 106.264 87.1992 105.246C87.7948 105.635 88.3549 106.076 88.8732 106.564C89.4392 107 89.9634 107.488 90.4392 108.022Z" fill="#FAFAFA"/>
<path d="M99.9613 100.39C99.2872 100.632 98.5934 100.815 97.8877 100.937C97.1945 101.121 96.486 101.242 95.7709 101.297C96.4461 101.055 97.1411 100.872 97.8481 100.75C98.5404 100.567 99.2476 100.447 99.9613 100.39Z" fill="#FAFAFA"/>
<path d="M118.634 102.859C118.312 102.655 118.025 102.399 117.785 102.103C117.497 101.849 117.254 101.548 117.065 101.214C117.387 101.42 117.673 101.677 117.914 101.973C118.201 102.228 118.444 102.527 118.634 102.859Z" fill="#FAFAFA"/>
<path d="M127.012 97.9951C126.698 98.4042 126.335 98.773 125.932 99.0931C125.567 99.4598 125.16 99.7813 124.718 100.051C125.399 99.2743 126.171 98.584 127.019 97.9951H127.012Z" fill="#FAFAFA"/>
<path d="M134.176 99.9791C134.125 99.9791 134.334 99.1511 134.536 98.1323C134.737 97.1135 134.802 96.2747 134.856 96.2783C134.908 96.9104 134.862 97.5468 134.719 98.1647C134.632 98.7938 134.449 99.4058 134.176 99.9791Z" fill="#FAFAFA"/>
<path d="M97.3692 111.56C97.1414 111.309 96.962 111.017 96.84 110.7C96.6643 110.41 96.5423 110.09 96.48 109.757C96.712 110.007 96.8952 110.299 97.02 110.617C97.1914 110.908 97.3097 111.228 97.3692 111.56Z" fill="#FAFAFA"/>
<path d="M110.268 112.064C110.038 111.693 109.86 111.292 109.739 110.873C109.559 110.473 109.438 110.05 109.379 109.616C109.61 109.987 109.786 110.388 109.904 110.808C110.086 111.207 110.209 111.63 110.268 112.064Z" fill="#FAFAFA"/>
<path d="M117.302 108.522C117.263 108.486 117.472 108.184 117.77 107.845C118.069 107.507 118.339 107.259 118.379 107.291C118.418 107.323 118.206 107.629 117.911 107.968C117.616 108.306 117.36 108.555 117.302 108.522Z" fill="#FAFAFA"/>
<path d="M102.848 131.069C102.486 130.57 102.213 130.012 102.042 129.42C101.814 128.847 101.692 128.237 101.682 127.62C101.736 127.62 101.902 128.412 102.229 129.359C102.557 130.306 102.899 131.04 102.848 131.069Z" fill="#FAFAFA"/>
<path d="M108.338 131.479C108.428 130.946 108.578 130.424 108.785 129.924C108.932 129.404 109.139 128.904 109.404 128.434C109.315 128.966 109.166 129.486 108.961 129.985C108.812 130.506 108.603 131.007 108.338 131.479Z" fill="#FAFAFA"/>
<path d="M106.736 137.718C106.39 137.262 106.096 136.769 105.858 136.249C105.562 135.756 105.321 135.232 105.138 134.687C105.482 135.144 105.776 135.638 106.013 136.159C106.308 136.652 106.55 137.174 106.736 137.718Z" fill="#FAFAFA"/>
<path d="M116.906 135.925C116.284 135.829 115.678 135.648 115.106 135.385C114.514 135.18 113.955 134.89 113.447 134.524C114.037 134.721 114.615 134.95 115.178 135.212C115.768 135.414 116.346 135.652 116.906 135.925Z" fill="#FAFAFA"/>
<path d="M113.616 132.224C113.591 132.177 114.228 131.763 114.948 131.173C115.668 130.582 116.208 130.046 116.248 130.093C115.564 131.015 114.659 131.75 113.616 132.231V132.224Z" fill="#FAFAFA"/>
<path d="M122.09 134.856C122.058 134.899 121.403 134.496 120.542 134.078C119.682 133.66 118.948 133.426 118.962 133.376C120.119 133.58 121.199 134.091 122.09 134.856Z" fill="#FAFAFA"/>
<path d="M123.898 138.239C123.862 138.2 124.355 137.696 124.898 137.015C125.442 136.335 125.824 135.745 125.87 135.773C125.681 136.274 125.4 136.736 125.042 137.134C124.734 137.571 124.345 137.946 123.898 138.239Z" fill="#FAFAFA"/>
<path d="M105.412 144.778C104.813 144.492 104.243 144.149 103.709 143.755C103.138 143.415 102.602 143.021 102.107 142.578C102.706 142.864 103.276 143.207 103.81 143.601C104.38 143.941 104.917 144.335 105.412 144.778Z" fill="#FAFAFA"/>
<path d="M112.298 143.078C112.32 143.129 111.578 143.456 110.74 144.003C109.901 144.551 109.3 145.083 109.26 145.055C110.059 144.115 111.115 143.428 112.298 143.078Z" fill="#FAFAFA"/>
<path d="M118.458 145.8C118.154 145.496 117.894 145.152 117.684 144.777C117.424 144.436 117.217 144.057 117.068 143.654C117.635 144.302 118.104 145.03 118.458 145.814V145.8Z" fill="#FAFAFA"/>
<path d="M125.881 143.348C125.903 143.398 125.204 143.729 124.412 144.244C123.62 144.759 123.026 145.252 122.972 145.212C123.341 144.758 123.79 144.376 124.297 144.086C124.774 143.741 125.311 143.491 125.881 143.348Z" fill="#FAFAFA"/>
<path d="M129.312 140.126C129.262 140.151 129.049 139.766 128.646 139.453C128.243 139.14 127.843 138.981 127.858 138.931C128.196 138.926 128.522 139.055 128.765 139.291C129.051 139.486 129.247 139.786 129.312 140.126Z" fill="#FAFAFA"/>
<path d="M133.2 143.834C132.823 144.133 132.409 144.382 131.969 144.576C131.555 144.821 131.113 145.015 130.651 145.152C131.027 144.851 131.441 144.602 131.882 144.41C132.295 144.161 132.738 143.967 133.2 143.834Z" fill="#FAFAFA"/>
<path d="M136.703 145.8C136.649 145.8 136.847 144.976 136.976 143.96C137.106 142.945 137.12 142.106 137.178 142.106C137.277 142.728 137.271 143.362 137.16 143.982C137.112 144.61 136.957 145.224 136.703 145.8Z" fill="#FAFAFA"/>
<path d="M136.148 139.55C136.116 139.597 135.389 139.104 134.392 138.711C133.394 138.319 132.53 138.179 132.538 138.121C133.201 138.125 133.855 138.267 134.46 138.539C135.088 138.752 135.664 139.097 136.148 139.55Z" fill="#FAFAFA"/>
<path d="M128.344 120.704C127.265 120.151 126.245 119.489 125.302 118.728C126.379 119.282 127.399 119.945 128.344 120.704Z" fill="#FAFAFA"/>
<g opacity="0.3">
<path d="M110.084 141.516C109.969 141.292 109.934 141.034 109.985 140.787C110.035 140.54 110.168 140.317 110.362 140.155C110.761 139.843 111.243 139.654 111.748 139.612C114.325 139.209 117.086 139.907 119.502 138.924C121.122 138.262 122.382 136.912 123.332 135.45C124.283 133.989 125.035 132.39 125.975 130.914C126.817 129.586 127.894 128.319 129.362 127.75C130.831 127.181 132.743 127.545 133.538 128.902C134.334 130.259 133.801 131.926 133.056 133.265C130.95 137.045 127.156 139.72 123.019 140.994C118.883 142.269 114.43 142.236 110.16 141.48" fill="black"/>
</g>
<path d="M161.132 130.381L157.115 116.046L140.576 118.184L142.513 125.787L117.778 119.189L112.32 126.432L149.868 144.162C151.589 144.896 153.493 145.087 155.326 144.71C157.159 144.333 158.833 143.406 160.124 142.052C162.428 139.619 162.151 133.582 161.132 130.381Z" fill="#FFBE9D"/>
<path d="M92.772 116.64C92.2176 116.492 91.548 116.374 91.1376 116.77C90.9755 116.961 90.8801 117.199 90.8658 117.449C90.8515 117.699 90.9191 117.947 91.0584 118.156C91.314 118.584 91.5084 118.645 92.1852 118.876L98.7696 120.37L101.29 118.397L92.772 116.64Z" fill="#EB996E"/>
<path d="M113.324 126.777C105.278 124.808 97.812 122.205 89.8632 120.693C89.4672 120.617 89.0208 120.513 88.812 120.164C88.5276 119.689 88.8948 119.044 89.4024 118.828C89.9326 118.664 90.497 118.646 91.0368 118.774C95.29 119.366 99.6133 119.22 103.817 118.342C106.542 117.77 109.217 116.902 111.967 116.542C114.718 116.182 115.459 117.622 117.778 119.17" fill="#FFBE9D"/>
<path d="M117.778 119.188C117.108 118.014 116.135 117.042 114.96 116.374C113.784 115.707 112.451 115.368 111.1 115.394C109.454 115.448 107.881 116.046 106.294 116.474C104.706 116.902 102.971 117.169 101.437 116.564C100.85 116.334 100.303 115.977 99.6768 115.891C99.0504 115.804 98.3016 116.11 98.19 116.73C98.1036 117.198 98.406 117.644 98.7336 117.993C99.8856 119.21 103.554 120.564 106.445 120.42" fill="#FFBE9D"/>
<path d="M106.445 120.423C106.445 120.394 106.002 120.423 105.217 120.344C104.113 120.227 103.026 119.986 101.977 119.624C101.248 119.382 100.545 119.068 99.8784 118.688C99.5103 118.484 99.1713 118.233 98.8704 117.939C98.71 117.802 98.5789 117.634 98.4848 117.446C98.3908 117.257 98.3358 117.051 98.3232 116.841C98.3618 116.631 98.4683 116.439 98.6264 116.295C98.7844 116.152 98.9852 116.064 99.198 116.045C99.6719 115.991 100.151 116.088 100.566 116.322C101.035 116.566 101.529 116.76 102.038 116.902C102.571 117.029 103.119 117.082 103.666 117.06C105.894 116.985 107.813 116.06 109.634 115.71C110.49 115.517 111.373 115.47 112.244 115.574C113.002 115.675 113.74 115.89 114.433 116.211C115.443 116.68 116.339 117.361 117.061 118.209C117.565 118.814 117.781 119.206 117.781 119.192C117.748 119.09 117.701 118.993 117.641 118.904C117.494 118.634 117.323 118.378 117.13 118.14C116.429 117.245 115.531 116.523 114.505 116.031C113.797 115.687 113.039 115.455 112.259 115.343C111.363 115.226 110.453 115.263 109.57 115.455C107.705 115.815 105.79 116.708 103.644 116.78C103.121 116.799 102.598 116.748 102.089 116.628C101.597 116.492 101.121 116.305 100.667 116.07C100.199 115.816 99.662 115.715 99.1332 115.782C98.8682 115.828 98.6199 115.942 98.4132 116.114C98.3084 116.204 98.2226 116.314 98.1608 116.437C98.099 116.561 98.0624 116.696 98.0532 116.834C98.0638 117.081 98.1252 117.323 98.2336 117.545C98.342 117.768 98.495 117.965 98.6832 118.126C99.0052 118.434 99.3688 118.696 99.7632 118.904C100.45 119.285 101.173 119.595 101.923 119.829C102.996 120.18 104.109 120.396 105.235 120.473C105.541 120.492 105.848 120.492 106.153 120.473C106.252 120.468 106.35 120.451 106.445 120.423Z" fill="#EB996E"/>
<path d="M149.879 128.073C149.879 128.073 149.85 128.073 149.796 128.048L149.562 127.965L148.712 127.655C147.992 127.396 146.992 127.054 145.879 126.705C144.767 126.356 143.748 126.068 142.999 125.873L142.124 125.647L141.883 125.585C141.829 125.585 141.8 125.56 141.804 125.557H141.887L142.132 125.603C142.34 125.647 142.643 125.715 143.014 125.805C143.759 125.992 144.778 126.269 145.894 126.619C147.01 126.968 148.007 127.321 148.723 127.591C149.083 127.727 149.368 127.843 149.566 127.925L149.792 128.023L149.879 128.073Z" fill="#EB996E"/>
<path d="M118.8 98.5064C121.067 98.4089 123.209 97.4397 124.778 95.801C126.348 94.1623 127.224 91.9807 127.224 89.7116V79.2716L127.8 45.914L127.055 44.0348L109.487 38.4908C104.087 38.0696 100.458 45.4964 100.267 50.9108C100.055 56.93 100.033 64.2848 100.868 68.7452C102.546 77.7164 109.487 78.674 109.487 78.674L109.624 89.834C109.64 91.0111 109.892 92.173 110.365 93.251C110.839 94.3289 111.523 95.3009 112.379 96.1095C113.235 96.9182 114.244 97.5469 115.347 97.9586C116.45 98.3703 117.624 98.5566 118.8 98.5064Z" fill="#FFBE9D"/>
<path d="M102.6 56.7605C102.606 57.0624 102.729 57.3501 102.943 57.5625C103.158 57.775 103.447 57.8954 103.748 57.8981C103.896 57.9049 104.043 57.8822 104.182 57.8313C104.321 57.7805 104.448 57.7025 104.556 57.602C104.664 57.5014 104.752 57.3803 104.813 57.2458C104.874 57.1112 104.907 56.9658 104.911 56.8181C104.905 56.5169 104.781 56.2301 104.567 56.0185C104.352 55.8068 104.064 55.6869 103.763 55.6841C103.615 55.6764 103.468 55.6983 103.329 55.7486C103.19 55.7988 103.062 55.8764 102.954 55.9768C102.846 56.0771 102.758 56.1982 102.698 56.3328C102.637 56.4674 102.604 56.6129 102.6 56.7605Z" fill="#263238"/>
<path d="M101.963 54.6336C102.11 54.7812 102.971 54.108 104.213 54.0756C105.455 54.0432 106.373 54.6408 106.517 54.486C106.582 54.4176 106.427 54.1476 106.02 53.8704C105.473 53.5116 104.827 53.3317 104.173 53.3556C103.521 53.3678 102.89 53.5886 102.373 53.9856C102.013 54.2916 101.88 54.5688 101.963 54.6336Z" fill="#263238"/>
<path d="M114.656 56.7605C114.662 57.0617 114.785 57.3489 114.998 57.5613C115.212 57.7736 115.5 57.8944 115.801 57.8981C115.949 57.9059 116.097 57.8839 116.236 57.8334C116.375 57.7829 116.503 57.705 116.611 57.6043C116.72 57.5035 116.807 57.382 116.867 57.247C116.928 57.112 116.961 56.9661 116.964 56.8181C116.959 56.517 116.837 56.2296 116.623 56.0177C116.409 55.8057 116.12 55.686 115.819 55.6841C115.672 55.6764 115.524 55.6983 115.385 55.7486C115.246 55.7988 115.119 55.8764 115.01 55.9768C114.902 56.0771 114.815 56.1982 114.754 56.3328C114.693 56.4674 114.66 56.6129 114.656 56.7605Z" fill="#263238"/>
<path d="M114.196 54.5291C114.343 54.6731 115.204 54.0035 116.446 53.9711C117.688 53.9387 118.606 54.5363 118.75 54.3815C118.811 54.3131 118.66 54.0431 118.253 53.7659C117.705 53.4074 117.06 53.2276 116.406 53.2511C115.754 53.2632 115.123 53.484 114.606 53.8811C114.246 54.1871 114.12 54.4607 114.196 54.5291Z" fill="#263238"/>
<path d="M109.937 63.8746C109.937 63.8062 109.163 63.691 107.906 63.565C107.59 63.5434 107.287 63.4894 107.226 63.2734C107.19 62.946 107.255 62.6154 107.413 62.3266C107.69 61.549 107.978 60.7354 108.284 59.8822C109.494 56.401 110.362 53.5462 110.221 53.4958C110.081 53.4454 108.983 56.2318 107.777 59.7094L106.942 62.1682C106.834 62.5282 106.636 62.9458 106.812 63.4174C106.861 63.5286 106.934 63.6271 107.028 63.7052C107.121 63.7833 107.23 63.8388 107.348 63.8674C107.525 63.9119 107.707 63.9324 107.888 63.9286C109.152 63.961 109.933 63.9466 109.937 63.8746Z" fill="#263238"/>
<path d="M109.483 78.6167C113.729 78.5639 117.876 77.3338 121.464 75.0635C121.464 75.0635 118.706 81.3347 109.663 80.7407L109.483 78.6167Z" fill="#EB996E"/>
<path d="M113.738 49.6793C113.872 50.0141 115.11 49.8197 116.572 49.9565C118.033 50.0933 119.228 50.4569 119.416 50.1473C119.495 49.9997 119.282 49.6865 118.796 49.3733C118.151 48.9892 117.426 48.7572 116.678 48.6948C115.929 48.6324 115.177 48.7413 114.476 49.0133C113.944 49.2293 113.684 49.5029 113.738 49.6793Z" fill="#263238"/>
<path d="M102.323 51.019C102.55 51.2962 103.403 50.9794 104.429 50.9362C105.455 50.893 106.337 51.0766 106.528 50.7742C106.61 50.6266 106.466 50.3494 106.078 50.0938C105.561 49.7766 104.958 49.6304 104.353 49.6762C103.748 49.7042 103.167 49.9193 102.69 50.2918C102.334 50.5906 102.24 50.8858 102.323 51.019Z" fill="#263238"/>
<path d="M106.387 39.1064C106.805 41.9271 107.923 44.5982 109.638 46.8759C111.354 49.1536 113.612 50.9653 116.208 52.1456C116.052 51.4256 115.898 50.7056 115.747 49.9856C117.972 53.6648 122.695 56.7464 125.734 57.992C126.673 58.3772 127.876 58.0316 128.729 57.4844C129.924 56.7212 129.996 55.0076 129.744 53.6108C128.963 49.2404 126.371 45.3308 122.994 42.4508C119.617 39.5708 115.499 37.6484 111.24 36.3596C110.113 36.0176 109.498 35.7836 108.382 36.1616C107.266 36.5396 105.804 37.8104 106.344 38.8544" fill="#263238"/>
<path d="M124.308 51.3717C126.886 60.6057 123.476 70.8693 124.355 80.4165C124.549 82.5441 125.323 85.0065 127.116 86.1765C128.002 86.7525 128.196 86.3889 129.215 86.5905C131.818 87.0945 134.276 86.0037 136.876 86.5077C139.223 86.9649 142.956 88.3077 144.436 86.4249C145.915 84.5421 144.209 82.3281 142.762 80.4849C141.314 78.6417 139.37 77.0649 138.658 74.8293C137.887 72.4281 138.719 69.8505 139.079 67.3521C140.31 58.8237 137.279 50.1837 132.239 43.1889C130.482 40.7517 127.832 38.4441 125.449 36.6117C123.066 34.7793 117.677 33.2349 114.674 33.3717C111.672 33.5085 106.672 35.8917 105.448 39.2577" fill="#263238"/>
<path d="M114.34 46.1017C114.322 46.1341 114.52 46.2673 114.901 46.4869L115.582 46.8829L115.002 46.3285C113.591 45.0152 112.386 43.497 111.427 41.8249C109.627 38.7253 109.354 35.7553 109.21 35.7913C109.163 35.7913 109.163 36.5329 109.4 37.7029C109.722 39.2199 110.278 40.6775 111.049 42.0229C112.008 43.749 113.311 45.2588 114.88 46.4581L114.984 46.2997C114.577 46.1485 114.354 46.0801 114.34 46.1017Z" fill="#455A64"/>
<path d="M130.68 84.5208C130.697 84.3231 130.697 84.1244 130.68 83.9268C130.68 83.538 130.68 82.9656 130.698 82.2276C130.818 80.1499 131.124 78.0872 131.612 76.0643C132.167 73.4867 133.085 70.4664 133.636 66.9888C133.921 65.1664 134.009 63.3185 133.898 61.4772C133.802 59.4774 133.301 57.518 132.426 55.7172C131.516 53.9301 130.182 52.3927 128.542 51.2388C126.994 50.0904 125.377 49.2047 123.901 48.2831C121.273 46.6666 118.855 44.732 116.701 42.5232C115.257 41.0278 113.933 39.4208 112.741 37.7171C112.32 37.1123 112 36.6371 111.787 36.3095C111.685 36.1364 111.564 35.9746 111.427 35.8271C111.503 36.0113 111.594 36.1884 111.701 36.3563C111.884 36.7163 112.187 37.1915 112.586 37.7963C113.736 39.5482 115.038 41.195 116.478 42.7176C118.616 44.9826 121.036 46.9644 123.678 48.6143C125.161 49.5503 126.767 50.4432 128.275 51.57C129.857 52.6849 131.144 54.1674 132.026 55.89C132.873 57.6354 133.363 59.5326 133.466 61.47C133.579 63.2816 133.501 65.1 133.232 66.8952C132.71 70.3296 131.821 73.3751 131.303 75.9635C130.836 78.0073 130.575 80.0924 130.522 82.1879C130.512 82.7575 130.534 83.3271 130.586 83.8943C130.593 84.1061 130.624 84.3164 130.68 84.5208Z" fill="#455A64"/>
<path d="M100.26 43.3977C99.9398 45.7264 99.7523 48.0714 99.6985 50.4213C101.52 48.9525 103.36 47.4513 104.738 45.5541C106.117 43.6569 106.978 41.2845 106.618 38.9697C105.299 39.3577 104.105 40.0864 103.157 41.0824C102.209 42.0784 101.54 43.3066 101.218 44.6433" fill="#263238"/>
<path d="M109.544 68.0936C109.854 67.4888 109.937 67.334 110.462 67.046C110.861 66.9454 111.272 66.9042 111.683 66.9236C112.082 66.9452 112.349 67.3412 112.496 67.712C112.738 68.2482 112.772 68.8547 112.594 69.4148C112.385 69.9584 110.498 70.61 109.483 69.1808" fill="#EB996E"/>
<path d="M111.096 70.1281C111.199 70.1215 111.303 70.1215 111.406 70.1281C111.679 70.1151 111.942 70.0211 112.162 69.8581C112.46 69.5867 112.653 69.218 112.705 68.8177C112.747 68.5797 112.729 68.3349 112.652 68.1059C112.574 67.8769 112.44 67.671 112.262 67.5073C111.873 67.2018 111.389 67.0425 110.894 67.0573C110.696 67.065 110.501 67.1149 110.323 67.2036C110.144 67.2924 109.987 67.418 109.861 67.5721C109.694 67.7897 109.583 68.046 109.541 68.3173C109.533 68.4212 109.514 68.5238 109.483 68.6233C109.454 68.5204 109.448 68.4122 109.465 68.3065C109.485 68.0135 109.586 67.7319 109.757 67.4929C109.88 67.3289 110.034 67.1907 110.21 67.0861C110.417 66.9657 110.649 66.8965 110.887 66.8845C111.145 66.8747 111.403 66.9075 111.65 66.9817C111.916 67.055 112.162 67.1866 112.37 67.3669C112.589 67.5562 112.746 67.8072 112.82 68.0869C112.894 68.3382 112.908 68.6034 112.86 68.8609C112.815 69.0886 112.736 69.3082 112.626 69.5125C112.512 69.7376 112.334 69.9239 112.114 70.0482C111.894 70.1724 111.643 70.229 111.391 70.2109C111.288 70.2078 111.186 70.1793 111.096 70.1281Z" fill="#263238"/>
<path d="M115.376 60.9443C115.409 60.9839 115.29 61.1207 115.081 61.1459C114.872 61.1711 114.721 61.0595 114.75 61.0163C114.779 60.9731 114.908 60.9767 115.06 60.9587C115.211 60.9407 115.344 60.9011 115.376 60.9443Z" fill="#EB996E"/>
<path d="M117.36 60.8398C117.31 60.8398 117.241 60.7426 117.212 60.6022C117.184 60.4618 117.194 60.3358 117.245 60.325C117.295 60.3142 117.364 60.4186 117.396 60.5626C117.428 60.7066 117.425 60.8398 117.36 60.8398Z" fill="#EB996E"/>
<path d="M119.768 60.0409C119.768 60.0913 119.632 60.1057 119.491 60.0769C119.351 60.0481 119.243 59.9761 119.254 59.9257C119.264 59.8753 119.39 59.8609 119.531 59.8933C119.671 59.9257 119.779 59.9905 119.768 60.0409Z" fill="#EB996E"/>
<path d="M116.406 62.9458C116.356 62.9458 116.312 62.8306 116.312 62.6902C116.312 62.5498 116.356 62.4346 116.406 62.4346C116.456 62.4346 116.5 62.5462 116.5 62.6902C116.5 62.8342 116.456 62.9458 116.406 62.9458Z" fill="#EB996E"/>
<path d="M118.57 61.9775C118.519 61.9775 118.476 61.9523 118.476 61.9199C118.476 61.8875 118.519 61.8623 118.57 61.8623C118.62 61.8623 118.663 61.8875 118.663 61.9199C118.663 61.9523 118.624 61.9775 118.57 61.9775Z" fill="#EB996E"/>
<path d="M103.075 61.2937C103.075 61.3441 102.895 61.3801 102.715 61.2937C102.535 61.2073 102.424 61.0453 102.463 61.0129C102.503 60.9805 102.632 61.0525 102.791 61.1245C102.949 61.1965 103.079 61.2397 103.075 61.2937Z" fill="#EB996E"/>
<path d="M104.684 60.9552C104.658 60.9454 104.636 60.9256 104.624 60.9C104.612 60.8744 104.61 60.8451 104.62 60.8184C104.638 60.7572 104.688 60.714 104.738 60.7284C104.765 60.7381 104.787 60.7579 104.799 60.7835C104.811 60.8091 104.813 60.8384 104.803 60.8652C104.801 60.8789 104.797 60.8922 104.79 60.9042C104.783 60.9162 104.774 60.9267 104.763 60.9351C104.752 60.9435 104.739 60.9496 104.726 60.953C104.712 60.9565 104.698 60.9572 104.684 60.9552Z" fill="#EB996E"/>
<path d="M103.824 63.2877C103.774 63.2877 103.72 63.2085 103.705 63.1005C103.691 62.9925 103.705 62.8953 103.77 62.8881C103.835 62.8809 103.874 62.9637 103.892 63.0753C103.91 63.1869 103.878 63.2805 103.824 63.2877Z" fill="#EB996E"/>
<path d="M101.707 63.1723C101.664 63.1435 101.682 63.0463 101.743 62.9491C101.804 62.8519 101.894 62.8015 101.938 62.8303C101.981 62.8591 101.963 62.9599 101.902 63.0535C101.84 63.1471 101.75 63.2011 101.707 63.1723Z" fill="#EB996E"/>
<path d="M93.636 143.752V160.456C93.6358 161.859 93.3009 163.241 92.6591 164.488C92.0173 165.735 91.0872 166.812 89.946 167.627C88.4518 168.693 86.6622 169.266 84.8268 169.265H62.5068C60.8357 169.266 59.1987 168.792 57.7872 167.897L57.0168 167.4C55.7644 166.607 54.7323 165.51 54.0162 164.212C53.3001 162.914 52.9231 161.456 52.92 159.974V143.752H93.636Z" fill="#263238"/>
<path d="M52.92 147.773H41.6052V149.739L48.1392 150.743C49.095 150.877 50.0016 151.25 50.7746 151.827C51.5475 152.405 52.1617 153.169 52.56 154.048C52.7891 154.559 52.9116 155.112 52.92 155.672C52.92 155.672 55.224 155.636 55.6164 152.882C55.6164 152.828 55.6344 152.774 55.6416 152.72C55.7715 151.725 55.5843 150.714 55.1067 149.831C54.6291 148.948 53.8854 148.238 52.9812 147.802L52.92 147.773Z" fill="#455A64"/>
<path d="M93.636 147.788H104.958V149.761L98.424 150.765C97.465 150.898 96.5553 151.271 95.7802 151.851C95.0051 152.431 94.3899 153.198 93.9924 154.081C93.7633 154.592 93.6408 155.144 93.6324 155.704C93.6324 155.704 91.332 155.668 90.936 152.918L90.9144 152.752C90.7845 151.757 90.9717 150.746 91.4493 149.863C91.9269 148.981 92.6707 148.271 93.5748 147.835L93.636 147.788Z" fill="#455A64"/>
<path d="M93.636 147.788C93.5836 147.827 93.5282 147.862 93.4704 147.892C93.306 147.98 93.1473 148.079 92.9952 148.187C92.4161 148.592 91.9331 149.119 91.5804 149.732C91.0294 150.677 90.8269 151.785 91.008 152.864C91.0829 153.523 91.3439 154.147 91.7604 154.664C92.2385 155.212 92.9139 155.55 93.6396 155.603L93.5532 155.686C93.5624 155.02 93.7263 154.366 94.032 153.774C94.3414 153.141 94.7733 152.576 95.3028 152.111C95.8592 151.62 96.5027 151.238 97.2 150.984C97.9217 150.749 98.6662 150.591 99.4212 150.513L104.954 149.667L104.879 149.753C104.879 149.08 104.879 148.425 104.879 147.788L104.965 147.874L96.8112 147.842L94.482 147.816H93.8592C93.7874 147.825 93.715 147.825 93.6432 147.816H93.8556H94.4712L96.7932 147.791L104.965 147.759H105.052V147.845C105.052 148.482 105.052 149.138 105.052 149.811V149.89H104.976L99.4428 150.743C98.7001 150.821 97.9677 150.977 97.2576 151.208C96.5857 151.45 95.9653 151.816 95.4288 152.288C94.9243 152.713 94.5127 153.238 94.2198 153.829C93.9268 154.421 93.7587 155.066 93.726 155.726V155.816H93.6432C93.2601 155.788 92.8863 155.685 92.5438 155.511C92.2013 155.338 91.897 155.097 91.6488 154.804C91.2176 154.266 90.9502 153.614 90.8784 152.928C90.7028 151.82 90.9233 150.686 91.5012 149.724C91.8674 149.106 92.3713 148.58 92.9736 148.187C93.1312 148.083 93.296 147.991 93.4668 147.91C93.5191 147.864 93.5758 147.823 93.636 147.788Z" fill="#263238"/>
<path d="M92.9088 144.198C92.8802 144.22 92.8487 144.239 92.8152 144.252L92.5344 144.393L91.4544 144.922L90.666 145.3C90.3744 145.433 90.0468 145.555 89.7012 145.696C89.0064 145.969 88.2288 146.319 87.3288 146.592L85.9284 147.06C85.4388 147.219 84.9168 147.337 84.384 147.485C83.322 147.798 82.1592 148.011 80.9424 148.263C78.2823 148.723 75.5888 148.964 72.8892 148.983C70.1895 148.966 67.4958 148.725 64.836 148.263C63.6192 148.014 62.4564 147.798 61.3944 147.489C60.8616 147.337 60.3396 147.219 59.85 147.06L58.4496 146.596C57.5496 146.322 56.772 145.973 56.0736 145.703C55.7136 145.559 55.404 145.437 55.1124 145.307L54.324 144.929L53.244 144.4L52.9632 144.259L52.8732 144.205C52.9085 144.212 52.9425 144.224 52.974 144.241L53.262 144.364C53.5248 144.486 53.8956 144.652 54.3636 144.861L55.1592 145.221C55.4508 145.347 55.7784 145.462 56.124 145.602C56.8224 145.861 57.6 146.203 58.5036 146.466L59.904 146.92C60.39 147.075 60.912 147.19 61.4412 147.334C62.5032 147.64 63.6624 147.845 64.8792 148.09C67.5291 148.545 70.2114 148.785 72.9 148.81C75.5886 148.786 78.2708 148.545 80.9208 148.09C82.1376 147.845 83.2968 147.636 84.3588 147.33C84.888 147.186 85.41 147.071 85.896 146.916L87.2964 146.463C88.1964 146.2 88.9776 145.858 89.6724 145.595C90.0324 145.458 90.3456 145.339 90.6408 145.217L91.4328 144.857L92.52 144.36L92.808 144.234L92.9088 144.198Z" fill="#455A64"/>
<path d="M92.9341 145.581C92.9341 145.581 92.9053 145.603 92.8405 145.635L92.5597 145.779L91.4797 146.308L90.6913 146.668C90.3997 146.798 90.0721 146.92 89.7301 147.064C89.0317 147.338 88.2541 147.687 87.3541 147.961L85.9537 148.425C85.4641 148.583 84.9457 148.702 84.4129 148.853C83.3329 149.167 82.1845 149.379 80.9677 149.631C78.3088 150.092 75.6165 150.332 72.9181 150.351C70.2184 150.333 67.5249 150.092 64.8649 149.631C63.6445 149.379 62.4817 149.167 61.4197 148.853C60.8869 148.706 60.3649 148.587 59.8753 148.429L58.4749 147.964C57.5749 147.691 56.7973 147.341 56.1025 147.068C55.7425 146.927 55.4293 146.805 55.1377 146.672L54.3601 146.315L53.2801 145.786L52.9993 145.646C52.9345 145.613 52.9021 145.595 52.9057 145.592L53.0065 145.628L53.2945 145.754L54.3961 146.251L55.1917 146.611C55.4869 146.733 55.8109 146.852 56.1601 146.989C56.8549 147.251 57.6361 147.59 58.5361 147.856L59.9365 148.306C60.4225 148.461 60.9445 148.576 61.4773 148.72C62.5357 149.026 63.6985 149.235 64.9117 149.48C67.5628 149.934 70.2463 150.175 72.9361 150.2C75.6247 150.177 78.3071 149.936 80.9569 149.48C82.1701 149.235 83.3293 149.03 84.3913 148.724C84.9205 148.58 85.4425 148.465 85.9321 148.31L87.3289 147.856C88.2325 147.59 89.0101 147.251 89.7085 146.989C90.0685 146.852 90.3817 146.733 90.6733 146.607L91.4689 146.247L92.5705 145.75L92.8585 145.628L92.9341 145.581Z" fill="#455A64"/>
<path d="M85.2552 169.783C88.2252 169.323 89.7516 167.703 90.6156 164.823C90.9327 163.934 90.9567 162.968 90.684 162.065C90.3672 161.187 89.5248 160.449 88.5888 160.485C87.4584 160.531 86.652 161.601 86.1912 162.645C85.7304 163.689 85.3884 164.844 84.4992 165.546C83.61 166.248 81.9432 166.039 81.7524 164.92C81.7505 164.623 81.7191 164.328 81.6588 164.038C81.4068 163.361 80.334 163.397 79.8588 163.948C79.3836 164.499 79.3692 165.291 79.3908 166.014C79.4124 166.738 79.4376 167.515 79.0308 168.117C78.4296 169.013 77.1732 169.114 76.0932 169.121L69.714 169.182C69.714 169.182 70.794 169.711 73.6524 169.711C77.5332 169.701 85.2552 169.783 85.2552 169.783Z" fill="#FF725E"/>
<path d="M72.918 169.172C70.7832 169.208 68.5188 169.212 66.6972 168.092C65.5452 167.39 64.5804 166.26 63.2484 166.058C62.8664 165.979 62.4685 166.048 62.136 166.252C61.974 166.357 61.8534 166.515 61.7949 166.699C61.7365 166.883 61.7438 167.081 61.8156 167.26C61.2252 167.037 60.7752 166.566 60.2676 166.18C59.76 165.795 59.1012 165.518 58.5108 165.745C58.2099 165.89 57.9688 166.135 57.8289 166.439C57.6891 166.742 57.659 167.085 57.744 167.408C57.8447 167.726 58.0121 168.019 58.2349 168.267C58.4578 168.516 58.731 168.714 59.0364 168.848C59.6498 169.114 60.2985 169.29 60.9624 169.37L76.3236 169.662C76.32 169.273 72.918 169.172 72.918 169.172Z" fill="#FF725E"/>
<path d="M60.9301 170.255L60.9625 169.409L85.2553 169.784V170.255H60.9301Z" fill="#455A64"/>
<path d="M83.7036 160.456C83.4163 159.975 83.2539 159.429 83.2313 158.869C83.2086 158.309 83.3264 157.752 83.574 157.249C83.7936 156.813 84.2436 156.381 84.708 156.529C85.1724 156.676 85.266 157.249 85.2552 157.709C85.23 158.714 84.5064 160.744 83.7036 160.449" fill="#FF725E"/>
<path d="M69.48 130.32C69.5016 130.32 69.4584 130.493 69.48 130.803C69.5217 131.239 69.6373 131.665 69.822 132.063C70.1148 132.658 70.3429 133.283 70.5024 133.928C70.6154 134.757 70.4067 135.598 69.9192 136.278C69.4584 137.016 68.9076 137.625 68.5476 138.262C68.3721 138.559 68.2354 138.877 68.1408 139.209C68.0681 139.497 68.0474 139.795 68.0796 140.091C68.1154 140.525 68.2968 140.935 68.5944 141.254C68.7146 141.359 68.8408 141.458 68.9724 141.549C68.9724 141.549 68.9292 141.549 68.85 141.509C68.7396 141.456 68.6367 141.388 68.544 141.308C68.2101 140.991 67.9985 140.566 67.9464 140.109C67.9019 139.795 67.9178 139.476 67.9932 139.169C68.0833 138.819 68.2201 138.482 68.4 138.168C68.76 137.51 69.3144 136.89 69.7608 136.17C70.2255 135.529 70.4312 134.736 70.3368 133.949C70.1835 133.316 69.9714 132.699 69.7032 132.106C69.5242 131.693 69.4253 131.249 69.4116 130.799C69.4113 130.678 69.4246 130.557 69.4512 130.439C69.4543 130.398 69.4641 130.358 69.48 130.32Z" fill="#263238"/>
<path d="M73.2673 129.996C73.2889 129.996 73.2421 130.169 73.2673 130.479C73.3108 130.915 73.4263 131.341 73.6093 131.739C73.9018 132.335 74.1311 132.96 74.2933 133.603C74.4034 134.433 74.1936 135.274 73.7065 135.954C73.2457 136.692 72.6985 137.301 72.3349 137.938C72.1596 138.235 72.0241 138.553 71.9317 138.885C71.856 139.173 71.8341 139.474 71.8669 139.77C71.9043 140.203 72.0855 140.611 72.3817 140.93C72.5019 141.035 72.6281 141.134 72.7597 141.225C72.7597 141.225 72.7165 141.225 72.6409 141.185C72.528 141.134 72.4236 141.066 72.3313 140.983C71.9984 140.666 71.7881 140.242 71.7373 139.785C71.6933 139.472 71.708 139.153 71.7805 138.845C71.8698 138.497 72.0067 138.162 72.1873 137.852C72.5473 137.193 73.0981 136.574 73.5481 135.857C74.0118 135.214 74.2162 134.419 74.1205 133.632C73.9704 132.999 73.7582 132.381 73.4869 131.789C73.3079 131.376 73.209 130.932 73.1953 130.482C73.195 130.361 73.2083 130.24 73.2349 130.122C73.2457 130.036 73.2601 129.993 73.2673 129.996Z" fill="#263238"/>
<path d="M77.04 129.68C77.0616 129.68 77.0184 129.852 77.04 130.162C77.0899 130.6 77.2115 131.027 77.4 131.426C77.6918 132.02 77.9199 132.644 78.0804 133.287C78.1905 134.117 77.9807 134.957 77.4936 135.638C77.0328 136.376 76.4856 136.984 76.1256 137.621C75.9493 137.918 75.8126 138.236 75.7188 138.568C75.6442 138.857 75.6234 139.157 75.6576 139.454C75.694 139.886 75.874 140.294 76.1688 140.613C76.2897 140.719 76.4172 140.818 76.5504 140.908C76.5504 140.908 76.5036 140.908 76.428 140.868C76.3161 140.816 76.2119 140.748 76.1184 140.667C75.7855 140.35 75.5752 139.925 75.5244 139.468C75.4804 139.155 75.4951 138.836 75.5676 138.528C75.6595 138.182 75.7962 137.849 75.9744 137.538C76.3344 136.876 76.8888 136.257 77.3352 135.54C77.7982 134.897 78.0037 134.103 77.9112 133.316C77.7584 132.682 77.545 132.065 77.274 131.472C77.0967 131.059 76.9978 130.616 76.9824 130.166C76.9829 130.044 76.9974 129.924 77.0256 129.806C77.0184 129.719 77.04 129.68 77.04 129.68Z" fill="#263238"/>
<path d="M24.48 170.384C24.48 170.384 19.6272 146.678 24.48 133.506H29.88C29.88 133.506 34.002 147.398 29.88 170.384H24.48Z" fill="#FF725E"/>
<g opacity="0.7">
<path d="M24.48 170.384C24.48 170.384 19.6272 146.678 24.48 133.506H29.88C29.88 133.506 34.002 147.398 29.88 170.384H24.48Z" fill="white"/>
</g>
<path d="M28.458 121.201C29.351 119.673 30.6251 118.402 32.1558 117.513C33.6865 116.624 35.4215 116.147 37.1916 116.129C36.356 117.799 35.0556 119.193 33.4469 120.142C31.8381 121.091 29.9894 121.555 28.1232 121.479" fill="#455A64"/>
<path d="M29.7936 111.32C28.5679 110.04 27.6953 108.465 27.2611 106.747C26.827 105.03 26.8462 103.229 27.3168 101.521C28.6939 102.782 29.6767 104.415 30.1468 106.223C30.6169 108.031 30.5542 109.936 29.9664 111.709" fill="#455A64"/>
<path d="M24.9407 111.459C23.491 110.874 22.22 109.919 21.2548 108.689C20.2895 107.459 19.6638 105.998 19.4399 104.45C21.0067 104.966 22.3887 105.928 23.4158 107.219C24.443 108.51 25.0706 110.072 25.2215 111.715" fill="#455A64"/>
<path d="M23.6123 100.933C23.3665 99.8201 23.4169 98.6622 23.7587 97.575C24.1005 96.4878 24.7216 95.5093 25.5599 94.7373C25.8959 95.8939 25.8865 97.1235 25.5328 98.2748C25.1791 99.4261 24.4965 100.449 23.5691 101.217" fill="#455A64"/>
<path d="M27.3599 130.454C27.4722 129.32 27.88 128.235 28.5427 127.307C29.2054 126.38 30.0997 125.643 31.1363 125.169C31.097 126.371 30.7071 127.536 30.0143 128.52C29.3216 129.504 28.3565 130.263 27.2375 130.706" fill="#455A64"/>
<path d="M21.4847 91.0117C21.4847 91.0117 22.4567 94.6441 23.5907 100.609L24.0227 102.953C24.1703 103.767 24.2963 104.62 24.4403 105.502C24.7391 107.259 24.9839 109.152 25.2575 111.139C25.7507 115.125 26.1791 119.517 26.4419 124.143C26.7047 128.769 26.7407 133.186 26.6831 137.2C26.6291 139.209 26.5931 141.117 26.4887 142.899C26.4383 143.788 26.4095 144.652 26.3519 145.476C26.2943 146.301 26.2331 147.096 26.1755 147.852C25.7003 153.907 25.1315 157.619 25.1315 157.619C25.1315 157.619 25.1315 157.561 25.1315 157.446L25.1999 156.96C25.2503 156.507 25.3187 155.855 25.4087 155.016C25.4555 154.595 25.5095 154.127 25.5635 153.612C25.6175 153.097 25.6643 152.532 25.7183 151.942C25.8191 150.739 25.9631 149.375 26.0531 147.863C26.1035 147.102 26.1575 146.31 26.2151 145.487C26.2691 144.659 26.2943 143.799 26.3375 142.909C26.4383 141.127 26.4671 139.223 26.5175 137.218C26.5643 133.207 26.5175 128.794 26.2619 124.171C26.0063 119.549 25.5743 115.171 25.0919 111.179C24.8255 109.192 24.5879 107.302 24.2927 105.541C24.1523 104.663 24.0299 103.81 23.8859 102.993C23.7419 102.175 23.6015 101.398 23.4683 100.649C23.2127 99.1549 22.9211 97.8121 22.6907 96.6313C22.5683 96.0409 22.4567 95.4901 22.3559 94.9861C22.2551 94.4821 22.1399 94.0213 22.0463 93.6073L21.6287 91.6993C21.5819 91.4869 21.5495 91.3393 21.5207 91.2025C21.4919 91.0657 21.4847 91.0117 21.4847 91.0117Z" fill="#263238"/>
<path d="M33.4188 99.6514C33.4135 99.6958 33.4026 99.7393 33.3864 99.781C33.3576 99.871 33.3216 99.9934 33.2712 100.141L32.8176 101.545L32.4828 102.56C32.3712 102.92 32.2488 103.338 32.1228 103.773C31.8672 104.648 31.5504 105.635 31.2624 106.747C31.1148 107.301 30.9564 107.881 30.7944 108.486C30.6324 109.091 30.492 109.724 30.33 110.379C29.9988 111.686 29.7144 113.097 29.4012 114.581C28.818 117.554 28.2816 120.845 27.8892 124.322C27.4968 127.8 27.324 131.13 27.2448 134.161C27.2448 135.677 27.198 137.117 27.2448 138.463C27.2448 139.136 27.2448 139.788 27.2844 140.414C27.324 141.041 27.3384 141.638 27.3636 142.214C27.3996 143.363 27.4968 144.396 27.5544 145.303C27.5904 145.757 27.6192 146.181 27.648 146.57C27.6768 146.959 27.7236 147.312 27.7524 147.65C27.8136 148.28 27.8604 148.773 27.8928 149.119C27.8928 149.281 27.9144 149.407 27.9252 149.504C27.9284 149.547 27.9284 149.591 27.9252 149.634C27.913 149.591 27.9046 149.548 27.9 149.504C27.9 149.411 27.8712 149.285 27.8532 149.126C27.81 148.766 27.7524 148.287 27.6768 147.657L27.558 146.595C27.522 146.207 27.486 145.785 27.4464 145.332C27.378 144.421 27.2736 143.388 27.2268 142.239C27.198 141.667 27.1656 141.066 27.1368 140.439C27.108 139.813 27.1008 139.161 27.0828 138.488C27.0396 137.138 27.0828 135.695 27.0828 134.168C27.1512 131.133 27.3384 127.796 27.7128 124.311C28.0872 120.827 28.6488 117.533 29.2428 114.555C29.5632 113.072 29.8512 111.675 30.1896 110.354C30.3552 109.699 30.4992 109.062 30.6648 108.457C30.8304 107.852 30.9924 107.276 31.1472 106.722C31.4424 105.613 31.7664 104.627 32.0328 103.755C32.1696 103.32 32.2992 102.917 32.4144 102.542C32.5296 102.168 32.6592 101.822 32.7744 101.534C32.9868 100.937 33.1344 100.454 33.264 100.137C33.3216 99.9862 33.3648 99.8674 33.3972 99.7774C33.3994 99.7347 33.4067 99.6924 33.4188 99.6514Z" fill="#263238"/>
<path d="M32.6339 102.333C31.4531 101.34 31.3811 99.4893 31.9607 98.0601C32.5403 96.6309 33.6311 95.4825 34.5419 94.2369C35.4527 92.9913 36.2267 91.5009 36.0179 89.9745C35.93 89.6217 35.9044 89.2561 35.9423 88.8945C36.0179 88.5345 36.3743 88.1997 36.7235 88.3077C37.0727 88.4157 37.1591 88.7685 37.2239 89.0853C37.4257 90.0713 37.4863 91.081 37.4039 92.0841C37.6401 91.5003 38.0059 90.9779 38.4737 90.5563C38.9414 90.1347 39.4989 89.825 40.1039 89.6505C40.234 90.2375 40.2138 90.8478 40.0451 91.4249C39.8765 92.002 39.5648 92.5271 39.1391 92.9517C39.9203 92.6277 40.7555 92.2929 41.5871 92.4549C42.4187 92.6169 43.1603 93.4953 42.8471 94.2837C42.4871 95.1765 41.2739 95.1945 40.3271 95.3637C39.2677 95.557 38.3111 96.1195 37.6271 96.9513C36.7703 97.9953 36.4283 99.3597 35.7335 100.519C35.0387 101.678 33.7103 102.679 32.4287 102.268" fill="#F754BB"/>
<path d="M22.5 95.0113C23.8068 94.1977 24.138 92.3725 23.7636 90.8785C23.3892 89.3845 22.4748 88.0921 21.7476 86.7313C21.0204 85.3705 20.4624 83.7865 20.8836 82.3033C21.023 81.9597 21.0998 81.5939 21.1104 81.2233C21.0852 80.8633 20.7828 80.4745 20.4192 80.5321C20.0556 80.5897 19.9224 80.9281 19.8144 81.2521C19.4758 82.1989 19.2745 83.1894 19.2168 84.1933C19.0655 83.5816 18.7767 83.0124 18.3725 82.5289C17.9683 82.0455 17.4592 81.6605 16.884 81.4033C16.6727 81.9665 16.6071 82.574 16.6933 83.1694C16.7796 83.7648 17.0148 84.3287 17.3772 84.8089C16.6572 84.3769 15.8652 83.9305 15.0228 83.9737C14.1804 84.0169 13.32 84.7837 13.518 85.6045C13.7412 86.5405 14.958 86.7313 15.8616 87.0445C16.8825 87.3869 17.7504 88.0776 18.3132 88.9957C19.0116 90.1477 19.1628 91.5481 19.6848 92.7937C20.2068 94.0393 21.384 95.2237 22.7124 94.9897" fill="#F754BB"/>
<path d="M20.9556 112.835C21.0098 112.907 21.0546 112.986 21.0888 113.069L21.4488 113.753C21.6 114.052 21.78 114.419 21.9708 114.855C22.1616 115.29 22.3992 115.776 22.6224 116.331C22.8456 116.885 23.1012 117.486 23.3424 118.149C23.5836 118.811 23.832 119.517 24.0876 120.265C24.57 121.77 25.0416 123.448 25.4412 125.226C25.8408 127.005 26.1108 128.729 26.3052 130.299C26.3916 131.083 26.4816 131.832 26.5248 132.534C26.568 133.236 26.6148 133.888 26.64 134.485C26.6652 135.083 26.6688 135.623 26.676 136.098C26.6832 136.573 26.676 136.98 26.676 137.315C26.676 137.65 26.64 137.88 26.64 138.085C26.64 138.291 26.64 138.352 26.6184 138.352C26.6084 138.262 26.6084 138.171 26.6184 138.082C26.6184 137.891 26.6184 137.635 26.6184 137.315C26.6184 136.995 26.6184 136.573 26.5968 136.098C26.5752 135.623 26.5752 135.087 26.532 134.493C26.4888 133.899 26.4636 133.243 26.3952 132.545C26.3268 131.847 26.2512 131.105 26.1612 130.32C25.956 128.758 25.6716 127.044 25.2864 125.28C24.9012 123.516 24.4188 121.835 23.9472 120.33C23.6988 119.581 23.4684 118.869 23.2272 118.213C22.986 117.558 22.752 116.946 22.5288 116.392C22.3056 115.837 22.0932 115.344 21.9096 114.909C21.726 114.473 21.5496 114.099 21.4164 113.796L21.0996 113.094C21.0434 113.013 20.9952 112.926 20.9556 112.835Z" fill="#263238"/>
<path d="M21.8484 116.302C22.5 115.772 22.5684 114.764 22.2516 113.983C21.9348 113.202 21.366 112.565 20.88 111.877C20.394 111.19 19.9872 110.372 20.1132 109.544C20.1638 109.351 20.1808 109.15 20.1636 108.95C20.124 108.752 19.9332 108.569 19.7424 108.623C19.5516 108.677 19.5012 108.871 19.4616 109.044C19.3435 109.579 19.3023 110.128 19.3392 110.675C19.2172 110.355 19.0241 110.068 18.7746 109.834C18.5252 109.6 18.2259 109.426 17.8992 109.325C17.8243 109.642 17.8306 109.974 17.9174 110.288C18.0042 110.603 18.1688 110.891 18.396 111.125C17.9895 110.901 17.5269 110.8 17.064 110.833C16.614 110.912 16.2 111.388 16.344 111.816C16.5312 112.309 17.1936 112.327 17.7084 112.428C18.2831 112.546 18.7988 112.86 19.1664 113.317C19.6236 113.893 19.8 114.638 20.1672 115.276C20.5344 115.913 21.2472 116.474 21.9672 116.258" fill="#F754BB"/>
</svg>
