<svg width="218" height="182" viewBox="0 0 218 182" fill="none" xmlns="http://www.w3.org/2000/svg">
<g clip-path="url(#clip0_109_764)">
<path d="M141.911 179.965L101.074 106.673C101.062 106.493 101.006 106.32 100.911 106.167C100.816 106.014 100.685 105.887 100.528 105.797C100.349 105.695 100.145 105.646 99.9385 105.655C99.932 105.654 99.9253 105.655 99.9187 105.655C99.912 105.655 99.9053 105.654 99.8988 105.655C99.6194 105.642 99.3458 105.737 99.1351 105.92C98.9245 106.103 98.7932 106.36 98.7687 106.638L55.4866 179.965C55.4144 180.089 55.3676 180.226 55.3487 180.368C55.3298 180.511 55.3393 180.655 55.3766 180.794C55.4138 180.933 55.4782 181.063 55.566 181.177C55.6537 181.29 55.7632 181.386 55.8881 181.458C56.0129 181.53 56.1508 181.576 56.2938 181.595C56.4367 181.614 56.582 181.604 56.7213 181.567C56.8606 181.53 56.9911 181.466 57.1055 181.378C57.2198 181.291 57.3158 181.182 57.3878 181.057L99.8895 109.053L140.01 181.057C140.082 181.182 140.178 181.291 140.292 181.378C140.407 181.466 140.537 181.53 140.677 181.567C140.816 181.604 140.961 181.614 141.104 181.595C141.247 181.576 141.385 181.53 141.51 181.458C141.635 181.386 141.744 181.29 141.832 181.177C141.92 181.063 141.984 180.933 142.021 180.794C142.059 180.655 142.068 180.511 142.049 180.368C142.03 180.226 141.984 180.089 141.911 179.965Z" fill="#8F8F8F"/>
<path d="M93.1518 167.39L97.7678 166.336L95.8795 148.111L89.0668 149.667L93.1518 167.39Z" fill="#FFB6B6"/>
<path d="M96.7206 158.586L90.1515 160.086L88.0511 156L87.9322 155.856C87.0005 154.717 86.4833 153.298 86.4649 151.83L81.005 137.453L80.5586 137.242C80.2132 137.079 79.9069 136.844 79.66 136.553C79.4131 136.262 79.2314 135.922 79.127 135.556C79.0225 135.19 78.9978 134.806 79.0544 134.429C79.111 134.053 79.2477 133.692 79.4553 133.373L78.8772 131.851L62.5672 131.881L62.551 131.876L42.5225 126.283L44.6255 113.805L50.2595 117.332C52.1159 117.213 83.9177 115.269 86.8556 122.363C89.4718 128.681 93.2418 139.474 95.9438 147.416C96.0785 147.772 96.246 148.116 96.4441 148.442C96.8644 149.086 97.1111 149.827 97.1605 150.594C97.1923 150.928 97.2563 151.258 97.3514 151.579C98.4744 154.921 96.7635 158.498 96.7461 158.534L96.7206 158.586Z" fill="#282828"/>
<path d="M91.5923 165.866L93.0931 165.523L98.4058 161.813L102.093 163.468L102.093 163.468C103.868 163.063 105.732 163.376 107.274 164.338C108.817 165.301 109.913 166.834 110.32 168.601L110.37 168.817L93.1776 172.744L91.5923 165.866Z" fill="#282828"/>
<path d="M23.4385 166.276C23.9078 161.191 26.9 156.1 31.6992 154.296C29.9538 159.571 30.1387 165.289 32.2213 170.441C33.0317 172.424 34.1406 174.547 33.5045 176.593C33.1088 177.866 32.0723 178.863 30.8985 179.504C29.7246 180.144 28.4095 180.473 27.1107 180.797L26.8602 181.017C24.6335 176.417 22.9692 171.36 23.4385 166.276Z" fill="#89AC46"/>
<path d="M31.7504 154.391C29.0263 157.633 27.3978 161.647 27.096 165.863C27.0148 166.769 27.0777 167.683 27.2823 168.569C27.5097 169.427 27.9636 170.208 28.5969 170.832C29.1757 171.426 29.8368 171.966 30.2605 172.689C30.4719 173.063 30.6016 173.476 30.6411 173.903C30.6806 174.33 30.629 174.76 30.4898 175.166C30.1691 176.186 29.4996 177.03 28.8161 177.832C28.0571 178.724 27.2546 179.638 26.9571 180.797C26.9211 180.937 26.7043 180.873 26.7403 180.733C27.2578 178.716 29.1695 177.519 30.0406 175.69C30.4471 174.837 30.5976 173.856 30.1625 172.983C29.7821 172.219 29.1009 171.661 28.5097 171.065C27.8829 170.465 27.4131 169.722 27.1414 168.9C26.8921 168.027 26.794 167.117 26.8512 166.211C26.9474 164.168 27.3657 162.153 28.0907 160.239C28.9059 158.051 30.0913 156.017 31.5954 154.227C31.6886 154.116 31.8429 154.281 31.7504 154.391Z" fill="white"/>
<path d="M27.1129 164.499C26.4092 164.353 25.7806 163.962 25.3396 163.397C24.8985 162.832 24.6736 162.129 24.705 161.414C24.7066 161.385 24.7195 161.358 24.7409 161.338C24.7624 161.318 24.7907 161.307 24.82 161.308C24.8494 161.308 24.8773 161.32 24.8981 161.341C24.9188 161.361 24.9306 161.389 24.9312 161.418C24.9007 162.084 25.1102 162.739 25.522 163.264C25.9338 163.789 26.5207 164.151 27.1768 164.283C27.3194 164.312 27.2546 164.528 27.1129 164.499Z" fill="white"/>
<path d="M28.2637 170.57C29.5006 169.78 30.3931 168.555 30.763 167.139C30.7995 166.999 31.0163 167.063 30.9799 167.203C30.5921 168.675 29.6608 169.948 28.3718 170.767C28.2489 170.845 28.1414 170.647 28.2637 170.57Z" fill="white"/>
<path d="M29.1225 158.257C29.3829 158.37 29.6675 158.417 29.9507 158.394C30.2338 158.37 30.5067 158.277 30.7448 158.123C30.8667 158.043 30.974 158.242 30.8529 158.321C30.5891 158.49 30.2876 158.592 29.9748 158.619C29.662 158.645 29.3474 158.595 29.0586 158.473C29.0304 158.464 29.0068 158.444 28.9926 158.418C28.9784 158.392 28.9746 158.362 28.9821 158.333C28.9907 158.305 29.0103 158.281 29.0366 158.266C29.0629 158.252 29.0937 158.249 29.1225 158.257Z" fill="white"/>
<path d="M46.7817 162.87C46.707 162.921 46.6324 162.973 46.5576 163.027C45.5573 163.729 44.6159 164.51 43.7427 165.363C43.6741 165.428 43.6056 165.495 43.5391 165.562C41.4573 167.64 39.7813 170.085 38.5962 172.772C38.1255 173.842 37.7374 174.946 37.435 176.074C37.0175 177.632 36.6894 179.355 35.8052 180.647C35.7145 180.783 35.6154 180.913 35.5085 181.037L27.1494 181.304C27.1301 181.295 27.1108 181.288 27.0914 181.279L26.7581 181.305C26.7696 181.246 26.7828 181.185 26.7944 181.125C26.8009 181.091 26.8093 181.056 26.8158 181.022C26.8208 180.999 26.8258 180.976 26.829 180.955C26.8306 180.947 26.8323 180.94 26.834 180.934C26.8371 180.913 26.8423 180.894 26.8455 180.875C26.9184 180.532 26.9939 180.19 27.0719 179.847C27.0719 179.845 27.0719 179.845 27.0737 179.843C27.6431 177.226 28.5224 174.686 29.6931 172.276C29.7291 172.204 29.7648 172.131 29.8045 172.059C30.3482 170.991 30.9787 169.97 31.6896 169.004C32.0805 168.476 32.4981 167.969 32.9406 167.484C34.0865 166.231 35.423 165.166 36.9013 164.328C39.8486 162.656 43.3001 161.942 46.5352 162.802C46.6179 162.824 46.6989 162.846 46.7817 162.87Z" fill="#89AC46"/>
<path d="M46.7663 162.976C42.6304 163.932 38.9022 166.161 36.1114 169.346C35.4983 170.021 34.996 170.788 34.6229 171.619C34.2858 172.44 34.1756 173.336 34.304 174.213C34.4071 175.034 34.608 175.862 34.5089 176.693C34.4519 177.118 34.3052 177.526 34.0786 177.89C33.852 178.255 33.5506 178.568 33.1941 178.808C32.3214 179.43 31.2763 179.703 30.2449 179.934C29.0998 180.191 27.9063 180.439 26.9678 181.187C26.8541 181.277 26.7196 181.096 26.8332 181.006C28.466 179.706 30.7165 179.896 32.5184 178.957C33.3592 178.519 34.0725 177.827 34.2534 176.869C34.4116 176.031 34.2051 175.177 34.0934 174.347C33.9556 173.493 34.0301 172.618 34.3104 171.798C34.6397 170.951 35.1115 170.166 35.7055 169.477C37.0179 167.903 38.5706 166.545 40.3068 165.452C42.2814 164.193 44.4578 163.28 46.7417 162.752C46.8831 162.719 46.9068 162.943 46.7663 162.976Z" fill="white"/>
<path d="M36.9494 168.268C36.476 167.729 36.2105 167.04 36.2001 166.325C36.1898 165.609 36.4353 164.913 36.8928 164.361C36.9858 164.25 37.164 164.389 37.0709 164.5C36.6439 165.013 36.4153 165.662 36.4263 166.328C36.4373 166.994 36.6873 167.635 37.131 168.134C37.2273 168.242 37.0451 168.376 36.9494 168.268Z" fill="white"/>
<path d="M34.1966 173.804C35.662 173.915 37.1154 173.472 38.2671 172.563C38.3811 172.473 38.5157 172.654 38.4018 172.744C37.2015 173.687 35.688 174.145 34.1634 174.027C34.018 174.016 34.052 173.793 34.1966 173.804Z" fill="white"/>
<path d="M42.3295 164.488C42.469 164.735 42.6678 164.943 42.908 165.094C43.1483 165.245 43.4224 165.334 43.7059 165.353C43.8513 165.363 43.8171 165.586 43.6727 165.576C43.3596 165.553 43.0569 165.454 42.7911 165.288C42.5253 165.122 42.3044 164.893 42.1478 164.622C42.1309 164.598 42.1239 164.568 42.1283 164.539C42.1326 164.51 42.148 164.483 42.1713 164.465C42.1954 164.447 42.2256 164.44 42.2552 164.444C42.2848 164.448 42.3115 164.464 42.3295 164.488Z" fill="white"/>
<path d="M160.201 166.276C159.731 161.191 156.739 156.1 151.94 154.296C153.686 159.571 153.501 165.289 151.418 170.441C150.608 172.424 149.499 174.547 150.135 176.593C150.531 177.866 151.567 178.863 152.741 179.504C153.915 180.144 155.23 180.473 156.529 180.797L156.779 181.017C159.006 176.417 160.67 171.36 160.201 166.276Z" fill="#89AC46"/>
<path d="M151.889 154.391C154.613 157.633 156.242 161.647 156.543 165.863C156.624 166.769 156.562 167.683 156.357 168.569C156.13 169.427 155.676 170.208 155.042 170.832C154.464 171.426 153.803 171.966 153.379 172.689C153.167 173.063 153.038 173.476 152.998 173.903C152.959 174.33 153.01 174.76 153.15 175.166C153.47 176.186 154.14 177.03 154.823 177.832C155.582 178.724 156.385 179.638 156.682 180.797C156.718 180.937 156.935 180.873 156.899 180.733C156.382 178.716 154.47 177.519 153.599 175.69C153.192 174.837 153.042 173.856 153.477 172.983C153.857 172.219 154.538 171.661 155.13 171.065C155.756 170.465 156.226 169.722 156.498 168.9C156.747 168.027 156.845 167.117 156.788 166.211C156.692 164.168 156.274 162.153 155.549 160.239C154.733 158.051 153.548 156.017 152.044 154.227C151.951 154.116 151.796 154.281 151.889 154.391Z" fill="white"/>
<path d="M156.526 164.499C157.23 164.353 157.859 163.962 158.3 163.397C158.741 162.832 158.966 162.129 158.934 161.414C158.933 161.385 158.92 161.358 158.898 161.338C158.877 161.318 158.849 161.307 158.819 161.308C158.79 161.308 158.762 161.32 158.741 161.341C158.721 161.361 158.709 161.389 158.708 161.418C158.739 162.084 158.529 162.739 158.117 163.264C157.705 163.789 157.119 164.151 156.462 164.283C156.32 164.312 156.385 164.528 156.526 164.499Z" fill="white"/>
<path d="M155.376 170.57C154.139 169.78 153.246 168.555 152.876 167.139C152.84 166.999 152.623 167.063 152.659 167.203C153.047 168.675 153.978 169.948 155.268 170.767C155.39 170.845 155.498 170.647 155.376 170.57Z" fill="white"/>
<path d="M154.517 158.257C154.256 158.37 153.972 158.417 153.689 158.394C153.406 158.37 153.133 158.277 152.895 158.123C152.773 158.043 152.665 158.242 152.786 158.321C153.05 158.49 153.352 158.592 153.665 158.619C153.977 158.645 154.292 158.595 154.581 158.473C154.609 158.464 154.633 158.444 154.647 158.418C154.661 158.392 154.665 158.362 154.657 158.333C154.649 158.305 154.629 158.281 154.603 158.266C154.576 158.252 154.546 158.249 154.517 158.257Z" fill="white"/>
<path d="M136.858 162.87C136.932 162.921 137.007 162.973 137.082 163.027C138.082 163.729 139.023 164.51 139.897 165.363C139.965 165.428 140.034 165.495 140.1 165.562C142.182 167.64 143.858 170.085 145.043 172.772C145.514 173.842 145.902 174.946 146.204 176.074C146.622 177.632 146.95 179.355 147.834 180.647C147.925 180.783 148.024 180.913 148.131 181.037L156.49 181.304C156.509 181.295 156.529 181.288 156.548 181.279L156.881 181.305C156.87 181.246 156.857 181.185 156.845 181.125C156.838 181.091 156.83 181.056 156.824 181.022C156.819 180.999 156.814 180.976 156.81 180.955C156.809 180.947 156.807 180.94 156.805 180.934C156.802 180.913 156.797 180.894 156.794 180.875C156.721 180.532 156.645 180.19 156.567 179.847C156.568 179.845 156.568 179.845 156.566 179.843C155.996 177.226 155.117 174.686 153.946 172.276C153.91 172.204 153.875 172.131 153.835 172.059C153.291 170.991 152.661 169.97 151.95 169.004C151.559 168.476 151.141 167.969 150.699 167.484C149.553 166.231 148.216 165.166 146.738 164.328C143.791 162.656 140.339 161.942 137.104 162.802C137.021 162.824 136.94 162.846 136.858 162.87Z" fill="#89AC46"/>
<path d="M136.873 162.976C141.009 163.932 144.737 166.161 147.528 169.346C148.141 170.021 148.643 170.788 149.016 171.619C149.354 172.44 149.464 173.336 149.335 174.213C149.232 175.034 149.031 175.862 149.13 176.693C149.187 177.118 149.334 177.526 149.561 177.89C149.787 178.255 150.089 178.568 150.445 178.808C151.318 179.43 152.363 179.703 153.394 179.934C154.54 180.191 155.733 180.439 156.672 181.187C156.785 181.277 156.92 181.096 156.806 181.006C155.173 179.706 152.923 179.896 151.121 178.957C150.28 178.519 149.567 177.827 149.386 176.869C149.228 176.031 149.434 175.177 149.546 174.347C149.684 173.493 149.609 172.618 149.329 171.798C149 170.951 148.528 170.166 147.934 169.477C146.621 167.903 145.069 166.545 143.333 165.452C141.358 164.193 139.182 163.28 136.898 162.752C136.756 162.719 136.733 162.943 136.873 162.976Z" fill="white"/>
<path d="M146.69 168.268C147.163 167.729 147.429 167.04 147.439 166.325C147.45 165.609 147.204 164.913 146.747 164.361C146.654 164.25 146.475 164.389 146.568 164.5C146.995 165.013 147.224 165.662 147.213 166.328C147.202 166.994 146.952 167.635 146.508 168.134C146.412 168.242 146.594 168.376 146.69 168.268Z" fill="white"/>
<path d="M149.443 173.804C147.977 173.915 146.524 173.472 145.372 172.563C145.258 172.473 145.124 172.654 145.238 172.744C146.438 173.687 147.951 174.145 149.476 174.027C149.621 174.016 149.587 173.793 149.443 173.804Z" fill="white"/>
<path d="M141.31 164.488C141.17 164.735 140.972 164.943 140.731 165.094C140.491 165.245 140.217 165.334 139.933 165.353C139.788 165.363 139.822 165.586 139.967 165.576C140.28 165.553 140.582 165.454 140.848 165.288C141.114 165.122 141.335 164.893 141.492 164.622C141.508 164.598 141.515 164.568 141.511 164.539C141.507 164.51 141.491 164.483 141.468 164.465C141.444 164.447 141.414 164.44 141.384 164.444C141.355 164.448 141.328 164.464 141.31 164.488Z" fill="white"/>
<path d="M218 181.711C218 181.787 217.969 181.861 217.915 181.915C217.86 181.969 217.787 182 217.71 182H0.290405C0.213418 182 0.139582 181.969 0.0851435 181.915C0.0307049 181.861 0.00012207 181.787 0.00012207 181.711C0.00012207 181.634 0.0307049 181.561 0.0851435 181.506C0.139582 181.452 0.213418 181.422 0.290405 181.422H217.71C217.787 181.422 217.86 181.453 217.915 181.507C217.969 181.561 218 181.634 218 181.711Z" fill="#3F3D56"/>
<path d="M140.046 69.932C140.652 69.932 141.144 69.4427 141.144 68.8393C141.144 68.2358 140.652 67.7466 140.046 67.7466C139.44 67.7466 138.948 68.2358 138.948 68.8393C138.948 69.4427 139.44 69.932 140.046 69.932Z" fill="#3F3D56"/>
<path d="M126.301 77.2557L141.099 68.0008C141.233 67.9171 141.383 67.8612 141.539 67.8366C141.695 67.812 141.855 67.8191 142.008 67.8576C142.161 67.8961 142.305 67.9651 142.431 68.0605C142.557 68.1559 142.662 68.2757 142.74 68.4126C142.818 68.5495 142.867 68.7008 142.884 68.8572C142.902 69.0136 142.888 69.1719 142.842 69.3226C142.796 69.4733 142.721 69.6132 142.619 69.734C142.518 69.8547 142.393 69.9537 142.252 70.025L126.672 77.9081C126.586 77.9519 126.485 77.9608 126.392 77.9329C126.3 77.9051 126.221 77.8426 126.173 77.7586C126.125 77.6746 126.112 77.5754 126.136 77.4817C126.159 77.388 126.218 77.3071 126.301 77.2557Z" fill="#E4E4E4"/>
<path d="M96.6111 97.1836C96.4945 97.0111 96.4337 96.8072 96.4367 96.5993C96.4397 96.3915 96.5064 96.1895 96.628 96.0204C96.8785 95.6866 97.2119 95.4234 97.5955 95.2567C98.3873 94.8555 99.2402 94.5872 100.12 94.4626C100.788 94.3681 101.518 94.338 102.036 93.9076C102.552 93.48 102.839 92.6804 103.506 92.6137C104.151 92.5492 104.647 93.2522 105.294 93.2958C106.092 93.3496 106.614 92.4205 107.39 92.2299C107.91 92.1024 108.444 92.3275 108.931 92.5475L111.855 93.868L113.354 94.5449C113.877 94.7813 114.468 95.0997 114.567 95.6634C114.702 96.438 113.837 96.9845 113.097 97.2595C107.813 99.2006 102.007 99.2013 96.723 97.2615" fill="#DE6109"/>
<path d="M101.016 111.454C122.235 111.454 139.436 109.008 139.436 105.99C139.436 102.973 122.235 100.527 101.016 100.527C79.7977 100.527 62.5966 102.973 62.5966 105.99C62.5966 109.008 79.7977 111.454 101.016 111.454Z" fill="#8F8F8F"/>
<path d="M178.954 139.864H152.609C151.396 139.864 150.413 140.842 150.413 142.049C150.413 143.256 151.396 144.235 152.609 144.235H178.954C180.166 144.235 181.149 143.256 181.149 142.049C181.149 140.842 180.166 139.864 178.954 139.864Z" fill="#333333"/>
<path d="M191.721 100.901L183.02 142.046L185.286 152.578L189.565 172.452V181.386C189.565 181.398 189.564 181.41 189.562 181.422C189.561 181.619 189.525 181.815 189.455 182H186.016C185.946 181.815 185.91 181.619 185.908 181.422C185.906 181.41 185.905 181.398 185.906 181.386V172.836L182.022 154.797L181.237 151.155L179.717 144.096L179.278 142.051V142.049L179.712 140L180.046 138.419L188.14 100.153C188.189 99.9187 188.284 99.6964 188.42 99.4987C188.555 99.3011 188.729 99.1319 188.93 99.001C189.131 98.87 189.356 98.7798 189.593 98.7356C189.829 98.6913 190.071 98.6938 190.307 98.7429C190.542 98.792 190.765 98.8869 190.964 99.0219C191.162 99.157 191.332 99.3297 191.463 99.5301C191.595 99.7305 191.685 99.9547 191.729 100.19C191.773 100.425 191.771 100.667 191.721 100.901Z" fill="#333333"/>
<path d="M154.438 142.049V181.386C154.439 181.398 154.438 181.41 154.436 181.422C154.434 181.62 154.398 181.815 154.328 182H150.889C150.819 181.815 150.783 181.62 150.782 181.422C150.78 181.41 150.779 181.398 150.779 181.386V142.049C150.779 141.566 150.972 141.103 151.315 140.761C151.658 140.42 152.123 140.228 152.609 140.228C153.094 140.228 153.559 140.42 153.902 140.761C154.245 141.103 154.438 141.566 154.438 142.049Z" fill="#333333"/>
<path d="M157 135.493H174.563C176.31 135.493 177.985 136.183 179.22 137.413C180.455 138.642 181.149 140.31 181.149 142.049H150.413C150.413 140.31 151.107 138.642 152.342 137.413C153.577 136.183 155.253 135.493 157 135.493Z" fill="#333333"/>
<path d="M183.345 154.797H152.609C152.123 154.797 151.658 154.605 151.315 154.264C150.972 153.922 150.779 153.459 150.779 152.976C150.779 152.493 150.972 152.03 151.315 151.688C151.658 151.347 152.123 151.155 152.609 151.155H183.345C183.83 151.155 184.295 151.347 184.638 151.688C184.981 152.03 185.174 152.493 185.174 152.976C185.174 153.459 184.981 153.922 184.638 154.264C184.295 154.605 183.83 154.797 183.345 154.797Z" fill="#333333"/>
<path d="M40.3763 144.301H71.3783C72.5907 144.301 73.5737 143.322 73.5737 142.115V141.453C73.5737 140.246 72.5907 139.268 71.3783 139.268H40.3763C39.1638 139.268 38.1809 140.246 38.1809 141.453V142.115C38.1809 143.322 39.1638 144.301 40.3763 144.301Z" fill="#333333"/>
<path d="M40.057 141.813L39.4959 144.115L37.4371 152.546L36.5492 156.188L32.4266 173.084V180.414C32.4277 180.773 32.3207 181.124 32.1193 181.422C31.961 181.663 31.7458 181.861 31.4924 182H29.7019C29.4486 181.861 29.2333 181.663 29.075 181.422C28.8736 181.124 28.7665 180.773 28.7676 180.414V172.646L33.3488 153.877L36.3053 141.755L26.2795 94.3447C26.2299 94.1107 26.2271 93.8692 26.2713 93.6341C26.3155 93.3991 26.4058 93.175 26.537 92.9746C26.6683 92.7743 26.8379 92.6017 27.0362 92.4667C27.2345 92.3317 27.4576 92.2369 27.6927 92.1878C27.9279 92.1386 28.1704 92.1361 28.4065 92.1803C28.6426 92.2246 28.8677 92.3147 29.0688 92.4455C29.2699 92.5764 29.4431 92.7454 29.5785 92.943C29.7139 93.1405 29.8089 93.3627 29.858 93.5968L39.1252 137.409L39.5521 139.429L40.0496 141.784L40.057 141.813Z" fill="#333333"/>
<path d="M72.8761 141.785V180.415C72.8772 180.774 72.7701 181.125 72.5687 181.422C72.4104 181.663 72.1951 181.862 71.9418 182H70.1488C69.8967 181.861 69.6824 181.662 69.5244 181.422C69.323 181.125 69.216 180.773 69.217 180.415V141.785C69.217 141.302 69.4098 140.838 69.7529 140.497C70.096 140.155 70.5613 139.963 71.0466 139.963C71.5318 139.963 71.9971 140.155 72.3402 140.497C72.6833 140.838 72.8761 141.302 72.8761 141.785Z" fill="#333333"/>
<path d="M73.5736 141.784H38.1809V140.791C38.1809 139.93 38.3512 139.077 38.6822 138.282C39.0132 137.486 39.4983 136.764 40.1099 136.155C40.7215 135.546 41.4476 135.063 42.2467 134.734C43.0458 134.404 43.9022 134.235 44.7671 134.235H66.9874C68.7342 134.235 70.4094 134.925 71.6446 136.155C72.8798 137.384 73.5737 139.052 73.5737 140.791L73.5736 141.784Z" fill="#333333"/>
<path d="M71.0456 156.188H35.6528C35.1676 156.188 34.7023 155.996 34.3592 155.654C34.0161 155.313 33.8233 154.85 33.8233 154.367C33.8233 153.884 34.0161 153.42 34.3592 153.079C34.7023 152.737 35.1676 152.545 35.6528 152.545H71.0456C71.5308 152.545 71.9962 152.737 72.3393 153.079C72.6824 153.42 72.8751 153.884 72.8751 154.367C72.8751 154.85 72.6824 155.313 72.3393 155.654C71.9962 155.996 71.5308 156.188 71.0456 156.188Z" fill="#333333"/>
<path d="M116.531 172.074L112.686 170.243L117.968 154.244L123.643 156.946L116.531 172.074Z" fill="#9E616A"/>
<path d="M142.59 170.625L138.456 171.64L132.465 155.894L138.568 154.395L142.59 170.625Z" fill="#9E616A"/>
<path d="M126.743 102.534C127.291 103.421 128.166 104.059 129.181 104.312C130.195 104.566 131.269 104.414 132.173 103.89C132.355 103.781 132.527 103.657 132.688 103.519L144.845 110.463L144.317 103.335L132.854 97.8328C132.23 97.2091 131.416 96.8091 130.539 96.6954C129.663 96.5817 128.773 96.7609 128.009 97.2047C127.57 97.4674 127.187 97.815 126.885 98.2271C126.582 98.6391 126.366 99.1072 126.248 99.6038C126.13 100.1 126.113 100.616 126.198 101.119C126.283 101.622 126.468 102.103 126.743 102.534Z" fill="#9E616A"/>
<path d="M139.619 107.849L141.768 109.152L151.419 115.01C152.052 115.405 152.758 115.672 153.496 115.795C154.233 115.918 154.988 115.895 155.717 115.728C156.445 115.56 157.134 115.252 157.742 114.819C158.351 114.387 158.868 113.839 159.264 113.208C159.979 112.036 160.231 110.642 159.974 109.295L155.684 87.9631C155.526 87.1257 155.188 86.3322 154.693 85.6369C154.198 84.9415 153.558 84.3608 152.817 83.9343C152.076 83.5078 151.251 83.2456 150.398 83.1657C149.546 83.0858 148.686 83.19 147.878 83.4713C146.52 83.9464 145.395 84.9188 144.731 86.1907C144.067 87.4625 143.915 88.9383 144.306 90.3176L148.791 105.457L141.916 102.266L139.619 107.849Z" fill="#3F3D56"/>
<path d="M134.538 166.212L127.921 153.003L127.922 152.973L128.575 128.745C128.584 128.53 128.601 128.313 128.627 128.1C128.743 127.129 129.051 126.19 129.535 125.338C130.019 124.487 130.668 123.74 131.444 123.14C132.188 122.561 133.041 122.135 133.952 121.887C134.863 121.639 135.814 121.574 136.751 121.696L155.671 124.133L156.327 121.462L156.449 121.418L174.577 114.805L174.681 114.974C177.055 118.819 178.715 126.501 179.167 128.763L179.174 128.796C179.183 128.843 179.189 128.872 179.191 128.881C180.124 132.742 176.268 139.138 172.427 140.099C164.335 142.152 157.099 140.551 148.72 138.696C145.715 138.031 142.61 137.343 139.19 136.749L139.291 138.753C139.375 140.295 139.696 141.815 140.246 143.26C140.855 145.038 141.337 146.443 140.318 149.371L139.826 150.787C140.081 151.49 140.169 152.243 140.083 152.986C139.996 153.729 139.737 154.441 139.327 155.068L139.228 155.218L143.591 166.209L134.538 166.212Z" fill="#282828"/>
<path d="M123.667 160.37L115.777 159.64L118.572 150.742C119.149 144.931 120.602 139.241 122.883 133.862L126.696 124.867C126.705 124.667 126.722 124.466 126.746 124.268C126.862 123.297 127.17 122.358 127.654 121.506C128.137 120.655 128.787 119.908 129.563 119.308C130.307 118.729 131.16 118.303 132.071 118.055C132.982 117.807 133.933 117.742 134.87 117.864L153.761 120.298L154.584 113.423L172.717 111.008L172.8 111.142C175.969 116.275 177.982 120.294 179.132 123.789C179.19 123.967 179.241 124.149 179.285 124.33C180.225 128.217 177.879 132.158 174.057 133.115C164.315 135.588 152.601 135.519 137.199 132.898L129.745 150.556C129.033 152.242 128.151 153.853 127.112 155.363L123.667 160.37Z" fill="#282828"/>
<path d="M151.188 71.2285C156.236 71.2285 160.328 67.0645 160.328 61.928C160.328 56.7914 156.236 52.6274 151.188 52.6274C146.141 52.6274 142.049 56.7914 142.049 61.928C142.049 67.0645 146.141 71.2285 151.188 71.2285Z" fill="#9E616A"/>
<path d="M153.827 120.623L152.516 115.946L152.194 113.639L150.309 113.702L146.609 105.202L145.173 102.961C144.88 102.654 144.614 102.359 144.376 102.075C142.879 100.391 141.679 98.4667 140.826 96.3841C140.228 94.8878 139.877 93.3053 139.786 91.6976C139.518 86.9486 141.529 81.9242 145.935 76.3382C145.863 76.1405 145.815 75.9348 145.792 75.7257C145.713 75.0471 145.906 74.365 146.33 73.8278C146.754 73.2906 147.374 72.9417 148.055 72.857L152.304 72.3821C152.634 72.3448 152.969 72.3733 153.288 72.466C153.607 72.5587 153.905 72.7136 154.164 72.9218C154.433 73.1371 154.658 73.4038 154.823 73.7063C154.988 74.0087 155.092 74.3409 155.127 74.6835C155.184 75.2134 155.079 75.7481 154.826 76.218C156.992 76.4917 159.033 77.3815 160.703 78.7808C162.374 80.1801 163.603 82.0294 164.244 84.1068C166.787 88.8317 168.814 93.8141 170.289 98.9688C170.58 99.9785 170.451 101.019 170.325 102.025C170.21 102.954 170.09 103.915 170.291 104.873C170.496 105.847 170.988 106.824 171.51 107.859C172.107 109.044 172.724 110.269 172.891 111.518L172.903 111.606L153.827 120.623Z" fill="#3F3D56"/>
<path opacity="0.2" d="M140.939 96.3383C141.788 98.4087 142.982 100.322 144.47 101.997C144.725 102.3 144.994 102.598 145.276 102.896L146.721 105.154C152.051 101.178 156.369 85.5204 156.369 85.5204L150.356 84.356L140.939 96.3383Z" fill="black"/>
<path d="M137.298 72.0972C137.825 72.9976 137.978 74.0669 137.724 75.0778C137.471 76.0886 136.831 76.9611 135.941 77.5096C135.759 77.6183 135.567 77.7117 135.369 77.7889L135.795 91.7352L129.728 87.9334L130.254 75.2726C129.996 74.4301 130.025 73.5262 130.337 72.702C130.649 71.8778 131.227 71.1797 131.979 70.7166C132.418 70.4526 132.905 70.2787 133.412 70.2053C133.919 70.1319 134.436 70.1603 134.932 70.289C135.427 70.4178 135.892 70.6441 136.299 70.9547C136.705 71.2652 137.045 71.6537 137.298 72.0972Z" fill="#9E616A"/>
<path d="M136.328 86.4708L129.656 87.4153L129.943 101.169C129.96 102.15 130.228 103.111 130.723 103.96C131.217 104.808 131.922 105.517 132.769 106.019C133.804 106.625 135.01 106.88 136.203 106.745C137.397 106.61 138.514 106.093 139.386 105.271L155.138 90.1888C156.246 89.1422 156.91 87.7127 156.992 86.1942C157.073 84.6757 156.568 83.1837 155.578 82.0251C155.089 81.4482 154.488 80.9751 153.811 80.6338C153.134 80.2926 152.395 80.0902 151.638 80.0386C150.881 79.987 150.122 80.0873 149.405 80.3335C148.687 80.5797 148.027 80.9669 147.463 81.4719C147.307 81.6105 147.159 81.7573 147.02 81.9117L136.618 93.8225L136.328 86.4708Z" fill="#3F3D56"/>
<path d="M80.524 176.182L85.2597 176.181L87.5127 157.998L80.5233 157.998L80.524 176.182Z" fill="#FFB6B6"/>
<path d="M53.6806 71.4984C58.9009 71.4984 63.1327 67.2859 63.1327 62.0895C63.1327 56.8931 58.9009 52.6807 53.6806 52.6807C48.4604 52.6807 44.2285 56.8931 44.2285 62.0895C44.2285 67.2859 48.4604 71.4984 53.6806 71.4984Z" fill="#FFB6B6"/>
<path d="M86.8053 170.58H80.099L78.3893 168.299L77.9265 166.15L77.5282 165.766C76.9879 165.25 76.6385 164.567 76.5368 163.828C76.435 163.09 76.5869 162.338 76.9677 161.696L72.1073 139.124C70.8344 139.012 56.4785 137.735 46.4994 135.976C43.9455 135.527 41.9515 134.291 40.5729 132.304C37.1852 127.42 38.6363 119.519 38.6514 119.44L38.6681 119.352L38.7576 119.342L62.0668 116.737L62.0982 116.752C62.8717 117.117 81.0766 125.72 84.0516 128.681C85.395 130.018 88.3922 137.964 89.0632 146.41C89.1834 147.923 88.7508 149.464 88.3325 150.955C87.9411 152.349 87.5364 153.791 87.6164 155.154C87.7398 157.257 87.8567 159.464 87.964 161.712C87.9811 162.07 88.2522 162.441 88.5144 162.799C88.7883 163.174 89.047 163.527 89.0634 163.897C89.2228 167.487 86.8657 170.504 86.8419 170.534L86.8053 170.58Z" fill="#282828"/>
<path d="M88.3324 87.1498C87.8246 87.0116 87.2926 86.986 86.7738 87.0746C86.255 87.1632 85.762 87.364 85.3296 87.6628C84.8971 87.9616 84.5358 88.3512 84.271 88.804C84.0061 89.2569 83.8443 89.762 83.7968 90.2839L75.9432 92.7273L76.2709 97.8402L87.313 94.2346C88.199 94.2559 89.062 93.9529 89.7386 93.3831C90.4152 92.8133 90.8583 92.0162 90.984 91.1429C91.1096 90.2696 90.9091 89.3808 90.4204 88.6449C89.9317 87.9089 89.1888 87.377 88.3324 87.1498Z" fill="#FFB6B6"/>
<path d="M83.2082 95.6106L77.3386 97.822L77.1885 98.1118C76.8287 98.8067 76.2062 99.3309 75.4582 99.569C74.7101 99.8071 73.8976 99.7396 73.1995 99.3814L60.0064 104.352C60.0064 104.352 54.1146 98.4829 49.9199 93.2452L51.3495 84.4921C51.6807 82.4612 52.3844 80.5083 53.4257 78.731C62.0283 80.6087 66.9665 92.5794 66.9665 92.5794L82.4706 89.6347L83.2082 95.6106Z" fill="#DE6109"/>
<path d="M52.3374 70.9955C49.9711 71.6317 47.3623 70.7859 45.5156 69.1815C43.6689 67.5771 42.5137 65.3038 41.8481 62.9556C41.3607 61.2358 41.1295 59.3268 41.8988 57.7122C42.668 56.0977 44.7384 55.0084 46.3357 55.8239C45.3503 54.6812 45.8426 52.7911 46.9934 51.8135C48.1442 50.8359 49.7244 50.5557 51.2295 50.4025C53.4137 50.1801 55.6699 50.1552 57.7484 50.8596C59.8268 51.564 61.7153 53.104 62.3658 55.1915C63.0302 55.4994 63.7784 55.5793 64.4933 55.4186C65.2081 55.2579 65.8493 54.8658 66.3163 54.3036C66.4367 54.9493 66.34 55.6165 66.0411 56.2019C65.7422 56.7874 65.2579 57.2585 64.663 57.5423L67.8476 56.5146C68.3952 57.6685 67.4356 59.0968 66.2084 59.4663C64.9811 59.8358 63.6564 59.4319 62.4918 58.898C61.3273 58.3641 60.1987 57.6892 58.9337 57.4809C57.6688 57.2727 56.1829 57.6773 55.5978 58.8129C55.2913 59.4077 55.2753 60.1044 55.0974 60.7489C54.9195 61.3935 54.4687 62.0618 53.7993 62.1145C53.3763 62.1479 52.9622 61.9236 52.5405 61.9695C52.0176 62.0263 51.6174 62.4978 51.4781 63.0027C51.3731 63.5172 51.3718 64.0474 51.4743 64.5624L52.2833 70.7174" fill="#282828"/>
<path d="M40.6272 133.428C40.6254 133.428 40.6236 133.428 40.6219 133.427L40.5472 133.415L40.5255 133.342C40.2538 132.432 39.908 131.501 39.5736 130.6C39.081 129.353 38.6652 128.077 38.3283 126.779C38.0631 125.539 37.8793 124.282 37.7779 123.018C37.6846 122.1 37.5881 121.151 37.4241 120.216C37.3513 119.801 37.6273 119.408 37.8942 119.028C38.1418 118.676 38.3756 118.343 38.3265 118.029C38.2763 117.707 37.9177 117.353 37.5709 117.011C37.1907 116.636 36.7976 116.249 36.7419 115.841C35.9842 110.276 35.6316 104.663 35.6867 99.0468C35.765 91.2765 36.1178 85.9801 36.7352 83.3046C38.3953 76.1106 46.0654 74.7978 47.266 74.6357C47.3938 74.2967 47.5905 73.9875 47.8435 73.7273C48.0966 73.4672 48.4008 73.2617 48.7371 73.1236C49.0735 72.9856 49.4347 72.9179 49.7985 72.9248C50.1622 72.9317 50.5206 73.0131 50.8514 73.1638L56.3011 75.6471C57.4066 76.1526 58.3958 76.879 59.2073 77.7812C60.0188 78.6833 60.6352 79.742 61.0183 80.8913L61.8279 83.3481L62.2334 99.8402L59.9861 111.454L64.377 118.01C40.9754 130.799 40.7026 133.428 40.6272 133.428Z" fill="#DE6109"/>
<path d="M77.9755 174.349L79.5153 174.349L85.5268 171.916L88.7488 174.349H88.7492C90.57 174.349 92.3162 175.069 93.6037 176.35C94.8912 177.632 95.6146 179.37 95.6147 181.183V181.405L77.9759 181.405L77.9755 174.349Z" fill="#282828"/>
<path d="M90.2988 98.9185C89.8449 98.6532 89.338 98.4903 88.8139 98.4411C88.2898 98.3919 87.7613 98.4577 87.2655 98.6339C86.7698 98.8101 86.3189 99.0923 85.9445 99.4607C85.5702 99.8291 85.2815 100.275 85.0989 100.766L76.8769 101.085L75.7691 104.898L87.4578 105.493C88.3076 105.744 89.2201 105.675 90.0226 105.301C90.8251 104.927 91.4618 104.272 91.812 103.462C92.1622 102.652 92.2016 101.741 91.9227 100.904C91.6438 100.067 91.066 99.3602 90.2988 98.9185Z" fill="#FFB6B6"/>
<path d="M83.5451 105.904L75.0994 105.799L74.0304 105.785L56.8473 105.57C56.8473 105.57 52.1811 101.138 48.118 96.576L48.6875 92.4757C49.243 88.4517 51.2484 84.7656 54.3303 82.1035C60.1496 85.9742 63.5244 93.6356 63.5244 93.6356L69.1828 96.156C73.165 96.3334 77.0454 97.4646 80.4945 99.4537L82.3553 100.527L83.5451 105.904Z" fill="#DE6109"/>
<path d="M145.607 178.38L142.797 179.071L141.641 176.553L141.011 179.51L133.558 181.341C133.201 181.428 132.824 181.4 132.484 181.26C132.144 181.12 131.858 180.875 131.668 180.562C131.477 180.249 131.392 179.883 131.426 179.518C131.459 179.153 131.608 178.809 131.852 178.534L136.79 172.98L136.128 170.31L142.48 169.145L145.607 178.38Z" fill="#282828"/>
<path d="M115.837 179.244L113.157 178.155L113.712 175.442L111.454 177.463L104.346 174.575C104.006 174.437 103.718 174.193 103.526 173.881C103.334 173.568 103.248 173.203 103.279 172.838C103.31 172.473 103.458 172.128 103.701 171.852C103.943 171.577 104.268 171.386 104.627 171.307L111.903 169.711L112.947 167.165L118.772 169.945L115.837 179.244Z" fill="#282828"/>
<path d="M106.505 105.019H104.31C101.949 105.016 99.6858 104.082 98.0166 102.42C96.3475 100.759 95.4086 98.5058 95.4059 96.1561V96.0347H115.409V96.1561C115.406 98.5058 114.467 100.759 112.798 102.42C111.129 104.082 108.866 105.016 106.505 105.019Z" fill="#333333"/>
<path d="M104.309 92.8783C104.309 93.4818 103.212 93.971 103.212 93.971C103.212 93.971 102.114 93.4818 102.114 92.8783C102.114 92.2749 103.212 91.7856 103.212 91.7856C103.212 91.7856 104.309 92.2749 104.309 92.8783Z" fill="#3F3D56"/>
<path d="M110.896 92.8783C110.896 93.4818 109.798 93.971 109.798 93.971C109.798 93.971 108.7 93.4818 108.7 92.8783C108.7 92.2749 109.798 91.7856 109.798 91.7856C109.798 91.7856 110.896 92.2749 110.896 92.8783Z" fill="#3F3D56"/>
<path d="M106.505 95.0634C106.505 95.6669 105.407 96.1561 105.407 96.1561C105.407 96.1561 104.31 95.6669 104.31 95.0634C104.31 94.4599 105.407 93.9707 105.407 93.9707C105.407 93.9707 106.505 94.4599 106.505 95.0634Z" fill="#3F3D56"/>
<path d="M98.821 90.5716C99.4272 90.5716 99.9187 90.0824 99.9187 89.4789C99.9187 88.8754 99.4272 88.3862 98.821 88.3862C98.2147 88.3862 97.7233 88.8754 97.7233 89.4789C97.7233 90.0824 98.2147 90.5716 98.821 90.5716Z" fill="#3F3D56"/>
<path d="M82.8565 87.1305L100.169 89.5106C100.326 89.5321 100.476 89.585 100.612 89.6661C100.747 89.7471 100.865 89.8547 100.958 89.9823C101.05 90.1099 101.116 90.2548 101.151 90.4084C101.185 90.5619 101.188 90.7208 101.16 90.8756C101.131 91.0304 101.071 91.1778 100.984 91.3088C100.896 91.4399 100.783 91.552 100.651 91.6382C100.518 91.7245 100.37 91.7832 100.214 91.8108C100.058 91.8383 99.8988 91.8342 99.7448 91.7986L82.7197 87.868C82.6251 87.8462 82.5427 87.7889 82.4895 87.7081C82.4362 87.6273 82.4164 87.5292 82.434 87.4342C82.4516 87.3392 82.5054 87.2546 82.5841 87.198C82.6627 87.1415 82.7603 87.1173 82.8565 87.1305Z" fill="#E4E4E4"/>
<path d="M103.894 32.8322V0H101.699V32.8322C98.6994 33.1047 95.9104 34.4833 93.8794 36.6976C91.8485 38.9118 90.7223 41.8017 90.7219 44.8V48.0781H98.4059C98.4059 49.2373 98.8685 50.349 99.6919 51.1687C100.515 51.9884 101.632 52.4489 102.797 52.4489C103.961 52.4489 105.078 51.9884 105.901 51.1687C106.725 50.349 107.188 49.2373 107.188 48.0781H114.872V44.8001C114.871 41.8017 113.745 38.9118 111.714 36.6976C109.683 34.4833 106.894 33.1047 103.894 32.8322Z" fill="#8F8F8F"/>
<path d="M132.16 24.6242V0H130.514V24.6242C128.264 24.8285 126.172 25.8625 124.649 27.5232C123.126 29.1839 122.281 31.3513 122.281 33.6V36.0586H128.044C128.044 36.928 128.391 37.7618 129.009 38.3765C129.626 38.9913 130.464 39.3367 131.337 39.3367C132.211 39.3367 133.048 38.9913 133.666 38.3765C134.283 37.7618 134.63 36.928 134.63 36.0586H140.393V33.6C140.393 31.3513 139.548 29.1839 138.025 27.5232C136.502 25.8625 134.41 24.8285 132.16 24.6242Z" fill="#8F8F8F"/>
<path d="M76.5433 24.6242V0H74.8967V24.6242C72.647 24.8285 70.5552 25.8625 69.032 27.5232C67.5088 29.1839 66.6641 31.3513 66.6639 33.6V36.0586H72.4268C72.4268 36.928 72.7738 37.7618 73.3914 38.3765C74.009 38.9913 74.8466 39.3367 75.72 39.3367C76.5934 39.3367 77.431 38.9913 78.0486 38.3765C78.6661 37.7618 79.0131 36.928 79.0131 36.0586H84.7761V33.6C84.7758 31.3513 83.9312 29.1839 82.408 27.5232C80.8848 25.8625 78.793 24.8285 76.5433 24.6242Z" fill="#8F8F8F"/>
<path d="M175.645 57.8942C174.092 56.0908 173.353 53.6981 172.111 51.6503C170.869 49.6024 168.708 47.7696 166.425 48.2462C164.851 48.5747 163.634 49.9572 163.019 51.4985C162.403 53.0398 162.288 54.7395 162.18 56.4047C162.218 52.9827 159.953 49.6653 156.833 48.5734C153.713 47.4815 149.98 48.6994 148.019 51.4486C147.164 50.6593 146.047 50.2099 144.881 50.1855C143.714 50.1611 142.58 50.5635 141.692 51.3164C139.938 52.8765 139.55 55.8458 140.84 57.8357C142.129 59.8256 144.922 60.5669 146.972 59.4633L147.696 60.1267C147.288 61.5466 148.079 63.2238 149.409 63.7583C150.487 64.1917 152.009 64.1196 152.412 65.2458C152.694 66.0327 152.167 66.8726 151.607 67.4773C151.046 68.0819 150.381 68.7063 150.313 69.5431C150.212 70.8056 151.522 71.69 152.714 71.9564C155.587 72.5987 158.775 71.2744 160.43 68.7506C160.462 68.7019 160.497 68.6532 160.534 68.6044C161.463 67.4218 162.14 66.0631 162.524 64.6112C162.908 63.1594 162.99 61.6449 162.766 60.1603C162.673 59.577 162.767 59.1431 163.171 59.005C164.917 58.4079 169.809 59.6611 171.29 60.7937C172.771 61.9263 173.957 63.4252 175.383 64.6308C176.809 65.8366 178.627 66.7666 180.438 66.4382C181.888 66.1753 183.122 65.1271 183.952 63.8629C184.782 62.5986 185.259 61.1249 185.687 59.6603C182.48 61.5046 178.09 60.7326 175.645 57.8942Z" fill="#282828"/>
</g>
<defs>
<clipPath id="clip0_109_764">
<rect width="218" height="182" fill="white"/>
</clipPath>
</defs>
</svg>
