<svg width="223" height="157" viewBox="0 0 223 157" fill="none" xmlns="http://www.w3.org/2000/svg">
<g clip-path="url(#clip0_122_259)">
<path d="M210.934 83.7218L64.2919 38.4585L33.8898 31.5126L52.5638 50.1866L35.6702 57.9419L48.5846 65.6881L30.3003 72.4502L52.7527 82.1806L16.5843 86.1661L38.8394 91.326L22.3454 91.9272L39.8304 99.8707L-1.502 95.1141L191.638 148.312L160.246 129.642L191.841 134.6L171.774 122.882L201.184 125.257L171.379 114.138L202.578 114.327L171.78 103.407L191.453 103.202L162.444 89.6983L220.069 104.386L179.537 81.7443L210.934 83.7218Z" fill="#89AC46"/>
<path d="M162.968 48.5552L47.1202 12.7971L23.1024 7.30986L37.8549 22.0624L24.5089 28.189L34.7114 34.3085L20.2667 39.6506L38.0042 47.3376L9.43109 50.4862L27.0127 54.5625L13.9824 55.0375L27.7956 61.3128L-4.85713 57.5551L147.724 99.5815L122.924 84.8321L147.884 88.7492L132.031 79.4917L155.265 81.3684L131.719 72.5842L156.367 72.7337L132.036 64.1067L147.578 63.9449L124.661 53.2767L170.184 64.8799L138.164 46.9929L162.968 48.5552Z" fill="#89AC46"/>
<path d="M97.143 41.1426L76.6775 38.4777C75.8476 38.3705 75.2087 38.0532 75.2298 37.7765C75.2666 37.4997 75.9642 37.3704 76.8125 37.4922L97.2337 40.4632C97.7955 40.5444 98.2215 40.7584 98.1959 40.9468C98.1708 41.1242 97.6998 41.2165 97.143 41.1426Z" fill="#6C63FF"/>
<path d="M97.271 41.4931L76.7432 39.3598C75.9096 39.2758 75.2008 39.43 75.1752 39.7068C75.1496 39.9835 75.8155 40.2751 76.6441 40.3503L97.2086 42.1971C97.774 42.2489 98.2368 42.1381 98.2551 41.9498C98.271 41.7477 97.8328 41.5521 97.271 41.4931Z" fill="#6C63FF"/>
<path d="M128.066 57.0132L148.529 54.3483C149.359 54.2411 149.998 53.9238 149.977 53.6471C149.94 53.3703 149.242 53.241 148.394 53.3628L127.973 56.3338C127.411 56.415 126.985 56.6291 127.01 56.8174C127.034 56.9948 127.505 57.0871 128.066 57.0132Z" fill="#6C63FF"/>
<path d="M127.934 57.3642L148.462 55.2309C149.296 55.1469 150.004 55.3011 150.03 55.5778C150.056 55.8546 149.39 56.1462 148.561 56.2214L127.997 58.0682C127.431 58.12 126.968 58.0092 126.95 57.8208C126.936 57.6188 127.372 57.4232 127.934 57.3642Z" fill="#6C63FF"/>
<path d="M60.3763 79.1035H55.3857V151.024H60.3763V79.1035Z" fill="#333333"/>
<path d="M169.375 79.1035H164.385V151.024H169.375V79.1035Z" fill="#333333"/>
<path d="M53.4795 73.2495H168.788C169.849 73.2495 170.899 73.4595 171.88 73.8676C172.86 74.2756 173.75 74.8738 174.501 75.6278C175.251 76.3818 175.846 77.277 176.252 78.2622C176.658 79.2474 176.867 80.3034 176.867 81.3698V82.4476H45.4006V81.3698C45.4006 79.2162 46.2518 77.1509 47.7669 75.6281C49.282 74.1053 51.3369 73.2498 53.4795 73.2498V73.2495Z" fill="#DFE6F5"/>
<path opacity="0.1" d="M53.1123 73.2495H168.421C169.482 73.2495 170.532 73.4595 171.512 73.8676C172.493 74.2756 173.383 74.8738 174.133 75.6278C174.884 76.3818 175.479 77.277 175.885 78.2622C176.291 79.2474 176.5 80.3034 176.5 81.3698V82.4476H45.0334V81.3698C45.0334 79.2162 45.8846 77.1509 47.3997 75.6281C48.9148 74.1053 50.9697 73.2498 53.1123 73.2498V73.2495Z" fill="black"/>
<path d="M53.4795 71.5737H168.788C170.93 71.5737 172.985 72.4292 174.5 73.952C176.015 75.4748 176.867 77.5402 176.867 79.6937V80.7715H45.4006V79.6937C45.4006 77.5402 46.2518 75.4748 47.7669 73.952C49.282 72.4292 51.3369 71.5737 53.4795 71.5737Z" fill="#DFE6F5"/>
<path d="M111.134 65.7201C116.648 65.7201 121.118 61.227 121.118 55.6845C121.118 50.142 116.648 45.6489 111.134 45.6489C105.619 45.6489 101.149 50.142 101.149 55.6845C101.149 61.227 105.619 65.7201 111.134 65.7201Z" fill="#FFD77C"/>
<path d="M111.134 45.4644C113.48 45.4658 115.753 46.2822 117.569 47.7754C119.384 49.2685 120.631 51.3465 121.096 53.6574C121.562 55.9683 121.219 58.37 120.125 60.4557C119.03 62.5413 117.252 64.1826 115.092 65.1015C112.608 66.1511 109.811 66.1671 107.316 65.1461C104.82 64.1251 102.83 62.1506 101.781 59.6559C100.732 57.1613 100.712 54.3504 101.723 51.8403C102.734 49.3302 104.695 47.326 107.176 46.2677C108.428 45.735 109.774 45.4618 111.134 45.4644ZM111.134 65.5355C113.395 65.5339 115.586 64.7467 117.336 63.3074C119.086 61.8681 120.287 59.8652 120.736 57.6378C121.184 55.4104 120.853 53.0956 119.799 51.0854C118.744 49.0752 117.03 47.4932 114.948 46.6074C112.556 45.6057 109.866 45.5969 107.467 46.583C105.068 47.569 103.155 49.4697 102.147 51.8694C101.138 54.269 101.116 56.9724 102.085 59.3883C103.055 61.8042 104.936 63.7362 107.319 64.7616C108.526 65.2749 109.823 65.5382 111.134 65.5355Z" fill="#FFAB50"/>
<path d="M111.134 63.639C115.505 63.639 119.048 60.0779 119.048 55.685C119.048 51.2921 115.505 47.731 111.134 47.731C106.763 47.731 103.22 51.2921 103.22 55.685C103.22 60.0779 106.763 63.639 111.134 63.639Z" fill="#FFD77C"/>
<path d="M111.134 47.5464C113.002 47.5477 114.812 48.1979 116.258 49.3869C117.703 50.5759 118.696 52.2305 119.066 54.0706C119.437 55.9107 119.164 57.8231 118.293 59.4839C117.422 61.1446 116.006 62.4517 114.286 63.1836C112.307 64.0238 110.077 64.0395 108.087 63.2273C106.097 62.415 104.509 60.8414 103.673 58.8525C102.837 56.8636 102.821 54.6224 103.629 52.622C104.438 50.6215 106.003 49.0257 107.982 48.1855C108.979 47.7615 110.051 47.5441 111.134 47.5464ZM111.134 63.4542C112.917 63.453 114.645 62.8323 116.026 61.6972C117.406 60.5621 118.353 58.9824 118.707 57.2256C119.061 55.4689 118.8 53.6432 117.968 52.0577C117.137 50.4722 115.785 49.2244 114.143 48.5258C112.254 47.7237 110.125 47.7088 108.225 48.4842C106.325 49.2596 104.809 50.7619 104.011 52.6606C103.213 54.5593 103.198 56.6988 103.97 58.6085C104.741 60.5182 106.236 62.0416 108.125 62.8436C109.077 63.2485 110.1 63.4562 111.134 63.4542Z" fill="#FFAB50"/>
<path d="M111.134 61.7451C114.464 61.7451 117.164 59.0317 117.164 55.6845C117.164 52.3374 114.464 49.624 111.134 49.624C107.804 49.624 105.104 52.3374 105.104 55.6845C105.104 59.0317 107.804 61.7451 111.134 61.7451Z" fill="#FFD77C"/>
<path d="M111.134 49.4395C112.363 49.4394 113.564 49.8056 114.586 50.4918C115.608 51.178 116.404 52.1533 116.875 53.2945C117.345 54.4357 117.468 55.6914 117.228 56.9028C116.988 58.1143 116.397 59.2271 115.528 60.1004C114.951 60.6804 114.266 61.1404 113.512 61.4542C112.758 61.768 111.95 61.9296 111.134 61.9296C110.318 61.9296 109.51 61.768 108.756 61.4542C108.002 61.1404 107.317 60.6804 106.74 60.1004C106.163 59.5205 105.706 58.8321 105.394 58.0744C105.081 57.3167 104.921 56.5046 104.921 55.6845C104.921 54.8644 105.081 54.0523 105.394 53.2947C105.706 52.537 106.163 51.8485 106.74 51.2686C107.316 50.6869 108.001 50.2257 108.755 49.9117C109.509 49.5978 110.318 49.4373 111.134 49.4395ZM111.134 61.5605C112.29 61.5604 113.42 61.2158 114.382 60.5701C115.343 59.9244 116.092 59.0068 116.535 57.9331C116.977 56.8595 117.093 55.6781 116.868 54.5383C116.642 53.3985 116.085 52.3515 115.268 51.5297C114.171 50.4277 112.684 49.8085 111.134 49.8085C109.583 49.8085 108.096 50.4277 106.999 51.5297C105.903 52.6317 105.287 54.1264 105.287 55.685C105.287 57.2435 105.903 58.7382 106.999 59.8402C107.541 60.3875 108.185 60.8214 108.895 61.1166C109.605 61.4119 110.366 61.5628 111.134 61.5605Z" fill="#FFAB50"/>
<path d="M111.134 59.0918C113.006 59.0918 114.524 57.5666 114.524 55.6851C114.524 53.8036 113.006 52.2783 111.134 52.2783C109.262 52.2783 107.745 53.8036 107.745 55.6851C107.745 57.5666 109.262 59.0918 111.134 59.0918Z" fill="#FFD77C"/>
<path d="M111.134 52.0938C111.841 52.0938 112.531 52.3044 113.119 52.699C113.707 53.0936 114.164 53.6544 114.435 54.3106C114.705 54.9668 114.776 55.6889 114.638 56.3855C114.5 57.0821 114.16 57.722 113.66 58.2242C113.161 58.7265 112.524 59.0685 111.831 59.2071C111.138 59.3456 110.419 59.2745 109.767 59.0027C109.114 58.7309 108.556 58.2706 108.163 57.68C107.77 57.0895 107.561 56.3952 107.561 55.6849C107.562 54.7328 107.939 53.82 108.609 53.1468C109.278 52.4736 110.187 52.0949 111.134 52.0938ZM111.134 58.9073C111.768 58.9073 112.388 58.7183 112.915 58.3643C113.442 58.0102 113.853 57.507 114.096 56.9183C114.338 56.3295 114.402 55.6817 114.278 55.0567C114.154 54.4317 113.849 53.8576 113.401 53.4069C112.953 52.9563 112.381 52.6494 111.759 52.5251C111.138 52.4007 110.493 52.4645 109.907 52.7083C109.322 52.9521 108.821 53.3651 108.469 53.8949C108.116 54.4247 107.928 55.0476 107.928 55.6849C107.929 56.5392 108.267 57.3583 108.868 57.9624C109.469 58.5665 110.284 58.9063 111.134 58.9073Z" fill="#FFAB50"/>
<path d="M105.31 71.1571C110.824 71.1571 115.295 66.664 115.295 61.1215C115.295 55.579 110.824 51.0859 105.31 51.0859C99.7953 51.0859 95.325 55.579 95.325 61.1215C95.325 66.664 99.7953 71.1571 105.31 71.1571Z" fill="#FFD77C"/>
<path d="M105.31 50.9014C107.656 50.9028 109.929 51.7192 111.745 53.2124C113.56 54.7055 114.806 56.7835 115.272 59.0944C115.738 61.4054 115.395 63.807 114.3 65.8927C113.206 67.9783 111.428 69.6196 109.268 70.5386C106.784 71.5881 103.987 71.6041 101.492 70.5831C98.996 69.5621 97.0054 67.5876 95.9569 65.0929C94.9083 62.5983 94.8874 59.7874 95.8989 57.2773C96.9103 54.7672 98.8713 52.763 101.352 51.7047C102.604 51.172 103.95 50.8988 105.31 50.9014ZM105.31 70.9726C107.571 70.9709 109.762 70.1838 111.512 68.7445C113.262 67.3052 114.463 65.3022 114.911 63.0748C115.36 60.8474 115.029 58.5326 113.975 56.5224C112.92 54.5122 111.206 52.9302 109.124 52.0444C106.731 51.0427 104.042 51.0339 101.643 52.02C99.2439 53.006 97.331 54.9067 96.3226 57.3064C95.3141 59.706 95.2921 62.4094 96.2613 64.8253C97.2305 67.2413 99.1121 69.1732 101.495 70.1986C102.702 70.7119 103.999 70.9752 105.31 70.9726Z" fill="#FFAB50"/>
<path d="M105.31 69.0751C109.68 69.0751 113.224 65.5139 113.224 61.121C113.224 56.7281 109.68 53.167 105.31 53.167C100.939 53.167 97.396 56.7281 97.396 61.121C97.396 65.5139 100.939 69.0751 105.31 69.0751Z" fill="#FFD77C"/>
<path d="M105.309 52.9824C107.177 52.9837 108.988 53.6339 110.433 54.8229C111.879 56.0119 112.871 57.6666 113.242 59.5067C113.613 61.3467 113.34 63.2591 112.468 64.9199C111.597 66.5807 110.182 67.8877 108.462 68.6197C106.483 69.4598 104.253 69.4755 102.263 68.6633C100.272 67.8511 98.6845 66.2774 97.8485 64.2885C97.0126 62.2997 96.997 60.0585 97.8051 58.058C98.6132 56.0576 100.179 54.4617 102.158 53.6215C103.155 53.1975 104.227 52.9802 105.309 52.9824ZM105.309 68.8902C107.093 68.889 108.821 68.2683 110.201 67.1332C111.581 65.9981 112.529 64.4184 112.883 62.6617C113.237 60.905 112.976 59.0792 112.144 57.4937C111.312 55.9083 109.961 54.6605 108.318 53.9618C106.429 53.1598 104.301 53.1448 102.401 53.9202C100.501 54.6957 98.9849 56.198 98.1869 58.0966C97.3889 59.9953 97.3741 62.1348 98.1456 64.0445C98.9171 65.9542 100.412 67.4776 102.301 68.2797C103.253 68.6846 104.276 68.8922 105.309 68.8902Z" fill="#FFAB50"/>
<path d="M105.31 67.1816C108.64 67.1816 111.339 64.4682 111.339 61.1211C111.339 57.7739 108.64 55.0605 105.31 55.0605C101.979 55.0605 99.2797 57.7739 99.2797 61.1211C99.2797 64.4682 101.979 67.1816 105.31 67.1816Z" fill="#FFD77C"/>
<path d="M105.309 54.8765C106.538 54.8764 107.74 55.2426 108.762 55.9288C109.784 56.615 110.58 57.5904 111.05 58.7315C111.521 59.8727 111.644 61.1284 111.404 62.3399C111.164 63.5513 110.572 64.6641 109.703 65.5375C109.126 66.1174 108.441 66.5774 107.687 66.8912C106.934 67.2051 106.126 67.3666 105.31 67.3666C104.494 67.3666 103.686 67.2051 102.932 66.8912C102.178 66.5774 101.493 66.1174 100.916 65.5375C100.339 64.9576 99.8814 64.2691 99.5692 63.5114C99.2569 62.7537 99.0962 61.9417 99.0962 61.1216C99.0962 60.3014 99.2569 59.4894 99.5692 58.7317C99.8814 57.974 100.339 57.2855 100.916 56.7056C101.492 56.1239 102.176 55.6627 102.93 55.3488C103.685 55.0348 104.493 54.8743 105.309 54.8765ZM105.309 66.9975C106.466 66.9975 107.596 66.6528 108.557 66.0071C109.519 65.3615 110.268 64.4438 110.71 63.3701C111.153 62.2965 111.269 61.1151 111.043 59.9753C110.818 58.8355 110.261 57.7885 109.443 56.9667C108.347 55.8647 106.86 55.2455 105.309 55.2455C103.759 55.2455 102.271 55.8647 101.175 56.9667C100.079 58.0688 99.4625 59.5634 99.4625 61.122C99.4625 62.6805 100.079 64.1752 101.175 65.2772C101.717 65.8245 102.361 66.2584 103.071 66.5537C103.78 66.8489 104.541 66.9998 105.309 66.9975Z" fill="#FFAB50"/>
<path d="M105.31 64.5279C107.182 64.5279 108.699 63.0026 108.699 61.1211C108.699 59.2396 107.182 57.7144 105.31 57.7144C103.438 57.7144 101.92 59.2396 101.92 61.1211C101.92 63.0026 103.438 64.5279 105.31 64.5279Z" fill="#FFD77C"/>
<path d="M105.309 57.5298C106.016 57.5298 106.707 57.7404 107.295 58.135C107.882 58.5296 108.34 59.0905 108.611 59.7467C108.881 60.4029 108.952 61.1249 108.814 61.8215C108.676 62.5182 108.336 63.158 107.836 63.6603C107.336 64.1625 106.7 64.5045 106.007 64.6431C105.313 64.7817 104.595 64.7105 103.942 64.4387C103.289 64.1669 102.731 63.7066 102.339 63.1161C101.946 62.5255 101.737 61.8312 101.737 61.1209C101.738 60.1688 102.114 59.2561 102.784 58.5828C103.454 57.9096 104.362 57.5309 105.309 57.5298ZM105.309 64.3433C105.944 64.3433 106.563 64.1543 107.09 63.8003C107.618 63.4463 108.029 62.9431 108.271 62.3543C108.514 61.7656 108.577 61.1177 108.454 60.4927C108.33 59.8677 108.025 59.2936 107.576 58.843C107.128 58.3923 106.557 58.0854 105.935 57.9611C105.313 57.8367 104.669 57.9005 104.083 58.1443C103.497 58.3882 102.996 58.8011 102.644 59.3309C102.292 59.8608 102.104 60.4837 102.104 61.1209C102.105 61.9752 102.443 62.7943 103.044 63.3984C103.645 64.0025 104.46 64.3423 105.309 64.3433Z" fill="#FFAB50"/>
<path d="M116.958 71.1571C122.472 71.1571 126.943 66.664 126.943 61.1215C126.943 55.579 122.472 51.0859 116.958 51.0859C111.444 51.0859 106.973 55.579 106.973 61.1215C106.973 66.664 111.444 71.1571 116.958 71.1571Z" fill="#FFD77C"/>
<path d="M116.958 50.9014C119.304 50.9028 121.577 51.7192 123.393 53.2124C125.208 54.7055 126.455 56.7835 126.921 59.0944C127.386 61.4054 127.043 63.807 125.949 65.8927C124.854 67.9783 123.076 69.6196 120.916 70.5386C118.432 71.5881 115.635 71.6041 113.14 70.5831C110.644 69.5621 108.654 67.5876 107.605 65.0929C106.557 62.5983 106.536 59.7874 107.547 57.2773C108.559 54.7672 110.52 52.763 113 51.7047C114.252 51.172 115.598 50.8988 116.958 50.9014ZM116.958 70.9726C119.219 70.9709 121.41 70.1838 123.16 68.7445C124.91 67.3052 126.111 65.3022 126.56 63.0748C127.009 60.8474 126.678 58.5326 125.623 56.5224C124.568 54.5122 122.854 52.9302 120.772 52.0444C118.38 51.0427 115.69 51.0339 113.291 52.02C110.892 53.006 108.979 54.9067 107.971 57.3064C106.962 59.706 106.94 62.4094 107.91 64.8253C108.879 67.2413 110.76 69.1732 113.143 70.1986C114.35 70.7119 115.647 70.9752 116.958 70.9726Z" fill="#FFAB50"/>
<path d="M116.958 69.0751C121.329 69.0751 124.872 65.5139 124.872 61.121C124.872 56.7281 121.329 53.167 116.958 53.167C112.587 53.167 109.044 56.7281 109.044 61.121C109.044 65.5139 112.587 69.0751 116.958 69.0751Z" fill="#FFD77C"/>
<path d="M116.958 52.9824C118.826 52.9837 120.636 53.6339 122.081 54.8229C123.527 56.0119 124.519 57.6666 124.89 59.5067C125.261 61.3467 124.988 63.2591 124.117 64.9199C123.246 66.5807 121.83 67.8877 120.11 68.6197C118.131 69.4598 115.901 69.4755 113.911 68.6633C111.92 67.8511 110.333 66.2774 109.497 64.2885C108.661 62.2997 108.645 60.0585 109.453 58.058C110.261 56.0576 111.827 54.4617 113.806 53.6215C114.803 53.1975 115.875 52.9802 116.958 52.9824ZM116.958 68.8902C118.741 68.889 120.469 68.2683 121.849 67.1332C123.23 65.9981 124.177 64.4184 124.531 62.6617C124.885 60.905 124.624 59.0792 123.792 57.4937C122.96 55.9083 121.609 54.6605 119.967 53.9618C118.078 53.1598 115.949 53.1448 114.049 53.9202C112.149 54.6957 110.633 56.198 109.835 58.0966C109.037 59.9953 109.022 62.1348 109.794 64.0445C110.565 65.9542 112.06 67.4776 113.949 68.2797C114.901 68.6846 115.924 68.8922 116.958 68.8902Z" fill="#FFAB50"/>
<path d="M116.958 67.1816C120.289 67.1816 122.988 64.4682 122.988 61.1211C122.988 57.7739 120.289 55.0605 116.958 55.0605C113.628 55.0605 110.928 57.7739 110.928 61.1211C110.928 64.4682 113.628 67.1816 116.958 67.1816Z" fill="#FFD77C"/>
<path d="M116.958 54.8765C118.187 54.8764 119.388 55.2426 120.41 55.9288C121.432 56.615 122.228 57.5904 122.699 58.7315C123.169 59.8727 123.292 61.1284 123.052 62.3399C122.813 63.5513 122.221 64.6641 121.352 65.5375C120.775 66.1174 120.09 66.5774 119.336 66.8912C118.582 67.2051 117.774 67.3666 116.958 67.3666C116.142 67.3666 115.334 67.2051 114.58 66.8912C113.827 66.5774 113.142 66.1174 112.565 65.5375C111.988 64.9576 111.53 64.2691 111.218 63.5114C110.905 62.7537 110.745 61.9417 110.745 61.1216C110.745 60.3014 110.905 59.4894 111.218 58.7317C111.53 57.974 111.988 57.2855 112.565 56.7056C113.14 56.1239 113.825 55.6627 114.579 55.3488C115.333 55.0348 116.142 54.8743 116.958 54.8765ZM116.958 66.9975C118.114 66.9975 119.244 66.6528 120.206 66.0071C121.167 65.3615 121.916 64.4438 122.359 63.3701C122.801 62.2965 122.917 61.1151 122.692 59.9753C122.466 58.8355 121.909 57.7885 121.092 56.9667C119.995 55.8647 118.508 55.2455 116.958 55.2455C115.407 55.2455 113.92 55.8647 112.823 56.9667C111.727 58.0688 111.111 59.5634 111.111 61.122C111.111 62.6805 111.727 64.1752 112.823 65.2772C113.365 65.8245 114.01 66.2584 114.719 66.5537C115.429 66.8489 116.19 66.9998 116.958 66.9975Z" fill="#FFAB50"/>
<path d="M116.958 64.5279C118.83 64.5279 120.348 63.0026 120.348 61.1211C120.348 59.2396 118.83 57.7144 116.958 57.7144C115.086 57.7144 113.568 59.2396 113.568 61.1211C113.568 63.0026 115.086 64.5279 116.958 64.5279Z" fill="#FFD77C"/>
<path d="M116.958 57.5298C117.664 57.5298 118.355 57.7404 118.943 58.135C119.53 58.5296 119.988 59.0905 120.259 59.7467C120.529 60.4029 120.6 61.1249 120.462 61.8215C120.324 62.5182 119.984 63.158 119.484 63.6603C118.985 64.1625 118.348 64.5045 117.655 64.6431C116.962 64.7817 116.243 64.7105 115.59 64.4387C114.938 64.1669 114.38 63.7066 113.987 63.1161C113.594 62.5255 113.385 61.8312 113.385 61.1209C113.386 60.1688 113.763 59.2561 114.432 58.5828C115.102 57.9096 116.01 57.5309 116.958 57.5298ZM116.958 64.3433C117.592 64.3433 118.212 64.1543 118.739 63.8003C119.266 63.4463 119.677 62.9431 119.919 62.3543C120.162 61.7656 120.226 61.1177 120.102 60.4927C119.978 59.8677 119.673 59.2936 119.225 58.843C118.776 58.3923 118.205 58.0854 117.583 57.9611C116.961 57.8367 116.317 57.9005 115.731 58.1443C115.145 58.3882 114.645 58.8011 114.292 59.3309C113.94 59.8608 113.752 60.4837 113.752 61.1209C113.753 61.9752 114.091 62.7943 114.692 63.3984C115.293 64.0025 116.108 64.3423 116.958 64.3433Z" fill="#FFAB50"/>
<path d="M90.3307 58.1982H131.933V60.1617C131.933 64.0773 130.386 67.8325 127.631 70.6012C124.876 73.3699 121.14 74.9253 117.245 74.9253H105.02C101.124 74.9253 97.3877 73.3699 94.633 70.6012C91.8783 67.8325 90.3307 64.0773 90.3307 60.1617V58.1982Z" fill="#6C63FF"/>
<path opacity="0.1" d="M128.18 58.1942C128.072 62.5556 126.272 66.7019 123.165 69.7483C120.058 72.7948 115.889 74.5002 111.548 74.5007H103.29C104.495 74.777 105.726 74.9177 106.962 74.9204H115.283C117.47 74.9214 119.634 74.4895 121.655 73.6493C123.675 72.8092 125.51 71.5772 127.056 70.0239C128.602 68.4705 129.829 66.6262 130.666 64.5963C131.503 62.5664 131.933 60.3906 131.933 58.1934L128.18 58.1942Z" fill="black"/>
<path d="M166.882 138.897V133.881H58.7123V138.897H166.882Z" fill="#333333"/>
<path d="M18.1564 116.363H13.79V156.292H18.1564V116.363Z" fill="#40414D"/>
<path d="M52.6427 116.363H48.2762V156.292H52.6427V116.363Z" fill="#40414D"/>
<path d="M56.1382 109.782C56.1382 112.447 47.1487 114.61 36.0584 114.61C24.968 114.61 16.4156 112.451 16.4156 109.782C16.4156 107.114 24.9683 104.955 36.0584 104.955C47.1484 104.955 56.1382 107.128 56.1382 109.782Z" fill="#090814"/>
<path d="M10.2977 109.779H56.1335V113.802C56.1335 114.83 55.7272 115.816 55.0041 116.542C54.281 117.269 53.3003 117.677 52.2776 117.677H16.9069C15.1538 117.677 13.4725 116.977 12.2329 115.732C10.9933 114.486 10.2969 112.796 10.2969 111.034L10.2977 109.779Z" fill="#40414D"/>
<path d="M2.51472 63.6131L3.46031 63.3985C4.12531 63.2477 4.8227 63.3685 5.39907 63.7344C5.97544 64.1004 6.38357 64.6814 6.53368 65.3498L17.9816 116.323L16.5491 116.648C15.3463 116.921 14.0849 116.703 13.0425 116.041C12 115.379 11.2618 114.328 10.9902 113.119L0.565985 66.7037C0.491518 66.3722 0.482882 66.0291 0.540572 65.6942C0.598262 65.3592 0.721143 65.039 0.902174 64.7519C1.08321 64.4648 1.31883 64.2164 1.59554 64.021C1.87225 63.8256 2.18461 63.687 2.51472 63.6131Z" fill="#40414D"/>
<path d="M204.842 157H209.208V117.072H204.842V157Z" fill="#40414D"/>
<path d="M170.356 157H174.722V117.072H170.356V157Z" fill="#40414D"/>
<path d="M166.867 110.491C166.867 113.156 175.857 115.319 186.947 115.319C198.038 115.319 206.59 113.16 206.59 110.491C206.59 107.823 198.034 105.652 186.947 105.652C175.861 105.652 166.867 107.826 166.867 110.491Z" fill="#090814"/>
<path d="M206.091 118.389H170.72C169.697 118.389 168.716 117.981 167.993 117.254C167.27 116.527 166.864 115.542 166.864 114.514V110.491H212.701V111.746C212.701 113.508 212.004 115.197 210.765 116.443C209.525 117.689 207.844 118.389 206.091 118.389Z" fill="#40414D"/>
<path d="M206.457 117.355L205.024 117.03L216.473 66.0493C216.624 65.3809 217.032 64.7998 217.608 64.4339C218.184 64.068 218.882 63.9471 219.547 64.098L220.493 64.3126C221.158 64.4635 221.736 64.8737 222.1 65.453C222.464 66.0323 222.584 66.7332 222.434 67.4016L212.008 113.824C211.737 115.032 211 116.082 209.959 116.744C208.918 117.406 207.659 117.626 206.457 117.355Z" fill="#40414D"/>
<path d="M178.938 137.892C178.938 137.892 179.912 148.659 175.04 149.965C170.168 151.272 174.717 156.491 178.61 155.502C182.502 154.513 196.791 149.301 197.764 141.476C198.736 133.651 188.025 131.035 188.025 131.035L178.938 137.892Z" fill="#090814"/>
<path d="M180.895 138.217C180.895 138.217 181.87 148.984 176.998 150.29C172.126 151.596 176.674 156.816 180.567 155.826C184.46 154.837 198.748 149.626 199.721 141.801C200.694 133.976 189.985 131.359 189.985 131.359L180.895 138.217Z" fill="#090814"/>
<path opacity="0.1" d="M190.957 131.691L181.876 138.545C181.876 138.545 181.916 139.011 181.942 139.752C185.371 138.807 192.845 136.298 192.958 132.371C192.305 132.104 191.637 131.877 190.957 131.691Z" fill="black"/>
<path d="M185.276 37.8794H181.38V40.8175H185.276V37.8794Z" fill="#F8BDC5"/>
<path d="M181.545 85.3521C181.545 85.3521 175.358 90.2388 170.275 91.3977C167.253 92.055 164.324 93.0852 161.554 94.4648L149.865 100.437C148.803 100.974 147.893 101.77 147.216 102.752C146.54 103.734 146.12 104.871 145.994 106.058C145.66 109.38 146.99 113.75 154.921 116.349L179.918 137.232L187.711 130.706L161.091 110.155L181.545 97.4286L181.545 85.3521Z" fill="#282828"/>
<path d="M177.972 63.4947C177.972 63.4947 165.96 63.8195 157.518 57.294C149.075 50.7684 139.664 52.7246 141.61 56.6406C143.556 60.5566 153.622 63.8195 155.245 64.1441C156.868 64.4687 180.242 70.9982 180.242 70.9982L177.972 63.4947Z" fill="#ED9DA0"/>
<path d="M179.272 82.4219L175.375 94.1699C175.375 94.1699 153.462 107.713 151.674 109.506C150.286 110.901 148.428 116.36 154.92 120.925C161.412 125.491 179.269 139.851 179.269 139.851C179.269 139.851 192.904 136.899 191.931 131.362L169.53 115.049C169.53 115.049 179.269 106.56 189.334 107.87C199.4 109.18 201.023 107.217 201.023 107.217C201.023 107.217 208.815 99.377 206.215 91.8847C203.615 84.3923 179.272 82.4219 179.272 82.4219Z" fill="#282828"/>
<path d="M174.403 29.2504C174.403 29.2504 185.442 41.3233 184.792 44.9108C184.142 48.4983 193.557 34.4692 193.557 34.4692C193.557 34.4692 190.62 27.2905 191.284 19.4585L174.403 29.2504Z" fill="#ED9DA0"/>
<path d="M208.165 94.4947L206.219 95.1481L205.062 95.5357C203.407 96.091 201.647 96.2517 199.92 96.0051C198.192 95.7585 196.546 95.1113 195.11 94.1148C192.521 92.3172 189.236 90.424 186.738 90.2533C181.876 89.9248 176.367 86.3359 176.367 86.3359C176.367 86.3359 179.614 82.095 176.367 65.7776C173.121 49.4601 181.398 37.878 181.398 37.878C181.398 37.878 182.052 41.4101 184.054 39.333C184.805 38.5348 185.597 37.776 186.426 37.0595C188.087 35.6904 189.611 34.1612 190.976 32.4938C193.249 29.5412 201.688 42.282 201.688 42.282C201.688 42.282 206.88 48.1542 206.234 62.187C206.164 63.6633 206.135 65.1841 206.131 66.723C206.083 79.8568 208.165 94.4947 208.165 94.4947Z" fill="#DE6109"/>
<path d="M189.661 61.8633L189.984 69.0422C189.984 69.0422 172.776 70.0216 169.206 66.4327C165.637 62.8438 152.722 63.6387 152.976 66.4327C153.137 68.2266 161.741 73.9362 166.93 74.2647C172.119 74.5932 178.938 76.9862 181.876 77.8536C184.634 78.6693 191.754 79.389 195.49 79.4628C196.557 79.4973 197.61 79.2195 198.523 78.6631C199.436 78.1067 200.168 77.2958 200.631 76.3289C201.066 75.3776 201.207 74.3167 201.035 73.284C200.385 69.0431 201.035 59.9043 201.035 59.9043L189.661 61.8633Z" fill="#ED9DA0"/>
<path opacity="0.1" d="M193.557 40.9799C193.557 40.9799 186.092 41.9592 187.065 53.0528C188.038 64.1463 189.338 65.1257 189.338 65.1257C189.338 65.1257 200.377 64.1463 201.673 63.8192C202.969 63.4921 202.323 51.4215 202.323 51.4215C202.323 51.4215 201.996 40.655 193.557 40.9799Z" fill="black"/>
<path d="M193.557 40.655C193.557 40.655 186.092 41.6343 187.065 52.7279C188.038 63.8215 189.338 64.8008 189.338 64.8008C189.338 64.8008 200.377 63.8215 201.673 63.4944C202.969 63.1673 202.323 51.0966 202.323 51.0966C202.323 51.0966 201.996 40.3228 193.557 40.655Z" fill="#DE6109"/>
<path opacity="0.1" d="M190.796 26.46C190.285 23.8765 191.332 23.079 191.607 19.7725L174.715 29.5601C174.715 29.5601 176.65 31.6786 178.85 34.399C179.833 34.6488 180.843 34.7728 181.857 34.768C186.282 34.7868 188.703 30.0109 190.796 26.46Z" fill="black"/>
<path d="M181.542 34.4544C188.176 34.4544 193.554 29.0492 193.554 22.3815C193.554 15.7138 188.176 10.3086 181.542 10.3086C174.908 10.3086 169.53 15.7138 169.53 22.3815C169.53 29.0492 174.908 34.4544 181.542 34.4544Z" fill="#ED9DA0"/>
<path opacity="0.1" d="M184.57 18.7164C182.733 19.8902 182.708 22.5439 183.891 24.3818C185.074 26.2196 187.111 27.4343 189.073 28.579C189.642 28.9111 190.27 29.2545 190.91 29.1806C191.401 29.0844 191.856 28.8532 192.225 28.5127C193.597 27.436 194.906 26.2808 196.146 25.0528C197.931 23.2885 199.646 21.1146 199.367 18.6528C199.051 15.8589 196.304 13.7561 195.195 11.1087C194.262 8.89426 194.541 6.41006 193.726 4.14776C192.911 1.88545 190.055 -0.207014 187.917 0.978005C187.127 1.4134 186.65 2.1924 185.989 2.77917C184.351 4.23421 181.711 4.3772 179.471 3.71292C177.231 3.04864 176.566 0.335823 173.441 0.327148C174.994 0.876986 176.044 2.50468 175.806 3.98854C174.553 4.70095 172.908 4.29494 171.399 4.26836C169.889 4.24177 168.094 5.09129 168.355 6.45707C168.582 7.5643 170.172 8.38779 169.937 9.49474C167.179 10.9553 164.172 11.8819 161.072 12.226C160.511 12.2887 164.447 15.5774 164.895 15.7951C166.538 16.585 168.509 17.1645 170.246 17.7697C174.965 19.4066 179.797 19.9898 184.57 18.7164Z" fill="black"/>
<path d="M184.57 18.3877C182.733 19.5616 182.708 22.2153 183.891 24.0532C185.074 25.891 187.111 27.1057 189.073 28.2504C189.642 28.5825 190.27 28.9259 190.91 28.852C191.401 28.7558 191.856 28.5246 192.225 28.1841C193.597 27.108 194.906 25.9533 196.147 24.7258C197.931 22.9616 199.646 20.7877 199.367 18.3259C199.052 15.5319 196.305 13.4291 195.196 10.7818C194.263 8.56732 194.542 6.08312 193.727 3.82082C192.912 1.55851 190.055 -0.535636 187.917 0.649383C187.127 1.08478 186.65 1.86379 185.989 2.45056C184.351 3.9056 181.711 4.04859 179.471 3.3843C177.231 2.72002 176.566 0.00720944 173.441 -0.00146484C174.994 0.548373 176.044 2.17606 175.806 3.65992C174.553 4.37233 172.908 3.96632 171.399 3.93973C169.889 3.91315 168.094 4.76296 168.355 6.12846C168.582 7.23569 170.172 8.05918 169.937 9.16613C167.179 10.6267 164.172 11.5532 161.072 11.8974C160.511 11.9601 164.447 15.2488 164.895 15.4665C166.538 16.2564 168.509 16.8359 170.246 17.4411C174.965 19.0817 179.797 19.6539 184.57 18.3877Z" fill="#090814"/>
<path opacity="0.1" d="M198.875 136.984C199.396 138.193 199.578 139.521 199.4 140.826C198.425 148.658 184.141 153.877 180.246 154.852C178.193 155.369 175.957 154.161 175.02 152.711C175.622 154.416 178.215 156.097 180.573 155.505C184.47 154.526 198.754 149.304 199.727 141.479C199.939 139.928 199.64 138.348 198.875 136.984V136.984Z" fill="white"/>
<path d="M68.7194 136.538C68.7194 136.538 64.3126 142.074 66.1489 144.288C67.9853 146.503 77.1658 150.736 80.1035 150.563C83.2249 150.378 93.6894 150.932 94.058 146.134C94.058 146.134 94.7924 143.919 85.2447 143.55C75.6969 143.181 78.6355 133.216 78.6355 133.216L68.7194 136.538Z" fill="#090814"/>
<path opacity="0.1" d="M16.2065 90.0323C16.2065 90.0323 11.7997 105.165 25.0198 107.749L39.3415 107.01C39.3415 107.01 59.5389 102.95 65.0473 105.903C65.0473 105.903 67.2506 106.272 66.5162 109.225C65.7817 112.177 67.6178 132.108 67.6178 132.108V138.752C67.6178 138.752 80.1035 138.752 81.5723 137.276C81.5723 137.276 80.4707 131.372 81.5723 126.572C82.6739 121.772 79.7349 106.641 79.7349 106.641L79.4448 97.5319C79.4232 96.4064 79.1036 95.3069 78.5188 94.3468C77.934 93.3866 77.1052 92.6005 76.1176 92.0694C75.4226 91.699 74.6492 91.5015 73.8626 91.4935C73.8626 91.4935 48.8901 87.4334 40.0779 88.1718C31.2657 88.9102 16.2065 90.0323 16.2065 90.0323Z" fill="black"/>
<path d="M16.2065 89.6631C16.2065 89.6631 11.7997 104.796 25.0198 107.38L39.3415 106.641C39.3415 106.641 59.5389 102.581 65.0473 105.534C65.0473 105.534 67.2506 105.903 66.5162 108.856C65.7817 111.809 67.6178 131.74 67.6178 131.74V138.383C67.6178 138.383 80.1035 138.383 81.5723 136.907C81.5723 136.907 80.4707 131.003 81.5723 126.203C82.6739 121.403 79.7349 106.272 79.7349 106.272L79.4448 97.163C79.4232 96.0374 79.1036 94.938 78.5188 93.9778C77.934 93.0177 77.1052 92.2316 76.1176 91.7004C75.4225 91.3301 74.6492 91.1326 73.8626 91.1246C73.8626 91.1246 48.8901 87.0644 40.0779 87.8026C31.2657 88.5407 16.2065 89.6631 16.2065 89.6631Z" fill="#D6D6E3"/>
<path d="M54.0302 59.7671C54.0302 59.7671 56.9679 63.4581 58.8042 59.7671C60.6405 56.076 64.6784 43.8962 64.6784 43.8962C64.6784 43.8962 74.5934 33.1924 77.8985 36.5144C81.2037 39.8364 69.8197 45.7416 69.8197 45.7416C69.8197 45.7416 65.7801 68.2561 62.108 68.6252C58.4359 68.9943 52.9275 68.6252 52.9275 68.6252L51.09 64.5651L54.0302 59.7671Z" fill="#9E616A"/>
<path d="M40.8095 41.3125C40.8095 41.3125 47.4196 49.0634 48.154 51.6469C48.8884 54.2305 56.9673 60.8741 56.9673 60.8741C56.9673 60.8741 51.0931 65.3033 52.1933 67.5178C53.2935 69.7322 44.4816 60.136 44.4816 60.136L34.2003 45.0033L40.8095 41.3125Z" fill="#6C63FF"/>
<path d="M45.2171 32.4543C45.2171 32.4543 41.9122 43.1581 41.9122 47.218C41.9122 51.2778 27.9577 46.1107 28.3263 43.8963C28.6949 41.6818 36.4052 33.5618 36.7724 30.2413C37.1396 26.9207 45.2171 32.4543 45.2171 32.4543Z" fill="#9E616A"/>
<path d="M34.2 39.0976C34.2 39.0976 21.3472 35.7759 19.5111 54.5994C17.6751 73.4229 20.9799 75.6376 15.4715 87.0795C9.9631 98.5215 52.9283 88.5558 52.9283 88.5558C52.9283 88.5558 50.725 85.9723 43.7478 87.0795L40.4429 77.1142C40.4429 77.1142 39.3413 72.685 45.5841 72.685C51.8269 72.685 48.8893 59.7668 48.8893 59.7668C48.8893 59.7668 45.5841 48.6939 43.7481 47.5867C41.912 46.4794 38.6068 39.8361 34.2 39.0976Z" fill="#6C63FF"/>
<path d="M47.0529 65.6724C47.0529 65.6724 73.8603 68.625 78.2668 67.8868C78.2668 67.8868 97.9497 65.4508 92.9557 70.4704C92.5885 70.8394 79.7356 73.7923 78.2668 73.423C76.798 73.0536 45.5827 73.423 45.5827 73.423L45.2155 69.7322L47.0529 65.6724Z" fill="#9E616A"/>
<path d="M41.9122 39.098C48.6051 39.098 54.0307 33.6448 54.0307 26.9179C54.0307 20.191 48.6051 14.7378 41.9122 14.7378C35.2194 14.7378 29.7938 20.191 29.7938 26.9179C29.7938 33.6448 35.2194 39.098 41.9122 39.098Z" fill="#9E616A"/>
<path d="M94.9759 39.6514H94.6086V54.7841H94.9759V39.6514Z" fill="#FFD77C"/>
<path d="M94.563 39.605H95.0221V54.83H94.563V39.605ZM94.9302 39.6959H94.6535V54.7377H94.9288L94.9302 39.6959Z" fill="#FFAB50"/>
<path d="M95.3431 39.6514H94.9759V54.7841H95.3431V39.6514Z" fill="#FFD77C"/>
<path d="M94.9302 39.605H95.3893V54.83H94.9302V39.605ZM95.2974 39.6959H95.0207V54.7377H95.296L95.2974 39.6959Z" fill="#FFAB50"/>
<path d="M95.7105 39.6514H95.3433V54.7841H95.7105V39.6514Z" fill="#FFD77C"/>
<path d="M95.2974 39.605H95.7564V54.83H95.2974V39.605ZM95.6646 39.6959H95.3878V54.7377H95.6632L95.6646 39.6959Z" fill="#FFAB50"/>
<path d="M96.0778 39.6514H95.7106V54.7841H96.0778V39.6514Z" fill="#FFD77C"/>
<path d="M95.6646 39.605H96.1237V54.83H95.6646V39.605ZM96.0318 39.6959H95.7551V54.7377H96.0304L96.0318 39.6959Z" fill="#FFAB50"/>
<path d="M96.445 39.6514H96.0778V54.7841H96.445V39.6514Z" fill="#FFD77C"/>
<path d="M96.0319 39.605H96.4909V54.83H96.0319V39.605ZM96.3991 39.6959H96.1223V54.7377H96.3977L96.3991 39.6959Z" fill="#FFAB50"/>
<path d="M96.8122 39.6514H96.4449V54.7841H96.8122V39.6514Z" fill="#FFD77C"/>
<path d="M96.399 39.605H96.8581V54.83H96.399V39.605ZM96.7663 39.6959H96.4895V54.7377H96.7649L96.7663 39.6959Z" fill="#FFAB50"/>
<path d="M97.1794 39.6514H96.8122V54.7841H97.1794V39.6514Z" fill="#FFD77C"/>
<path d="M96.7662 39.605H97.2253V54.83H96.7662V39.605ZM97.1334 39.6959H96.8567V54.7377H97.1321L97.1334 39.6959Z" fill="#FFAB50"/>
<path d="M45 73C43 72 40 74.5 40.5 77L31.5 61.5L35 56L45 73Z" fill="#6159E6"/>
<path d="M26.1212 55.7069L45.5841 73.4235C45.5841 73.4235 49.2565 66.0416 50.3581 66.0416C51.4597 66.0416 37.138 44.2653 37.138 44.2653C37.138 44.2653 33.4656 39.8361 31.2638 42.0508C29.0619 44.2656 22.4491 42.7887 26.1212 55.7069Z" fill="#6C63FF"/>
<path d="M46.7356 20.1037C48.4488 22.8974 46.8692 26.577 44.7589 29.0808C42.6487 31.5846 39.9267 33.7817 38.9846 36.9246C38.1397 39.7417 38.9084 42.78 39.902 45.5476C40.8956 48.3153 42.1308 51.0748 42.2333 54.0151C42.3357 56.9554 40.951 60.203 38.1965 61.1958C35.3685 62.2146 32.0252 60.6135 29.3016 61.8869C25.7537 63.5457 24.9497 69.288 21.0821 69.8835C18.7018 70.2498 16.4958 68.1766 15.8307 65.8497C15.1656 63.5227 15.6433 61.0407 16.1241 58.6693L20.0774 39.176L23.3664 22.9565C24.0209 19.7285 24.7977 16.2756 27.2114 14.0468C30.1607 11.3234 34.6065 11.2588 38.6082 11.4219C42.2851 11.5719 46.11 11.8246 49.311 13.6492C52.5121 15.4739 54.8629 19.3519 53.7554 22.8789C52.7209 20.3967 49.6301 19.0041 47.098 19.8796" fill="#090814"/>
</g>
<defs>
<clipPath id="clip0_122_259">
<rect width="223" height="157" fill="white"/>
</clipPath>
</defs>
</svg>
