<svg width="150" height="150" viewBox="0 0 150 150" fill="none" xmlns="http://www.w3.org/2000/svg">
<path d="M75 0C116.421 0 150 33.5786 150 75C150 116.421 116.421 150 75 150C33.5786 150 0 116.421 0 75C0 33.5786 33.5786 0 75 0ZM75 7.5C37.7208 7.5 7.5 37.7208 7.5 75C7.5 112.279 37.7208 142.5 75 142.5C112.279 142.5 142.5 112.279 142.5 75C142.5 37.7208 112.279 7.5 75 7.5Z" fill="white"/>
<path d="M75 18.75C106.066 18.75 131.25 43.934 131.25 75C131.25 94.0299 121.799 110.851 107.336 121.03C106.619 111.038 104.812 88.8057 104.812 88.8057C104.81 88.7927 104.653 87.9333 106.816 86.9717C110.613 85.276 113.25 81.3997 113.25 76.9355C113.25 69.4608 110.613 60.8093 109.031 53.8018V53.75H107.625L107.59 73.9775C107.59 75.0329 107.08 75.8975 106.008 75.8975C105.006 75.8975 104.602 75.1535 104.496 74.1846C104.479 74.1156 104.496 74.0466 104.496 73.9775L102.686 53.75H101.279L99.6973 73.9941L99.6797 74.1846C99.5742 75.1535 99.0293 75.8975 98.0098 75.8975C96.9376 75.8975 96.4103 75.0329 96.4102 73.9775L96.3398 53.75H94.9336C93.3867 60.8442 90.75 69.4783 90.75 76.9531C90.75 81.4 93.3164 85.2758 97.2012 87.0234C99.155 87.8992 99.1871 88.7922 99.1875 88.8057C99.1875 88.8057 96.375 123.706 96.375 125.679C96.375 126.16 96.4168 126.597 96.4941 126.996C89.8719 129.737 82.6128 131.25 75 131.25C43.934 131.25 18.75 106.066 18.75 75C18.75 55.865 28.3048 38.9621 42.9033 28.8008C43.5858 38.3185 45.4727 61.1943 45.4727 61.1943C45.4725 61.921 44.3476 62.5609 43.75 62.8896L43.4512 63.0459C39.6544 64.7589 37 69.6038 37 74.1025C37.0001 85.1763 41.6583 96.25 48.25 96.25C54.8417 96.25 59.4999 85.1763 59.5 74.1025C59.3418 69.7768 56.7402 64.7069 53.0664 62.9766C52.9786 62.942 52.9081 62.9076 52.8203 62.873H52.8027C52.2051 62.5443 51.0802 61.921 51.0801 61.1943C51.0801 61.1943 53.8924 26.8152 53.8926 24.8408C53.8926 24.1634 53.7866 23.5334 53.6113 22.959C60.2051 20.2461 67.4278 18.75 75 18.75Z" fill="white"/>
</svg>
