<svg width="42" height="42" viewBox="0 0 42 42" fill="none" xmlns="http://www.w3.org/2000/svg">
<path d="M21 0C32.598 0 42 9.40202 42 21C42 32.598 32.598 42 21 42C9.40202 42 0 32.598 0 21C0 9.40202 9.40202 0 21 0ZM21 2.09961C10.5618 2.09961 2.09961 10.5618 2.09961 21C2.09961 31.4382 10.5618 39.9004 21 39.9004C31.4382 39.9004 39.9004 31.4382 39.9004 21C39.9004 10.5618 31.4382 2.09961 21 2.09961Z" fill="#7CC02F"/>
<path d="M21 5.25C29.6985 5.25 36.75 12.3015 36.75 21C36.75 26.3286 34.1027 31.0376 30.0527 33.8877C29.8519 31.0894 29.3477 24.8652 29.3477 24.8652C29.3459 24.8548 29.312 24.6177 29.9082 24.3525C30.9713 23.8777 31.71 22.792 31.71 21.542C31.7099 19.449 30.9713 17.0266 30.5283 15.0645V15.0498H30.1348L30.125 20.7139C30.1249 21.0091 29.9825 21.2507 29.6826 21.251C29.4021 21.251 29.2883 21.0428 29.2588 20.7715C29.254 20.7523 29.2587 20.7331 29.2588 20.7139L28.752 15.0498H28.3584L27.915 20.7188L27.9102 20.7715C27.8806 21.0428 27.7279 21.251 27.4424 21.251C27.1425 21.2508 26.9952 21.0092 26.9951 20.7139L26.9756 15.0498H26.5811C26.1479 17.0362 25.4102 19.4539 25.4102 21.5469C25.4102 22.792 26.1291 23.8769 27.2168 24.3662C27.7551 24.6076 27.772 24.854 27.7725 24.8652C27.7725 24.8652 26.9854 34.6381 26.9854 35.1904C26.9854 35.3244 26.9961 35.4463 27.0176 35.5576C25.1634 36.3249 23.1315 36.75 21 36.75C12.3015 36.75 5.25 29.6985 5.25 21C5.25 15.642 7.92587 10.9096 12.0137 8.06445C12.2048 10.7296 12.7324 17.1348 12.7324 17.1348C12.732 17.3381 12.4172 17.5174 12.25 17.6094L12.166 17.6523C11.1029 18.132 10.3604 19.4894 10.3604 20.749C10.3605 23.8494 11.6643 26.9499 13.5098 26.9502C15.3554 26.9502 16.66 23.8496 16.6602 20.749C16.6159 19.5378 15.8871 18.1183 14.8584 17.6338C14.8339 17.6242 14.8145 17.6141 14.79 17.6045H14.7852C14.6179 17.5125 14.3031 17.3381 14.3027 17.1348C14.3027 17.1348 15.0898 7.50739 15.0898 6.95508C15.0898 6.76578 15.0587 6.59026 15.0098 6.42969C16.8564 5.66965 18.8792 5.25 21 5.25Z" fill="#7CC02F"/>
</svg>
